<?xml version="1.0" encoding="utf-8" standalone="no"?>
<!DOCTYPE svg PUBLIC "-//W3C//DTD SVG 1.1//EN"
  "http://www.w3.org/Graphics/SVG/1.1/DTD/svg11.dtd">
<svg xmlns:xlink="http://www.w3.org/1999/xlink" width="818.503125pt" height="311.874375pt" viewBox="0 0 818.503125 311.874375" xmlns="http://www.w3.org/2000/svg" version="1.1">
 <metadata>
  <rdf:RDF xmlns:dc="http://purl.org/dc/elements/1.1/" xmlns:cc="http://creativecommons.org/ns#" xmlns:rdf="http://www.w3.org/1999/02/22-rdf-syntax-ns#">
   <cc:Work>
    <dc:type rdf:resource="http://purl.org/dc/dcmitype/StillImage"/>
    <dc:date>2023-12-28T16:08:36.531178</dc:date>
    <dc:format>image/svg+xml</dc:format>
    <dc:creator>
     <cc:Agent>
      <dc:title>Matplotlib v3.5.2, https://matplotlib.org/</dc:title>
     </cc:Agent>
    </dc:creator>
   </cc:Work>
  </rdf:RDF>
 </metadata>
 <defs>
  <style type="text/css">*{stroke-linejoin: round; stroke-linecap: butt}</style>
 </defs>
 <g id="figure_1">
  <g id="patch_1">
   <path d="M 0 311.874375 
L 818.503125 311.874375 
L 818.503125 0 
L 0 0 
z
" style="fill: #ffffff"/>
  </g>
  <g id="axes_1">
   <g id="patch_2">
    <path d="M 30.103125 274.318125 
L 385.194034 274.318125 
L 385.194034 22.318125 
L 30.103125 22.318125 
z
" style="fill: #ffffff"/>
   </g>
   <g id="matplotlib.axis_1">
    <g id="xtick_1">
     <g id="line2d_1">
      <defs>
       <path id="m928cd70a52" d="M 0 0 
L 0 3.5 
" style="stroke: #000000; stroke-width: 0.8"/>
      </defs>
      <g>
       <use xlink:href="#m928cd70a52" x="46.243621" y="274.318125" style="stroke: #000000; stroke-width: 0.8"/>
      </g>
     </g>
     <g id="text_1">
      <!-- 0 -->
      <g transform="translate(43.062371 288.916562)scale(0.1 -0.1)">
       <defs>
        <path id="DejaVuSans-30" d="M 2034 4250 
Q 1547 4250 1301 3770 
Q 1056 3291 1056 2328 
Q 1056 1369 1301 889 
Q 1547 409 2034 409 
Q 2525 409 2770 889 
Q 3016 1369 3016 2328 
Q 3016 3291 2770 3770 
Q 2525 4250 2034 4250 
z
M 2034 4750 
Q 2819 4750 3233 4129 
Q 3647 3509 3647 2328 
Q 3647 1150 3233 529 
Q 2819 -91 2034 -91 
Q 1250 -91 836 529 
Q 422 1150 422 2328 
Q 422 3509 836 4129 
Q 1250 4750 2034 4750 
z
" transform="scale(0.015625)"/>
       </defs>
       <use xlink:href="#DejaVuSans-30"/>
      </g>
     </g>
    </g>
    <g id="xtick_2">
     <g id="line2d_2">
      <g>
       <use xlink:href="#m928cd70a52" x="97.48329" y="274.318125" style="stroke: #000000; stroke-width: 0.8"/>
      </g>
     </g>
     <g id="text_2">
      <!-- 10 -->
      <g transform="translate(91.12079 288.916562)scale(0.1 -0.1)">
       <defs>
        <path id="DejaVuSans-31" d="M 794 531 
L 1825 531 
L 1825 4091 
L 703 3866 
L 703 4441 
L 1819 4666 
L 2450 4666 
L 2450 531 
L 3481 531 
L 3481 0 
L 794 0 
L 794 531 
z
" transform="scale(0.015625)"/>
       </defs>
       <use xlink:href="#DejaVuSans-31"/>
       <use xlink:href="#DejaVuSans-30" x="63.623047"/>
      </g>
     </g>
    </g>
    <g id="xtick_3">
     <g id="line2d_3">
      <g>
       <use xlink:href="#m928cd70a52" x="148.72296" y="274.318125" style="stroke: #000000; stroke-width: 0.8"/>
      </g>
     </g>
     <g id="text_3">
      <!-- 20 -->
      <g transform="translate(142.36046 288.916562)scale(0.1 -0.1)">
       <defs>
        <path id="DejaVuSans-32" d="M 1228 531 
L 3431 531 
L 3431 0 
L 469 0 
L 469 531 
Q 828 903 1448 1529 
Q 2069 2156 2228 2338 
Q 2531 2678 2651 2914 
Q 2772 3150 2772 3378 
Q 2772 3750 2511 3984 
Q 2250 4219 1831 4219 
Q 1534 4219 1204 4116 
Q 875 4013 500 3803 
L 500 4441 
Q 881 4594 1212 4672 
Q 1544 4750 1819 4750 
Q 2544 4750 2975 4387 
Q 3406 4025 3406 3419 
Q 3406 3131 3298 2873 
Q 3191 2616 2906 2266 
Q 2828 2175 2409 1742 
Q 1991 1309 1228 531 
z
" transform="scale(0.015625)"/>
       </defs>
       <use xlink:href="#DejaVuSans-32"/>
       <use xlink:href="#DejaVuSans-30" x="63.623047"/>
      </g>
     </g>
    </g>
    <g id="xtick_4">
     <g id="line2d_4">
      <g>
       <use xlink:href="#m928cd70a52" x="199.962629" y="274.318125" style="stroke: #000000; stroke-width: 0.8"/>
      </g>
     </g>
     <g id="text_4">
      <!-- 30 -->
      <g transform="translate(193.600129 288.916562)scale(0.1 -0.1)">
       <defs>
        <path id="DejaVuSans-33" d="M 2597 2516 
Q 3050 2419 3304 2112 
Q 3559 1806 3559 1356 
Q 3559 666 3084 287 
Q 2609 -91 1734 -91 
Q 1441 -91 1130 -33 
Q 819 25 488 141 
L 488 750 
Q 750 597 1062 519 
Q 1375 441 1716 441 
Q 2309 441 2620 675 
Q 2931 909 2931 1356 
Q 2931 1769 2642 2001 
Q 2353 2234 1838 2234 
L 1294 2234 
L 1294 2753 
L 1863 2753 
Q 2328 2753 2575 2939 
Q 2822 3125 2822 3475 
Q 2822 3834 2567 4026 
Q 2313 4219 1838 4219 
Q 1578 4219 1281 4162 
Q 984 4106 628 3988 
L 628 4550 
Q 988 4650 1302 4700 
Q 1616 4750 1894 4750 
Q 2613 4750 3031 4423 
Q 3450 4097 3450 3541 
Q 3450 3153 3228 2886 
Q 3006 2619 2597 2516 
z
" transform="scale(0.015625)"/>
       </defs>
       <use xlink:href="#DejaVuSans-33"/>
       <use xlink:href="#DejaVuSans-30" x="63.623047"/>
      </g>
     </g>
    </g>
    <g id="xtick_5">
     <g id="line2d_5">
      <g>
       <use xlink:href="#m928cd70a52" x="251.202299" y="274.318125" style="stroke: #000000; stroke-width: 0.8"/>
      </g>
     </g>
     <g id="text_5">
      <!-- 40 -->
      <g transform="translate(244.839799 288.916562)scale(0.1 -0.1)">
       <defs>
        <path id="DejaVuSans-34" d="M 2419 4116 
L 825 1625 
L 2419 1625 
L 2419 4116 
z
M 2253 4666 
L 3047 4666 
L 3047 1625 
L 3713 1625 
L 3713 1100 
L 3047 1100 
L 3047 0 
L 2419 0 
L 2419 1100 
L 313 1100 
L 313 1709 
L 2253 4666 
z
" transform="scale(0.015625)"/>
       </defs>
       <use xlink:href="#DejaVuSans-34"/>
       <use xlink:href="#DejaVuSans-30" x="63.623047"/>
      </g>
     </g>
    </g>
    <g id="xtick_6">
     <g id="line2d_6">
      <g>
       <use xlink:href="#m928cd70a52" x="302.441968" y="274.318125" style="stroke: #000000; stroke-width: 0.8"/>
      </g>
     </g>
     <g id="text_6">
      <!-- 50 -->
      <g transform="translate(296.079468 288.916562)scale(0.1 -0.1)">
       <defs>
        <path id="DejaVuSans-35" d="M 691 4666 
L 3169 4666 
L 3169 4134 
L 1269 4134 
L 1269 2991 
Q 1406 3038 1543 3061 
Q 1681 3084 1819 3084 
Q 2600 3084 3056 2656 
Q 3513 2228 3513 1497 
Q 3513 744 3044 326 
Q 2575 -91 1722 -91 
Q 1428 -91 1123 -41 
Q 819 9 494 109 
L 494 744 
Q 775 591 1075 516 
Q 1375 441 1709 441 
Q 2250 441 2565 725 
Q 2881 1009 2881 1497 
Q 2881 1984 2565 2268 
Q 2250 2553 1709 2553 
Q 1456 2553 1204 2497 
Q 953 2441 691 2322 
L 691 4666 
z
" transform="scale(0.015625)"/>
       </defs>
       <use xlink:href="#DejaVuSans-35"/>
       <use xlink:href="#DejaVuSans-30" x="63.623047"/>
      </g>
     </g>
    </g>
    <g id="xtick_7">
     <g id="line2d_7">
      <g>
       <use xlink:href="#m928cd70a52" x="353.681637" y="274.318125" style="stroke: #000000; stroke-width: 0.8"/>
      </g>
     </g>
     <g id="text_7">
      <!-- 60 -->
      <g transform="translate(347.319137 288.916562)scale(0.1 -0.1)">
       <defs>
        <path id="DejaVuSans-36" d="M 2113 2584 
Q 1688 2584 1439 2293 
Q 1191 2003 1191 1497 
Q 1191 994 1439 701 
Q 1688 409 2113 409 
Q 2538 409 2786 701 
Q 3034 994 3034 1497 
Q 3034 2003 2786 2293 
Q 2538 2584 2113 2584 
z
M 3366 4563 
L 3366 3988 
Q 3128 4100 2886 4159 
Q 2644 4219 2406 4219 
Q 1781 4219 1451 3797 
Q 1122 3375 1075 2522 
Q 1259 2794 1537 2939 
Q 1816 3084 2150 3084 
Q 2853 3084 3261 2657 
Q 3669 2231 3669 1497 
Q 3669 778 3244 343 
Q 2819 -91 2113 -91 
Q 1303 -91 875 529 
Q 447 1150 447 2328 
Q 447 3434 972 4092 
Q 1497 4750 2381 4750 
Q 2619 4750 2861 4703 
Q 3103 4656 3366 4563 
z
" transform="scale(0.015625)"/>
       </defs>
       <use xlink:href="#DejaVuSans-36"/>
       <use xlink:href="#DejaVuSans-30" x="63.623047"/>
      </g>
     </g>
    </g>
    <g id="text_8">
     <!-- epoch -->
     <g transform="translate(192.420455 302.594687)scale(0.1 -0.1)">
      <defs>
       <path id="DejaVuSans-65" d="M 3597 1894 
L 3597 1613 
L 953 1613 
Q 991 1019 1311 708 
Q 1631 397 2203 397 
Q 2534 397 2845 478 
Q 3156 559 3463 722 
L 3463 178 
Q 3153 47 2828 -22 
Q 2503 -91 2169 -91 
Q 1331 -91 842 396 
Q 353 884 353 1716 
Q 353 2575 817 3079 
Q 1281 3584 2069 3584 
Q 2775 3584 3186 3129 
Q 3597 2675 3597 1894 
z
M 3022 2063 
Q 3016 2534 2758 2815 
Q 2500 3097 2075 3097 
Q 1594 3097 1305 2825 
Q 1016 2553 972 2059 
L 3022 2063 
z
" transform="scale(0.015625)"/>
       <path id="DejaVuSans-70" d="M 1159 525 
L 1159 -1331 
L 581 -1331 
L 581 3500 
L 1159 3500 
L 1159 2969 
Q 1341 3281 1617 3432 
Q 1894 3584 2278 3584 
Q 2916 3584 3314 3078 
Q 3713 2572 3713 1747 
Q 3713 922 3314 415 
Q 2916 -91 2278 -91 
Q 1894 -91 1617 61 
Q 1341 213 1159 525 
z
M 3116 1747 
Q 3116 2381 2855 2742 
Q 2594 3103 2138 3103 
Q 1681 3103 1420 2742 
Q 1159 2381 1159 1747 
Q 1159 1113 1420 752 
Q 1681 391 2138 391 
Q 2594 391 2855 752 
Q 3116 1113 3116 1747 
z
" transform="scale(0.015625)"/>
       <path id="DejaVuSans-6f" d="M 1959 3097 
Q 1497 3097 1228 2736 
Q 959 2375 959 1747 
Q 959 1119 1226 758 
Q 1494 397 1959 397 
Q 2419 397 2687 759 
Q 2956 1122 2956 1747 
Q 2956 2369 2687 2733 
Q 2419 3097 1959 3097 
z
M 1959 3584 
Q 2709 3584 3137 3096 
Q 3566 2609 3566 1747 
Q 3566 888 3137 398 
Q 2709 -91 1959 -91 
Q 1206 -91 779 398 
Q 353 888 353 1747 
Q 353 2609 779 3096 
Q 1206 3584 1959 3584 
z
" transform="scale(0.015625)"/>
       <path id="DejaVuSans-63" d="M 3122 3366 
L 3122 2828 
Q 2878 2963 2633 3030 
Q 2388 3097 2138 3097 
Q 1578 3097 1268 2742 
Q 959 2388 959 1747 
Q 959 1106 1268 751 
Q 1578 397 2138 397 
Q 2388 397 2633 464 
Q 2878 531 3122 666 
L 3122 134 
Q 2881 22 2623 -34 
Q 2366 -91 2075 -91 
Q 1284 -91 818 406 
Q 353 903 353 1747 
Q 353 2603 823 3093 
Q 1294 3584 2113 3584 
Q 2378 3584 2631 3529 
Q 2884 3475 3122 3366 
z
" transform="scale(0.015625)"/>
       <path id="DejaVuSans-68" d="M 3513 2113 
L 3513 0 
L 2938 0 
L 2938 2094 
Q 2938 2591 2744 2837 
Q 2550 3084 2163 3084 
Q 1697 3084 1428 2787 
Q 1159 2491 1159 1978 
L 1159 0 
L 581 0 
L 581 4863 
L 1159 4863 
L 1159 2956 
Q 1366 3272 1645 3428 
Q 1925 3584 2291 3584 
Q 2894 3584 3203 3211 
Q 3513 2838 3513 2113 
z
" transform="scale(0.015625)"/>
      </defs>
      <use xlink:href="#DejaVuSans-65"/>
      <use xlink:href="#DejaVuSans-70" x="61.523438"/>
      <use xlink:href="#DejaVuSans-6f" x="125"/>
      <use xlink:href="#DejaVuSans-63" x="186.181641"/>
      <use xlink:href="#DejaVuSans-68" x="241.162109"/>
     </g>
    </g>
   </g>
   <g id="matplotlib.axis_2">
    <g id="ytick_1">
     <g id="line2d_8">
      <defs>
       <path id="m55c1ce0b48" d="M 0 0 
L -3.5 0 
" style="stroke: #000000; stroke-width: 0.8"/>
      </defs>
      <g>
       <use xlink:href="#m55c1ce0b48" x="30.103125" y="254.133089" style="stroke: #000000; stroke-width: 0.8"/>
      </g>
     </g>
     <g id="text_9">
      <!-- 0.2 -->
      <g transform="translate(7.2 257.932307)scale(0.1 -0.1)">
       <defs>
        <path id="DejaVuSans-2e" d="M 684 794 
L 1344 794 
L 1344 0 
L 684 0 
L 684 794 
z
" transform="scale(0.015625)"/>
       </defs>
       <use xlink:href="#DejaVuSans-30"/>
       <use xlink:href="#DejaVuSans-2e" x="63.623047"/>
       <use xlink:href="#DejaVuSans-32" x="95.410156"/>
      </g>
     </g>
    </g>
    <g id="ytick_2">
     <g id="line2d_9">
      <g>
       <use xlink:href="#m55c1ce0b48" x="30.103125" y="216.859438" style="stroke: #000000; stroke-width: 0.8"/>
      </g>
     </g>
     <g id="text_10">
      <!-- 0.3 -->
      <g transform="translate(7.2 220.658657)scale(0.1 -0.1)">
       <use xlink:href="#DejaVuSans-30"/>
       <use xlink:href="#DejaVuSans-2e" x="63.623047"/>
       <use xlink:href="#DejaVuSans-33" x="95.410156"/>
      </g>
     </g>
    </g>
    <g id="ytick_3">
     <g id="line2d_10">
      <g>
       <use xlink:href="#m55c1ce0b48" x="30.103125" y="179.585787" style="stroke: #000000; stroke-width: 0.8"/>
      </g>
     </g>
     <g id="text_11">
      <!-- 0.4 -->
      <g transform="translate(7.2 183.385006)scale(0.1 -0.1)">
       <use xlink:href="#DejaVuSans-30"/>
       <use xlink:href="#DejaVuSans-2e" x="63.623047"/>
       <use xlink:href="#DejaVuSans-34" x="95.410156"/>
      </g>
     </g>
    </g>
    <g id="ytick_4">
     <g id="line2d_11">
      <g>
       <use xlink:href="#m55c1ce0b48" x="30.103125" y="142.312136" style="stroke: #000000; stroke-width: 0.8"/>
      </g>
     </g>
     <g id="text_12">
      <!-- 0.5 -->
      <g transform="translate(7.2 146.111355)scale(0.1 -0.1)">
       <use xlink:href="#DejaVuSans-30"/>
       <use xlink:href="#DejaVuSans-2e" x="63.623047"/>
       <use xlink:href="#DejaVuSans-35" x="95.410156"/>
      </g>
     </g>
    </g>
    <g id="ytick_5">
     <g id="line2d_12">
      <g>
       <use xlink:href="#m55c1ce0b48" x="30.103125" y="105.038486" style="stroke: #000000; stroke-width: 0.8"/>
      </g>
     </g>
     <g id="text_13">
      <!-- 0.6 -->
      <g transform="translate(7.2 108.837704)scale(0.1 -0.1)">
       <use xlink:href="#DejaVuSans-30"/>
       <use xlink:href="#DejaVuSans-2e" x="63.623047"/>
       <use xlink:href="#DejaVuSans-36" x="95.410156"/>
      </g>
     </g>
    </g>
    <g id="ytick_6">
     <g id="line2d_13">
      <g>
       <use xlink:href="#m55c1ce0b48" x="30.103125" y="67.764835" style="stroke: #000000; stroke-width: 0.8"/>
      </g>
     </g>
     <g id="text_14">
      <!-- 0.7 -->
      <g transform="translate(7.2 71.564054)scale(0.1 -0.1)">
       <defs>
        <path id="DejaVuSans-37" d="M 525 4666 
L 3525 4666 
L 3525 4397 
L 1831 0 
L 1172 0 
L 2766 4134 
L 525 4134 
L 525 4666 
z
" transform="scale(0.015625)"/>
       </defs>
       <use xlink:href="#DejaVuSans-30"/>
       <use xlink:href="#DejaVuSans-2e" x="63.623047"/>
       <use xlink:href="#DejaVuSans-37" x="95.410156"/>
      </g>
     </g>
    </g>
    <g id="ytick_7">
     <g id="line2d_14">
      <g>
       <use xlink:href="#m55c1ce0b48" x="30.103125" y="30.491184" style="stroke: #000000; stroke-width: 0.8"/>
      </g>
     </g>
     <g id="text_15">
      <!-- 0.8 -->
      <g transform="translate(7.2 34.290403)scale(0.1 -0.1)">
       <defs>
        <path id="DejaVuSans-38" d="M 2034 2216 
Q 1584 2216 1326 1975 
Q 1069 1734 1069 1313 
Q 1069 891 1326 650 
Q 1584 409 2034 409 
Q 2484 409 2743 651 
Q 3003 894 3003 1313 
Q 3003 1734 2745 1975 
Q 2488 2216 2034 2216 
z
M 1403 2484 
Q 997 2584 770 2862 
Q 544 3141 544 3541 
Q 544 4100 942 4425 
Q 1341 4750 2034 4750 
Q 2731 4750 3128 4425 
Q 3525 4100 3525 3541 
Q 3525 3141 3298 2862 
Q 3072 2584 2669 2484 
Q 3125 2378 3379 2068 
Q 3634 1759 3634 1313 
Q 3634 634 3220 271 
Q 2806 -91 2034 -91 
Q 1263 -91 848 271 
Q 434 634 434 1313 
Q 434 1759 690 2068 
Q 947 2378 1403 2484 
z
M 1172 3481 
Q 1172 3119 1398 2916 
Q 1625 2713 2034 2713 
Q 2441 2713 2670 2916 
Q 2900 3119 2900 3481 
Q 2900 3844 2670 4047 
Q 2441 4250 2034 4250 
Q 1625 4250 1398 4047 
Q 1172 3844 1172 3481 
z
" transform="scale(0.015625)"/>
       </defs>
       <use xlink:href="#DejaVuSans-30"/>
       <use xlink:href="#DejaVuSans-2e" x="63.623047"/>
       <use xlink:href="#DejaVuSans-38" x="95.410156"/>
      </g>
     </g>
    </g>
   </g>
   <g id="line2d_15">
    <path d="M 46.243621 33.77267 
L 51.367588 189.433555 
L 56.491555 210.764259 
L 61.615522 222.172828 
L 66.739489 228.86514 
L 71.863456 234.163502 
L 76.987423 237.654783 
L 82.111389 240.760434 
L 87.235356 242.69934 
L 92.359323 244.411613 
L 97.48329 246.208935 
L 102.607257 247.549922 
L 107.731224 248.545996 
L 112.855191 249.372245 
L 117.979158 250.232816 
L 123.103125 250.809569 
L 128.227092 251.614641 
L 133.351059 252.278034 
L 138.475026 252.923154 
L 143.598993 253.461691 
L 148.72296 254.143434 
L 153.846927 254.384305 
L 158.970894 254.631659 
L 164.094861 255.182338 
L 169.218827 255.817235 
L 174.342794 255.935411 
L 179.466761 256.430819 
L 184.590728 256.797504 
L 189.714695 257.146202 
L 194.838662 257.5057 
L 199.962629 257.802254 
L 205.086596 257.955527 
L 210.210563 258.469772 
L 215.33453 259.031204 
L 220.458497 259.234511 
L 225.582464 259.522563 
L 230.706431 259.784388 
L 235.830398 260.18981 
L 240.954365 260.520839 
L 246.078332 260.475937 
L 251.202299 260.864245 
L 256.326265 260.996531 
L 261.450232 261.0122 
L 266.574199 261.163714 
L 271.698166 261.254243 
L 276.822133 261.532094 
L 281.9461 261.676936 
L 287.070067 261.723765 
L 292.194034 261.870126 
L 297.318001 261.910822 
L 302.441968 261.900183 
L 307.565935 261.805088 
L 312.689902 262.26464 
L 317.813869 262.12276 
L 322.937836 262.265765 
L 328.061803 262.247059 
L 333.18577 262.201464 
L 338.309737 262.546932 
L 343.433704 262.729846 
L 348.55767 262.539267 
L 353.681637 262.762751 
L 358.805604 262.72555 
L 363.929571 262.537207 
L 369.053538 262.86358 
" clip-path="url(#p2c4f45eda8)" style="fill: none; stroke: #1f77b4; stroke-width: 1.5; stroke-linecap: square"/>
   </g>
   <g id="patch_3">
    <path d="M 30.103125 274.318125 
L 30.103125 22.318125 
" style="fill: none; stroke: #000000; stroke-width: 0.8; stroke-linejoin: miter; stroke-linecap: square"/>
   </g>
   <g id="patch_4">
    <path d="M 385.194034 274.318125 
L 385.194034 22.318125 
" style="fill: none; stroke: #000000; stroke-width: 0.8; stroke-linejoin: miter; stroke-linecap: square"/>
   </g>
   <g id="patch_5">
    <path d="M 30.103125 274.318125 
L 385.194034 274.318125 
" style="fill: none; stroke: #000000; stroke-width: 0.8; stroke-linejoin: miter; stroke-linecap: square"/>
   </g>
   <g id="patch_6">
    <path d="M 30.103125 22.318125 
L 385.194034 22.318125 
" style="fill: none; stroke: #000000; stroke-width: 0.8; stroke-linejoin: miter; stroke-linecap: square"/>
   </g>
   <g id="text_16">
    <!-- train loss -->
    <g transform="translate(180.18733 16.318125)scale(0.12 -0.12)">
     <defs>
      <path id="DejaVuSans-74" d="M 1172 4494 
L 1172 3500 
L 2356 3500 
L 2356 3053 
L 1172 3053 
L 1172 1153 
Q 1172 725 1289 603 
Q 1406 481 1766 481 
L 2356 481 
L 2356 0 
L 1766 0 
Q 1100 0 847 248 
Q 594 497 594 1153 
L 594 3053 
L 172 3053 
L 172 3500 
L 594 3500 
L 594 4494 
L 1172 4494 
z
" transform="scale(0.015625)"/>
      <path id="DejaVuSans-72" d="M 2631 2963 
Q 2534 3019 2420 3045 
Q 2306 3072 2169 3072 
Q 1681 3072 1420 2755 
Q 1159 2438 1159 1844 
L 1159 0 
L 581 0 
L 581 3500 
L 1159 3500 
L 1159 2956 
Q 1341 3275 1631 3429 
Q 1922 3584 2338 3584 
Q 2397 3584 2469 3576 
Q 2541 3569 2628 3553 
L 2631 2963 
z
" transform="scale(0.015625)"/>
      <path id="DejaVuSans-61" d="M 2194 1759 
Q 1497 1759 1228 1600 
Q 959 1441 959 1056 
Q 959 750 1161 570 
Q 1363 391 1709 391 
Q 2188 391 2477 730 
Q 2766 1069 2766 1631 
L 2766 1759 
L 2194 1759 
z
M 3341 1997 
L 3341 0 
L 2766 0 
L 2766 531 
Q 2569 213 2275 61 
Q 1981 -91 1556 -91 
Q 1019 -91 701 211 
Q 384 513 384 1019 
Q 384 1609 779 1909 
Q 1175 2209 1959 2209 
L 2766 2209 
L 2766 2266 
Q 2766 2663 2505 2880 
Q 2244 3097 1772 3097 
Q 1472 3097 1187 3025 
Q 903 2953 641 2809 
L 641 3341 
Q 956 3463 1253 3523 
Q 1550 3584 1831 3584 
Q 2591 3584 2966 3190 
Q 3341 2797 3341 1997 
z
" transform="scale(0.015625)"/>
      <path id="DejaVuSans-69" d="M 603 3500 
L 1178 3500 
L 1178 0 
L 603 0 
L 603 3500 
z
M 603 4863 
L 1178 4863 
L 1178 4134 
L 603 4134 
L 603 4863 
z
" transform="scale(0.015625)"/>
      <path id="DejaVuSans-6e" d="M 3513 2113 
L 3513 0 
L 2938 0 
L 2938 2094 
Q 2938 2591 2744 2837 
Q 2550 3084 2163 3084 
Q 1697 3084 1428 2787 
Q 1159 2491 1159 1978 
L 1159 0 
L 581 0 
L 581 3500 
L 1159 3500 
L 1159 2956 
Q 1366 3272 1645 3428 
Q 1925 3584 2291 3584 
Q 2894 3584 3203 3211 
Q 3513 2838 3513 2113 
z
" transform="scale(0.015625)"/>
      <path id="DejaVuSans-20" transform="scale(0.015625)"/>
      <path id="DejaVuSans-6c" d="M 603 4863 
L 1178 4863 
L 1178 0 
L 603 0 
L 603 4863 
z
" transform="scale(0.015625)"/>
      <path id="DejaVuSans-73" d="M 2834 3397 
L 2834 2853 
Q 2591 2978 2328 3040 
Q 2066 3103 1784 3103 
Q 1356 3103 1142 2972 
Q 928 2841 928 2578 
Q 928 2378 1081 2264 
Q 1234 2150 1697 2047 
L 1894 2003 
Q 2506 1872 2764 1633 
Q 3022 1394 3022 966 
Q 3022 478 2636 193 
Q 2250 -91 1575 -91 
Q 1294 -91 989 -36 
Q 684 19 347 128 
L 347 722 
Q 666 556 975 473 
Q 1284 391 1588 391 
Q 1994 391 2212 530 
Q 2431 669 2431 922 
Q 2431 1156 2273 1281 
Q 2116 1406 1581 1522 
L 1381 1569 
Q 847 1681 609 1914 
Q 372 2147 372 2553 
Q 372 3047 722 3315 
Q 1072 3584 1716 3584 
Q 2034 3584 2315 3537 
Q 2597 3491 2834 3397 
z
" transform="scale(0.015625)"/>
     </defs>
     <use xlink:href="#DejaVuSans-74"/>
     <use xlink:href="#DejaVuSans-72" x="39.208984"/>
     <use xlink:href="#DejaVuSans-61" x="80.322266"/>
     <use xlink:href="#DejaVuSans-69" x="141.601562"/>
     <use xlink:href="#DejaVuSans-6e" x="169.384766"/>
     <use xlink:href="#DejaVuSans-20" x="232.763672"/>
     <use xlink:href="#DejaVuSans-6c" x="264.550781"/>
     <use xlink:href="#DejaVuSans-6f" x="292.333984"/>
     <use xlink:href="#DejaVuSans-73" x="353.515625"/>
     <use xlink:href="#DejaVuSans-73" x="405.615234"/>
    </g>
   </g>
  </g>
  <g id="axes_2">
   <g id="patch_7">
    <path d="M 456.212216 274.318125 
L 811.303125 274.318125 
L 811.303125 22.318125 
L 456.212216 22.318125 
z
" style="fill: #ffffff"/>
   </g>
   <g id="matplotlib.axis_3">
    <g id="xtick_8">
     <g id="line2d_16">
      <g>
       <use xlink:href="#m928cd70a52" x="472.352712" y="274.318125" style="stroke: #000000; stroke-width: 0.8"/>
      </g>
     </g>
     <g id="text_17">
      <!-- 0 -->
      <g transform="translate(469.171462 288.916562)scale(0.1 -0.1)">
       <use xlink:href="#DejaVuSans-30"/>
      </g>
     </g>
    </g>
    <g id="xtick_9">
     <g id="line2d_17">
      <g>
       <use xlink:href="#m928cd70a52" x="523.592381" y="274.318125" style="stroke: #000000; stroke-width: 0.8"/>
      </g>
     </g>
     <g id="text_18">
      <!-- 10 -->
      <g transform="translate(517.229881 288.916562)scale(0.1 -0.1)">
       <use xlink:href="#DejaVuSans-31"/>
       <use xlink:href="#DejaVuSans-30" x="63.623047"/>
      </g>
     </g>
    </g>
    <g id="xtick_10">
     <g id="line2d_18">
      <g>
       <use xlink:href="#m928cd70a52" x="574.832051" y="274.318125" style="stroke: #000000; stroke-width: 0.8"/>
      </g>
     </g>
     <g id="text_19">
      <!-- 20 -->
      <g transform="translate(568.469551 288.916562)scale(0.1 -0.1)">
       <use xlink:href="#DejaVuSans-32"/>
       <use xlink:href="#DejaVuSans-30" x="63.623047"/>
      </g>
     </g>
    </g>
    <g id="xtick_11">
     <g id="line2d_19">
      <g>
       <use xlink:href="#m928cd70a52" x="626.07172" y="274.318125" style="stroke: #000000; stroke-width: 0.8"/>
      </g>
     </g>
     <g id="text_20">
      <!-- 30 -->
      <g transform="translate(619.70922 288.916562)scale(0.1 -0.1)">
       <use xlink:href="#DejaVuSans-33"/>
       <use xlink:href="#DejaVuSans-30" x="63.623047"/>
      </g>
     </g>
    </g>
    <g id="xtick_12">
     <g id="line2d_20">
      <g>
       <use xlink:href="#m928cd70a52" x="677.311389" y="274.318125" style="stroke: #000000; stroke-width: 0.8"/>
      </g>
     </g>
     <g id="text_21">
      <!-- 40 -->
      <g transform="translate(670.948889 288.916562)scale(0.1 -0.1)">
       <use xlink:href="#DejaVuSans-34"/>
       <use xlink:href="#DejaVuSans-30" x="63.623047"/>
      </g>
     </g>
    </g>
    <g id="xtick_13">
     <g id="line2d_21">
      <g>
       <use xlink:href="#m928cd70a52" x="728.551059" y="274.318125" style="stroke: #000000; stroke-width: 0.8"/>
      </g>
     </g>
     <g id="text_22">
      <!-- 50 -->
      <g transform="translate(722.188559 288.916562)scale(0.1 -0.1)">
       <use xlink:href="#DejaVuSans-35"/>
       <use xlink:href="#DejaVuSans-30" x="63.623047"/>
      </g>
     </g>
    </g>
    <g id="xtick_14">
     <g id="line2d_22">
      <g>
       <use xlink:href="#m928cd70a52" x="779.790728" y="274.318125" style="stroke: #000000; stroke-width: 0.8"/>
      </g>
     </g>
     <g id="text_23">
      <!-- 60 -->
      <g transform="translate(773.428228 288.916562)scale(0.1 -0.1)">
       <use xlink:href="#DejaVuSans-36"/>
       <use xlink:href="#DejaVuSans-30" x="63.623047"/>
      </g>
     </g>
    </g>
    <g id="text_24">
     <!-- epoch -->
     <g transform="translate(618.529545 302.594687)scale(0.1 -0.1)">
      <use xlink:href="#DejaVuSans-65"/>
      <use xlink:href="#DejaVuSans-70" x="61.523438"/>
      <use xlink:href="#DejaVuSans-6f" x="125"/>
      <use xlink:href="#DejaVuSans-63" x="186.181641"/>
      <use xlink:href="#DejaVuSans-68" x="241.162109"/>
     </g>
    </g>
   </g>
   <g id="matplotlib.axis_4">
    <g id="ytick_8">
     <g id="line2d_23">
      <g>
       <use xlink:href="#m55c1ce0b48" x="456.212216" y="254.45214" style="stroke: #000000; stroke-width: 0.8"/>
      </g>
     </g>
     <g id="text_25">
      <!-- 0.25 -->
      <g transform="translate(426.946591 258.251359)scale(0.1 -0.1)">
       <use xlink:href="#DejaVuSans-30"/>
       <use xlink:href="#DejaVuSans-2e" x="63.623047"/>
       <use xlink:href="#DejaVuSans-32" x="95.410156"/>
       <use xlink:href="#DejaVuSans-35" x="159.033203"/>
      </g>
     </g>
    </g>
    <g id="ytick_9">
     <g id="line2d_24">
      <g>
       <use xlink:href="#m55c1ce0b48" x="456.212216" y="225.811676" style="stroke: #000000; stroke-width: 0.8"/>
      </g>
     </g>
     <g id="text_26">
      <!-- 0.50 -->
      <g transform="translate(426.946591 229.610895)scale(0.1 -0.1)">
       <use xlink:href="#DejaVuSans-30"/>
       <use xlink:href="#DejaVuSans-2e" x="63.623047"/>
       <use xlink:href="#DejaVuSans-35" x="95.410156"/>
       <use xlink:href="#DejaVuSans-30" x="159.033203"/>
      </g>
     </g>
    </g>
    <g id="ytick_10">
     <g id="line2d_25">
      <g>
       <use xlink:href="#m55c1ce0b48" x="456.212216" y="197.171212" style="stroke: #000000; stroke-width: 0.8"/>
      </g>
     </g>
     <g id="text_27">
      <!-- 0.75 -->
      <g transform="translate(426.946591 200.970431)scale(0.1 -0.1)">
       <use xlink:href="#DejaVuSans-30"/>
       <use xlink:href="#DejaVuSans-2e" x="63.623047"/>
       <use xlink:href="#DejaVuSans-37" x="95.410156"/>
       <use xlink:href="#DejaVuSans-35" x="159.033203"/>
      </g>
     </g>
    </g>
    <g id="ytick_11">
     <g id="line2d_26">
      <g>
       <use xlink:href="#m55c1ce0b48" x="456.212216" y="168.530748" style="stroke: #000000; stroke-width: 0.8"/>
      </g>
     </g>
     <g id="text_28">
      <!-- 1.00 -->
      <g transform="translate(426.946591 172.329967)scale(0.1 -0.1)">
       <use xlink:href="#DejaVuSans-31"/>
       <use xlink:href="#DejaVuSans-2e" x="63.623047"/>
       <use xlink:href="#DejaVuSans-30" x="95.410156"/>
       <use xlink:href="#DejaVuSans-30" x="159.033203"/>
      </g>
     </g>
    </g>
    <g id="ytick_12">
     <g id="line2d_27">
      <g>
       <use xlink:href="#m55c1ce0b48" x="456.212216" y="139.890284" style="stroke: #000000; stroke-width: 0.8"/>
      </g>
     </g>
     <g id="text_29">
      <!-- 1.25 -->
      <g transform="translate(426.946591 143.689503)scale(0.1 -0.1)">
       <use xlink:href="#DejaVuSans-31"/>
       <use xlink:href="#DejaVuSans-2e" x="63.623047"/>
       <use xlink:href="#DejaVuSans-32" x="95.410156"/>
       <use xlink:href="#DejaVuSans-35" x="159.033203"/>
      </g>
     </g>
    </g>
    <g id="ytick_13">
     <g id="line2d_28">
      <g>
       <use xlink:href="#m55c1ce0b48" x="456.212216" y="111.24982" style="stroke: #000000; stroke-width: 0.8"/>
      </g>
     </g>
     <g id="text_30">
      <!-- 1.50 -->
      <g transform="translate(426.946591 115.049039)scale(0.1 -0.1)">
       <use xlink:href="#DejaVuSans-31"/>
       <use xlink:href="#DejaVuSans-2e" x="63.623047"/>
       <use xlink:href="#DejaVuSans-35" x="95.410156"/>
       <use xlink:href="#DejaVuSans-30" x="159.033203"/>
      </g>
     </g>
    </g>
    <g id="ytick_14">
     <g id="line2d_29">
      <g>
       <use xlink:href="#m55c1ce0b48" x="456.212216" y="82.609356" style="stroke: #000000; stroke-width: 0.8"/>
      </g>
     </g>
     <g id="text_31">
      <!-- 1.75 -->
      <g transform="translate(426.946591 86.408575)scale(0.1 -0.1)">
       <use xlink:href="#DejaVuSans-31"/>
       <use xlink:href="#DejaVuSans-2e" x="63.623047"/>
       <use xlink:href="#DejaVuSans-37" x="95.410156"/>
       <use xlink:href="#DejaVuSans-35" x="159.033203"/>
      </g>
     </g>
    </g>
    <g id="ytick_15">
     <g id="line2d_30">
      <g>
       <use xlink:href="#m55c1ce0b48" x="456.212216" y="53.968892" style="stroke: #000000; stroke-width: 0.8"/>
      </g>
     </g>
     <g id="text_32">
      <!-- 2.00 -->
      <g transform="translate(426.946591 57.768111)scale(0.1 -0.1)">
       <use xlink:href="#DejaVuSans-32"/>
       <use xlink:href="#DejaVuSans-2e" x="63.623047"/>
       <use xlink:href="#DejaVuSans-30" x="95.410156"/>
       <use xlink:href="#DejaVuSans-30" x="159.033203"/>
      </g>
     </g>
    </g>
    <g id="ytick_16">
     <g id="line2d_31">
      <g>
       <use xlink:href="#m55c1ce0b48" x="456.212216" y="25.328428" style="stroke: #000000; stroke-width: 0.8"/>
      </g>
     </g>
     <g id="text_33">
      <!-- 2.25 -->
      <g transform="translate(426.946591 29.127647)scale(0.1 -0.1)">
       <use xlink:href="#DejaVuSans-32"/>
       <use xlink:href="#DejaVuSans-2e" x="63.623047"/>
       <use xlink:href="#DejaVuSans-32" x="95.410156"/>
       <use xlink:href="#DejaVuSans-35" x="159.033203"/>
      </g>
     </g>
    </g>
   </g>
   <g id="line2d_32">
    <path d="M 472.352712 192.451696 
L 477.476679 240.294607 
L 482.600646 246.850673 
L 487.724613 250.357136 
L 492.84858 252.414042 
L 497.972546 254.042511 
L 503.096513 255.115569 
L 508.22048 256.070101 
L 513.344447 256.666031 
L 518.468414 257.192304 
L 523.592381 257.744717 
L 528.716348 258.156874 
L 533.840315 258.463021 
L 538.964282 258.716971 
L 544.088249 258.981471 
L 549.212216 259.158738 
L 554.336183 259.406179 
L 559.46015 259.610076 
L 564.584117 259.808355 
L 569.708084 259.973876 
L 574.832051 260.183413 
L 579.956018 260.257445 
L 585.079985 260.33347 
L 590.203951 260.502723 
L 595.327918 260.697861 
L 600.451885 260.734183 
L 605.575852 260.886448 
L 610.699819 260.99915 
L 615.823786 261.106324 
L 620.947753 261.216817 
L 626.07172 261.307963 
L 631.195687 261.355072 
L 636.319654 261.513127 
L 641.443621 261.685686 
L 646.567588 261.748173 
L 651.691555 261.836706 
L 656.815522 261.917179 
L 661.939489 262.041787 
L 667.063456 262.14353 
L 672.187423 262.129729 
L 677.311389 262.249077 
L 682.435356 262.289736 
L 687.559323 262.294552 
L 692.68329 262.34112 
L 697.807257 262.368944 
L 702.931224 262.454343 
L 708.055191 262.498861 
L 713.179158 262.513254 
L 718.303125 262.558238 
L 723.427092 262.570746 
L 728.551059 262.567476 
L 733.675026 262.538248 
L 738.798993 262.679494 
L 743.92296 262.635886 
L 749.046927 262.679839 
L 754.170894 262.67409 
L 759.294861 262.660076 
L 764.418827 262.766257 
L 769.542794 262.822476 
L 774.666761 262.763901 
L 779.790728 262.83259 
L 784.914695 262.821156 
L 790.038662 262.763268 
L 795.162629 262.86358 
" clip-path="url(#p8bd0202d5d)" style="fill: none; stroke: #1f77b4; stroke-width: 1.5; stroke-linecap: square"/>
    <defs>
     <path id="m76af93561c" d="M 0 3 
C 0.795609 3 1.55874 2.683901 2.12132 2.12132 
C 2.683901 1.55874 3 0.795609 3 0 
C 3 -0.795609 2.683901 -1.55874 2.12132 -2.12132 
C 1.55874 -2.683901 0.795609 -3 0 -3 
C -0.795609 -3 -1.55874 -2.683901 -2.12132 -2.12132 
C -2.683901 -1.55874 -3 -0.795609 -3 0 
C -3 0.795609 -2.683901 1.55874 -2.12132 2.12132 
C -1.55874 2.683901 -0.795609 3 0 3 
z
" style="stroke: #1f77b4"/>
    </defs>
    <g clip-path="url(#p8bd0202d5d)">
     <use xlink:href="#m76af93561c" x="472.352712" y="192.451696" style="fill: #1f77b4; stroke: #1f77b4"/>
     <use xlink:href="#m76af93561c" x="477.476679" y="240.294607" style="fill: #1f77b4; stroke: #1f77b4"/>
     <use xlink:href="#m76af93561c" x="482.600646" y="246.850673" style="fill: #1f77b4; stroke: #1f77b4"/>
     <use xlink:href="#m76af93561c" x="487.724613" y="250.357136" style="fill: #1f77b4; stroke: #1f77b4"/>
     <use xlink:href="#m76af93561c" x="492.84858" y="252.414042" style="fill: #1f77b4; stroke: #1f77b4"/>
     <use xlink:href="#m76af93561c" x="497.972546" y="254.042511" style="fill: #1f77b4; stroke: #1f77b4"/>
     <use xlink:href="#m76af93561c" x="503.096513" y="255.115569" style="fill: #1f77b4; stroke: #1f77b4"/>
     <use xlink:href="#m76af93561c" x="508.22048" y="256.070101" style="fill: #1f77b4; stroke: #1f77b4"/>
     <use xlink:href="#m76af93561c" x="513.344447" y="256.666031" style="fill: #1f77b4; stroke: #1f77b4"/>
     <use xlink:href="#m76af93561c" x="518.468414" y="257.192304" style="fill: #1f77b4; stroke: #1f77b4"/>
     <use xlink:href="#m76af93561c" x="523.592381" y="257.744717" style="fill: #1f77b4; stroke: #1f77b4"/>
     <use xlink:href="#m76af93561c" x="528.716348" y="258.156874" style="fill: #1f77b4; stroke: #1f77b4"/>
     <use xlink:href="#m76af93561c" x="533.840315" y="258.463021" style="fill: #1f77b4; stroke: #1f77b4"/>
     <use xlink:href="#m76af93561c" x="538.964282" y="258.716971" style="fill: #1f77b4; stroke: #1f77b4"/>
     <use xlink:href="#m76af93561c" x="544.088249" y="258.981471" style="fill: #1f77b4; stroke: #1f77b4"/>
     <use xlink:href="#m76af93561c" x="549.212216" y="259.158738" style="fill: #1f77b4; stroke: #1f77b4"/>
     <use xlink:href="#m76af93561c" x="554.336183" y="259.406179" style="fill: #1f77b4; stroke: #1f77b4"/>
     <use xlink:href="#m76af93561c" x="559.46015" y="259.610076" style="fill: #1f77b4; stroke: #1f77b4"/>
     <use xlink:href="#m76af93561c" x="564.584117" y="259.808355" style="fill: #1f77b4; stroke: #1f77b4"/>
     <use xlink:href="#m76af93561c" x="569.708084" y="259.973876" style="fill: #1f77b4; stroke: #1f77b4"/>
     <use xlink:href="#m76af93561c" x="574.832051" y="260.183413" style="fill: #1f77b4; stroke: #1f77b4"/>
     <use xlink:href="#m76af93561c" x="579.956018" y="260.257445" style="fill: #1f77b4; stroke: #1f77b4"/>
     <use xlink:href="#m76af93561c" x="585.079985" y="260.33347" style="fill: #1f77b4; stroke: #1f77b4"/>
     <use xlink:href="#m76af93561c" x="590.203951" y="260.502723" style="fill: #1f77b4; stroke: #1f77b4"/>
     <use xlink:href="#m76af93561c" x="595.327918" y="260.697861" style="fill: #1f77b4; stroke: #1f77b4"/>
     <use xlink:href="#m76af93561c" x="600.451885" y="260.734183" style="fill: #1f77b4; stroke: #1f77b4"/>
     <use xlink:href="#m76af93561c" x="605.575852" y="260.886448" style="fill: #1f77b4; stroke: #1f77b4"/>
     <use xlink:href="#m76af93561c" x="610.699819" y="260.99915" style="fill: #1f77b4; stroke: #1f77b4"/>
     <use xlink:href="#m76af93561c" x="615.823786" y="261.106324" style="fill: #1f77b4; stroke: #1f77b4"/>
     <use xlink:href="#m76af93561c" x="620.947753" y="261.216817" style="fill: #1f77b4; stroke: #1f77b4"/>
     <use xlink:href="#m76af93561c" x="626.07172" y="261.307963" style="fill: #1f77b4; stroke: #1f77b4"/>
     <use xlink:href="#m76af93561c" x="631.195687" y="261.355072" style="fill: #1f77b4; stroke: #1f77b4"/>
     <use xlink:href="#m76af93561c" x="636.319654" y="261.513127" style="fill: #1f77b4; stroke: #1f77b4"/>
     <use xlink:href="#m76af93561c" x="641.443621" y="261.685686" style="fill: #1f77b4; stroke: #1f77b4"/>
     <use xlink:href="#m76af93561c" x="646.567588" y="261.748173" style="fill: #1f77b4; stroke: #1f77b4"/>
     <use xlink:href="#m76af93561c" x="651.691555" y="261.836706" style="fill: #1f77b4; stroke: #1f77b4"/>
     <use xlink:href="#m76af93561c" x="656.815522" y="261.917179" style="fill: #1f77b4; stroke: #1f77b4"/>
     <use xlink:href="#m76af93561c" x="661.939489" y="262.041787" style="fill: #1f77b4; stroke: #1f77b4"/>
     <use xlink:href="#m76af93561c" x="667.063456" y="262.14353" style="fill: #1f77b4; stroke: #1f77b4"/>
     <use xlink:href="#m76af93561c" x="672.187423" y="262.129729" style="fill: #1f77b4; stroke: #1f77b4"/>
     <use xlink:href="#m76af93561c" x="677.311389" y="262.249077" style="fill: #1f77b4; stroke: #1f77b4"/>
     <use xlink:href="#m76af93561c" x="682.435356" y="262.289736" style="fill: #1f77b4; stroke: #1f77b4"/>
     <use xlink:href="#m76af93561c" x="687.559323" y="262.294552" style="fill: #1f77b4; stroke: #1f77b4"/>
     <use xlink:href="#m76af93561c" x="692.68329" y="262.34112" style="fill: #1f77b4; stroke: #1f77b4"/>
     <use xlink:href="#m76af93561c" x="697.807257" y="262.368944" style="fill: #1f77b4; stroke: #1f77b4"/>
     <use xlink:href="#m76af93561c" x="702.931224" y="262.454343" style="fill: #1f77b4; stroke: #1f77b4"/>
     <use xlink:href="#m76af93561c" x="708.055191" y="262.498861" style="fill: #1f77b4; stroke: #1f77b4"/>
     <use xlink:href="#m76af93561c" x="713.179158" y="262.513254" style="fill: #1f77b4; stroke: #1f77b4"/>
     <use xlink:href="#m76af93561c" x="718.303125" y="262.558238" style="fill: #1f77b4; stroke: #1f77b4"/>
     <use xlink:href="#m76af93561c" x="723.427092" y="262.570746" style="fill: #1f77b4; stroke: #1f77b4"/>
     <use xlink:href="#m76af93561c" x="728.551059" y="262.567476" style="fill: #1f77b4; stroke: #1f77b4"/>
     <use xlink:href="#m76af93561c" x="733.675026" y="262.538248" style="fill: #1f77b4; stroke: #1f77b4"/>
     <use xlink:href="#m76af93561c" x="738.798993" y="262.679494" style="fill: #1f77b4; stroke: #1f77b4"/>
     <use xlink:href="#m76af93561c" x="743.92296" y="262.635886" style="fill: #1f77b4; stroke: #1f77b4"/>
     <use xlink:href="#m76af93561c" x="749.046927" y="262.679839" style="fill: #1f77b4; stroke: #1f77b4"/>
     <use xlink:href="#m76af93561c" x="754.170894" y="262.67409" style="fill: #1f77b4; stroke: #1f77b4"/>
     <use xlink:href="#m76af93561c" x="759.294861" y="262.660076" style="fill: #1f77b4; stroke: #1f77b4"/>
     <use xlink:href="#m76af93561c" x="764.418827" y="262.766257" style="fill: #1f77b4; stroke: #1f77b4"/>
     <use xlink:href="#m76af93561c" x="769.542794" y="262.822476" style="fill: #1f77b4; stroke: #1f77b4"/>
     <use xlink:href="#m76af93561c" x="774.666761" y="262.763901" style="fill: #1f77b4; stroke: #1f77b4"/>
     <use xlink:href="#m76af93561c" x="779.790728" y="262.83259" style="fill: #1f77b4; stroke: #1f77b4"/>
     <use xlink:href="#m76af93561c" x="784.914695" y="262.821156" style="fill: #1f77b4; stroke: #1f77b4"/>
     <use xlink:href="#m76af93561c" x="790.038662" y="262.763268" style="fill: #1f77b4; stroke: #1f77b4"/>
     <use xlink:href="#m76af93561c" x="795.162629" y="262.86358" style="fill: #1f77b4; stroke: #1f77b4"/>
    </g>
   </g>
   <g id="line2d_33">
    <path d="M 472.352712 33.77267 
L 477.476679 104.598278 
L 482.600646 150.874586 
L 487.724613 170.40848 
L 492.84858 179.63215 
L 497.972546 191.695352 
L 503.096513 200.991119 
L 508.22048 206.933771 
L 513.344447 210.28894 
L 518.468414 216.17578 
L 523.592381 221.029942 
L 528.716348 225.264082 
L 533.840315 227.397482 
L 538.964282 230.67143 
L 544.088249 234.540865 
L 549.212216 235.471922 
L 554.336183 235.193221 
L 559.46015 239.216764 
L 564.584117 240.473874 
L 569.708084 240.927046 
L 574.832051 244.025507 
L 579.956018 244.277095 
L 585.079985 244.54296 
L 590.203951 245.893251 
L 595.327918 247.781084 
L 600.451885 247.593094 
L 605.575852 248.542793 
L 610.699819 249.98317 
L 615.823786 249.918322 
L 620.947753 248.752813 
L 626.07172 250.544881 
L 631.195687 250.226918 
" clip-path="url(#p8bd0202d5d)" style="fill: none; stroke: #ff7f0e; stroke-width: 1.5; stroke-linecap: square"/>
    <defs>
     <path id="m55549da8f1" d="M 0 3 
C 0.795609 3 1.55874 2.683901 2.12132 2.12132 
C 2.683901 1.55874 3 0.795609 3 0 
C 3 -0.795609 2.683901 -1.55874 2.12132 -2.12132 
C 1.55874 -2.683901 0.795609 -3 0 -3 
C -0.795609 -3 -1.55874 -2.683901 -2.12132 -2.12132 
C -2.683901 -1.55874 -3 -0.795609 -3 0 
C -3 0.795609 -2.683901 1.55874 -2.12132 2.12132 
C -1.55874 2.683901 -0.795609 3 0 3 
z
" style="stroke: #ff7f0e"/>
    </defs>
    <g clip-path="url(#p8bd0202d5d)">
     <use xlink:href="#m55549da8f1" x="472.352712" y="33.77267" style="fill: #ff7f0e; stroke: #ff7f0e"/>
     <use xlink:href="#m55549da8f1" x="477.476679" y="104.598278" style="fill: #ff7f0e; stroke: #ff7f0e"/>
     <use xlink:href="#m55549da8f1" x="482.600646" y="150.874586" style="fill: #ff7f0e; stroke: #ff7f0e"/>
     <use xlink:href="#m55549da8f1" x="487.724613" y="170.40848" style="fill: #ff7f0e; stroke: #ff7f0e"/>
     <use xlink:href="#m55549da8f1" x="492.84858" y="179.63215" style="fill: #ff7f0e; stroke: #ff7f0e"/>
     <use xlink:href="#m55549da8f1" x="497.972546" y="191.695352" style="fill: #ff7f0e; stroke: #ff7f0e"/>
     <use xlink:href="#m55549da8f1" x="503.096513" y="200.991119" style="fill: #ff7f0e; stroke: #ff7f0e"/>
     <use xlink:href="#m55549da8f1" x="508.22048" y="206.933771" style="fill: #ff7f0e; stroke: #ff7f0e"/>
     <use xlink:href="#m55549da8f1" x="513.344447" y="210.28894" style="fill: #ff7f0e; stroke: #ff7f0e"/>
     <use xlink:href="#m55549da8f1" x="518.468414" y="216.17578" style="fill: #ff7f0e; stroke: #ff7f0e"/>
     <use xlink:href="#m55549da8f1" x="523.592381" y="221.029942" style="fill: #ff7f0e; stroke: #ff7f0e"/>
     <use xlink:href="#m55549da8f1" x="528.716348" y="225.264082" style="fill: #ff7f0e; stroke: #ff7f0e"/>
     <use xlink:href="#m55549da8f1" x="533.840315" y="227.397482" style="fill: #ff7f0e; stroke: #ff7f0e"/>
     <use xlink:href="#m55549da8f1" x="538.964282" y="230.67143" style="fill: #ff7f0e; stroke: #ff7f0e"/>
     <use xlink:href="#m55549da8f1" x="544.088249" y="234.540865" style="fill: #ff7f0e; stroke: #ff7f0e"/>
     <use xlink:href="#m55549da8f1" x="549.212216" y="235.471922" style="fill: #ff7f0e; stroke: #ff7f0e"/>
     <use xlink:href="#m55549da8f1" x="554.336183" y="235.193221" style="fill: #ff7f0e; stroke: #ff7f0e"/>
     <use xlink:href="#m55549da8f1" x="559.46015" y="239.216764" style="fill: #ff7f0e; stroke: #ff7f0e"/>
     <use xlink:href="#m55549da8f1" x="564.584117" y="240.473874" style="fill: #ff7f0e; stroke: #ff7f0e"/>
     <use xlink:href="#m55549da8f1" x="569.708084" y="240.927046" style="fill: #ff7f0e; stroke: #ff7f0e"/>
     <use xlink:href="#m55549da8f1" x="574.832051" y="244.025507" style="fill: #ff7f0e; stroke: #ff7f0e"/>
     <use xlink:href="#m55549da8f1" x="579.956018" y="244.277095" style="fill: #ff7f0e; stroke: #ff7f0e"/>
     <use xlink:href="#m55549da8f1" x="585.079985" y="244.54296" style="fill: #ff7f0e; stroke: #ff7f0e"/>
     <use xlink:href="#m55549da8f1" x="590.203951" y="245.893251" style="fill: #ff7f0e; stroke: #ff7f0e"/>
     <use xlink:href="#m55549da8f1" x="595.327918" y="247.781084" style="fill: #ff7f0e; stroke: #ff7f0e"/>
     <use xlink:href="#m55549da8f1" x="600.451885" y="247.593094" style="fill: #ff7f0e; stroke: #ff7f0e"/>
     <use xlink:href="#m55549da8f1" x="605.575852" y="248.542793" style="fill: #ff7f0e; stroke: #ff7f0e"/>
     <use xlink:href="#m55549da8f1" x="610.699819" y="249.98317" style="fill: #ff7f0e; stroke: #ff7f0e"/>
     <use xlink:href="#m55549da8f1" x="615.823786" y="249.918322" style="fill: #ff7f0e; stroke: #ff7f0e"/>
     <use xlink:href="#m55549da8f1" x="620.947753" y="248.752813" style="fill: #ff7f0e; stroke: #ff7f0e"/>
     <use xlink:href="#m55549da8f1" x="626.07172" y="250.544881" style="fill: #ff7f0e; stroke: #ff7f0e"/>
     <use xlink:href="#m55549da8f1" x="631.195687" y="250.226918" style="fill: #ff7f0e; stroke: #ff7f0e"/>
    </g>
   </g>
   <g id="patch_8">
    <path d="M 456.212216 274.318125 
L 456.212216 22.318125 
" style="fill: none; stroke: #000000; stroke-width: 0.8; stroke-linejoin: miter; stroke-linecap: square"/>
   </g>
   <g id="patch_9">
    <path d="M 811.303125 274.318125 
L 811.303125 22.318125 
" style="fill: none; stroke: #000000; stroke-width: 0.8; stroke-linejoin: miter; stroke-linecap: square"/>
   </g>
   <g id="patch_10">
    <path d="M 456.212216 274.318125 
L 811.303125 274.318125 
" style="fill: none; stroke: #000000; stroke-width: 0.8; stroke-linejoin: miter; stroke-linecap: square"/>
   </g>
   <g id="patch_11">
    <path d="M 456.212216 22.318125 
L 811.303125 22.318125 
" style="fill: none; stroke: #000000; stroke-width: 0.8; stroke-linejoin: miter; stroke-linecap: square"/>
   </g>
   <g id="text_34">
    <!-- epochs loss for train and valid -->
    <g transform="translate(543.36017 16.318125)scale(0.12 -0.12)">
     <defs>
      <path id="DejaVuSans-66" d="M 2375 4863 
L 2375 4384 
L 1825 4384 
Q 1516 4384 1395 4259 
Q 1275 4134 1275 3809 
L 1275 3500 
L 2222 3500 
L 2222 3053 
L 1275 3053 
L 1275 0 
L 697 0 
L 697 3053 
L 147 3053 
L 147 3500 
L 697 3500 
L 697 3744 
Q 697 4328 969 4595 
Q 1241 4863 1831 4863 
L 2375 4863 
z
" transform="scale(0.015625)"/>
      <path id="DejaVuSans-64" d="M 2906 2969 
L 2906 4863 
L 3481 4863 
L 3481 0 
L 2906 0 
L 2906 525 
Q 2725 213 2448 61 
Q 2172 -91 1784 -91 
Q 1150 -91 751 415 
Q 353 922 353 1747 
Q 353 2572 751 3078 
Q 1150 3584 1784 3584 
Q 2172 3584 2448 3432 
Q 2725 3281 2906 2969 
z
M 947 1747 
Q 947 1113 1208 752 
Q 1469 391 1925 391 
Q 2381 391 2643 752 
Q 2906 1113 2906 1747 
Q 2906 2381 2643 2742 
Q 2381 3103 1925 3103 
Q 1469 3103 1208 2742 
Q 947 2381 947 1747 
z
" transform="scale(0.015625)"/>
      <path id="DejaVuSans-76" d="M 191 3500 
L 800 3500 
L 1894 563 
L 2988 3500 
L 3597 3500 
L 2284 0 
L 1503 0 
L 191 3500 
z
" transform="scale(0.015625)"/>
     </defs>
     <use xlink:href="#DejaVuSans-65"/>
     <use xlink:href="#DejaVuSans-70" x="61.523438"/>
     <use xlink:href="#DejaVuSans-6f" x="125"/>
     <use xlink:href="#DejaVuSans-63" x="186.181641"/>
     <use xlink:href="#DejaVuSans-68" x="241.162109"/>
     <use xlink:href="#DejaVuSans-73" x="304.541016"/>
     <use xlink:href="#DejaVuSans-20" x="356.640625"/>
     <use xlink:href="#DejaVuSans-6c" x="388.427734"/>
     <use xlink:href="#DejaVuSans-6f" x="416.210938"/>
     <use xlink:href="#DejaVuSans-73" x="477.392578"/>
     <use xlink:href="#DejaVuSans-73" x="529.492188"/>
     <use xlink:href="#DejaVuSans-20" x="581.591797"/>
     <use xlink:href="#DejaVuSans-66" x="613.378906"/>
     <use xlink:href="#DejaVuSans-6f" x="648.583984"/>
     <use xlink:href="#DejaVuSans-72" x="709.765625"/>
     <use xlink:href="#DejaVuSans-20" x="750.878906"/>
     <use xlink:href="#DejaVuSans-74" x="782.666016"/>
     <use xlink:href="#DejaVuSans-72" x="821.875"/>
     <use xlink:href="#DejaVuSans-61" x="862.988281"/>
     <use xlink:href="#DejaVuSans-69" x="924.267578"/>
     <use xlink:href="#DejaVuSans-6e" x="952.050781"/>
     <use xlink:href="#DejaVuSans-20" x="1015.429688"/>
     <use xlink:href="#DejaVuSans-61" x="1047.216797"/>
     <use xlink:href="#DejaVuSans-6e" x="1108.496094"/>
     <use xlink:href="#DejaVuSans-64" x="1171.875"/>
     <use xlink:href="#DejaVuSans-20" x="1235.351562"/>
     <use xlink:href="#DejaVuSans-76" x="1267.138672"/>
     <use xlink:href="#DejaVuSans-61" x="1326.318359"/>
     <use xlink:href="#DejaVuSans-6c" x="1387.597656"/>
     <use xlink:href="#DejaVuSans-69" x="1415.380859"/>
     <use xlink:href="#DejaVuSans-64" x="1443.164062"/>
    </g>
   </g>
   <g id="legend_1">
    <g id="patch_12">
     <path d="M 724.035937 60.230625 
L 804.303125 60.230625 
Q 806.303125 60.230625 806.303125 58.230625 
L 806.303125 29.318125 
Q 806.303125 27.318125 804.303125 27.318125 
L 724.035937 27.318125 
Q 722.035937 27.318125 722.035937 29.318125 
L 722.035937 58.230625 
Q 722.035937 60.230625 724.035937 60.230625 
z
" style="fill: #ffffff; opacity: 0.8; stroke: #cccccc; stroke-linejoin: miter"/>
    </g>
    <g id="line2d_34">
     <path d="M 726.035937 35.416562 
L 736.035937 35.416562 
L 746.035937 35.416562 
" style="fill: none; stroke: #1f77b4; stroke-width: 1.5; stroke-linecap: square"/>
     <g>
      <use xlink:href="#m76af93561c" x="736.035937" y="35.416562" style="fill: #1f77b4; stroke: #1f77b4"/>
     </g>
    </g>
    <g id="text_35">
     <!-- train_loss -->
     <g transform="translate(754.035937 38.916562)scale(0.1 -0.1)">
      <defs>
       <path id="DejaVuSans-5f" d="M 3263 -1063 
L 3263 -1509 
L -63 -1509 
L -63 -1063 
L 3263 -1063 
z
" transform="scale(0.015625)"/>
      </defs>
      <use xlink:href="#DejaVuSans-74"/>
      <use xlink:href="#DejaVuSans-72" x="39.208984"/>
      <use xlink:href="#DejaVuSans-61" x="80.322266"/>
      <use xlink:href="#DejaVuSans-69" x="141.601562"/>
      <use xlink:href="#DejaVuSans-6e" x="169.384766"/>
      <use xlink:href="#DejaVuSans-5f" x="232.763672"/>
      <use xlink:href="#DejaVuSans-6c" x="282.763672"/>
      <use xlink:href="#DejaVuSans-6f" x="310.546875"/>
      <use xlink:href="#DejaVuSans-73" x="371.728516"/>
      <use xlink:href="#DejaVuSans-73" x="423.828125"/>
     </g>
    </g>
    <g id="line2d_35">
     <path d="M 726.035937 50.372812 
L 736.035937 50.372812 
L 746.035937 50.372812 
" style="fill: none; stroke: #ff7f0e; stroke-width: 1.5; stroke-linecap: square"/>
     <g>
      <use xlink:href="#m55549da8f1" x="736.035937" y="50.372812" style="fill: #ff7f0e; stroke: #ff7f0e"/>
     </g>
    </g>
    <g id="text_36">
     <!-- valid_loss -->
     <g transform="translate(754.035937 53.872812)scale(0.1 -0.1)">
      <use xlink:href="#DejaVuSans-76"/>
      <use xlink:href="#DejaVuSans-61" x="59.179688"/>
      <use xlink:href="#DejaVuSans-6c" x="120.458984"/>
      <use xlink:href="#DejaVuSans-69" x="148.242188"/>
      <use xlink:href="#DejaVuSans-64" x="176.025391"/>
      <use xlink:href="#DejaVuSans-5f" x="239.501953"/>
      <use xlink:href="#DejaVuSans-6c" x="289.501953"/>
      <use xlink:href="#DejaVuSans-6f" x="317.285156"/>
      <use xlink:href="#DejaVuSans-73" x="378.466797"/>
      <use xlink:href="#DejaVuSans-73" x="430.566406"/>
     </g>
    </g>
   </g>
  </g>
 </g>
 <defs>
  <clipPath id="p2c4f45eda8">
   <rect x="30.103125" y="22.318125" width="355.090909" height="252"/>
  </clipPath>
  <clipPath id="p8bd0202d5d">
   <rect x="456.212216" y="22.318125" width="355.090909" height="252"/>
  </clipPath>
 </defs>
</svg>
