<?xml version="1.0" encoding="utf-8" standalone="no"?>
<!DOCTYPE svg PUBLIC "-//W3C//DTD SVG 1.1//EN"
  "http://www.w3.org/Graphics/SVG/1.1/DTD/svg11.dtd">
<svg xmlns:xlink="http://www.w3.org/1999/xlink" width="824.865625pt" height="311.874375pt" viewBox="0 0 824.865625 311.874375" xmlns="http://www.w3.org/2000/svg" version="1.1">
 <metadata>
  <rdf:RDF xmlns:dc="http://purl.org/dc/elements/1.1/" xmlns:cc="http://creativecommons.org/ns#" xmlns:rdf="http://www.w3.org/1999/02/22-rdf-syntax-ns#">
   <cc:Work>
    <dc:type rdf:resource="http://purl.org/dc/dcmitype/StillImage"/>
    <dc:date>2023-12-31T16:29:42.221864</dc:date>
    <dc:format>image/svg+xml</dc:format>
    <dc:creator>
     <cc:Agent>
      <dc:title>Matplotlib v3.5.2, https://matplotlib.org/</dc:title>
     </cc:Agent>
    </dc:creator>
   </cc:Work>
  </rdf:RDF>
 </metadata>
 <defs>
  <style type="text/css">*{stroke-linejoin: round; stroke-linecap: butt}</style>
 </defs>
 <g id="figure_1">
  <g id="patch_1">
   <path d="M 0 311.874375 
L 824.865625 311.874375 
L 824.865625 0 
L 0 0 
z
" style="fill: #ffffff"/>
  </g>
  <g id="axes_1">
   <g id="patch_2">
    <path d="M 36.465625 274.318125 
L 391.556534 274.318125 
L 391.556534 22.318125 
L 36.465625 22.318125 
z
" style="fill: #ffffff"/>
   </g>
   <g id="matplotlib.axis_1">
    <g id="xtick_1">
     <g id="line2d_1">
      <defs>
       <path id="mcc1c0f7f9c" d="M 0 0 
L 0 3.5 
" style="stroke: #000000; stroke-width: 0.8"/>
      </defs>
      <g>
       <use xlink:href="#mcc1c0f7f9c" x="52.606121" y="274.318125" style="stroke: #000000; stroke-width: 0.8"/>
      </g>
     </g>
     <g id="text_1">
      <!-- 0 -->
      <g transform="translate(49.424871 288.916562)scale(0.1 -0.1)">
       <defs>
        <path id="DejaVuSans-30" d="M 2034 4250 
Q 1547 4250 1301 3770 
Q 1056 3291 1056 2328 
Q 1056 1369 1301 889 
Q 1547 409 2034 409 
Q 2525 409 2770 889 
Q 3016 1369 3016 2328 
Q 3016 3291 2770 3770 
Q 2525 4250 2034 4250 
z
M 2034 4750 
Q 2819 4750 3233 4129 
Q 3647 3509 3647 2328 
Q 3647 1150 3233 529 
Q 2819 -91 2034 -91 
Q 1250 -91 836 529 
Q 422 1150 422 2328 
Q 422 3509 836 4129 
Q 1250 4750 2034 4750 
z
" transform="scale(0.015625)"/>
       </defs>
       <use xlink:href="#DejaVuSans-30"/>
      </g>
     </g>
    </g>
    <g id="xtick_2">
     <g id="line2d_2">
      <g>
       <use xlink:href="#mcc1c0f7f9c" x="93.992008" y="274.318125" style="stroke: #000000; stroke-width: 0.8"/>
      </g>
     </g>
     <g id="text_2">
      <!-- 10 -->
      <g transform="translate(87.629508 288.916562)scale(0.1 -0.1)">
       <defs>
        <path id="DejaVuSans-31" d="M 794 531 
L 1825 531 
L 1825 4091 
L 703 3866 
L 703 4441 
L 1819 4666 
L 2450 4666 
L 2450 531 
L 3481 531 
L 3481 0 
L 794 0 
L 794 531 
z
" transform="scale(0.015625)"/>
       </defs>
       <use xlink:href="#DejaVuSans-31"/>
       <use xlink:href="#DejaVuSans-30" x="63.623047"/>
      </g>
     </g>
    </g>
    <g id="xtick_3">
     <g id="line2d_3">
      <g>
       <use xlink:href="#mcc1c0f7f9c" x="135.377895" y="274.318125" style="stroke: #000000; stroke-width: 0.8"/>
      </g>
     </g>
     <g id="text_3">
      <!-- 20 -->
      <g transform="translate(129.015395 288.916562)scale(0.1 -0.1)">
       <defs>
        <path id="DejaVuSans-32" d="M 1228 531 
L 3431 531 
L 3431 0 
L 469 0 
L 469 531 
Q 828 903 1448 1529 
Q 2069 2156 2228 2338 
Q 2531 2678 2651 2914 
Q 2772 3150 2772 3378 
Q 2772 3750 2511 3984 
Q 2250 4219 1831 4219 
Q 1534 4219 1204 4116 
Q 875 4013 500 3803 
L 500 4441 
Q 881 4594 1212 4672 
Q 1544 4750 1819 4750 
Q 2544 4750 2975 4387 
Q 3406 4025 3406 3419 
Q 3406 3131 3298 2873 
Q 3191 2616 2906 2266 
Q 2828 2175 2409 1742 
Q 1991 1309 1228 531 
z
" transform="scale(0.015625)"/>
       </defs>
       <use xlink:href="#DejaVuSans-32"/>
       <use xlink:href="#DejaVuSans-30" x="63.623047"/>
      </g>
     </g>
    </g>
    <g id="xtick_4">
     <g id="line2d_4">
      <g>
       <use xlink:href="#mcc1c0f7f9c" x="176.763781" y="274.318125" style="stroke: #000000; stroke-width: 0.8"/>
      </g>
     </g>
     <g id="text_4">
      <!-- 30 -->
      <g transform="translate(170.401281 288.916562)scale(0.1 -0.1)">
       <defs>
        <path id="DejaVuSans-33" d="M 2597 2516 
Q 3050 2419 3304 2112 
Q 3559 1806 3559 1356 
Q 3559 666 3084 287 
Q 2609 -91 1734 -91 
Q 1441 -91 1130 -33 
Q 819 25 488 141 
L 488 750 
Q 750 597 1062 519 
Q 1375 441 1716 441 
Q 2309 441 2620 675 
Q 2931 909 2931 1356 
Q 2931 1769 2642 2001 
Q 2353 2234 1838 2234 
L 1294 2234 
L 1294 2753 
L 1863 2753 
Q 2328 2753 2575 2939 
Q 2822 3125 2822 3475 
Q 2822 3834 2567 4026 
Q 2313 4219 1838 4219 
Q 1578 4219 1281 4162 
Q 984 4106 628 3988 
L 628 4550 
Q 988 4650 1302 4700 
Q 1616 4750 1894 4750 
Q 2613 4750 3031 4423 
Q 3450 4097 3450 3541 
Q 3450 3153 3228 2886 
Q 3006 2619 2597 2516 
z
" transform="scale(0.015625)"/>
       </defs>
       <use xlink:href="#DejaVuSans-33"/>
       <use xlink:href="#DejaVuSans-30" x="63.623047"/>
      </g>
     </g>
    </g>
    <g id="xtick_5">
     <g id="line2d_5">
      <g>
       <use xlink:href="#mcc1c0f7f9c" x="218.149668" y="274.318125" style="stroke: #000000; stroke-width: 0.8"/>
      </g>
     </g>
     <g id="text_5">
      <!-- 40 -->
      <g transform="translate(211.787168 288.916562)scale(0.1 -0.1)">
       <defs>
        <path id="DejaVuSans-34" d="M 2419 4116 
L 825 1625 
L 2419 1625 
L 2419 4116 
z
M 2253 4666 
L 3047 4666 
L 3047 1625 
L 3713 1625 
L 3713 1100 
L 3047 1100 
L 3047 0 
L 2419 0 
L 2419 1100 
L 313 1100 
L 313 1709 
L 2253 4666 
z
" transform="scale(0.015625)"/>
       </defs>
       <use xlink:href="#DejaVuSans-34"/>
       <use xlink:href="#DejaVuSans-30" x="63.623047"/>
      </g>
     </g>
    </g>
    <g id="xtick_6">
     <g id="line2d_6">
      <g>
       <use xlink:href="#mcc1c0f7f9c" x="259.535555" y="274.318125" style="stroke: #000000; stroke-width: 0.8"/>
      </g>
     </g>
     <g id="text_6">
      <!-- 50 -->
      <g transform="translate(253.173055 288.916562)scale(0.1 -0.1)">
       <defs>
        <path id="DejaVuSans-35" d="M 691 4666 
L 3169 4666 
L 3169 4134 
L 1269 4134 
L 1269 2991 
Q 1406 3038 1543 3061 
Q 1681 3084 1819 3084 
Q 2600 3084 3056 2656 
Q 3513 2228 3513 1497 
Q 3513 744 3044 326 
Q 2575 -91 1722 -91 
Q 1428 -91 1123 -41 
Q 819 9 494 109 
L 494 744 
Q 775 591 1075 516 
Q 1375 441 1709 441 
Q 2250 441 2565 725 
Q 2881 1009 2881 1497 
Q 2881 1984 2565 2268 
Q 2250 2553 1709 2553 
Q 1456 2553 1204 2497 
Q 953 2441 691 2322 
L 691 4666 
z
" transform="scale(0.015625)"/>
       </defs>
       <use xlink:href="#DejaVuSans-35"/>
       <use xlink:href="#DejaVuSans-30" x="63.623047"/>
      </g>
     </g>
    </g>
    <g id="xtick_7">
     <g id="line2d_7">
      <g>
       <use xlink:href="#mcc1c0f7f9c" x="300.921442" y="274.318125" style="stroke: #000000; stroke-width: 0.8"/>
      </g>
     </g>
     <g id="text_7">
      <!-- 60 -->
      <g transform="translate(294.558942 288.916562)scale(0.1 -0.1)">
       <defs>
        <path id="DejaVuSans-36" d="M 2113 2584 
Q 1688 2584 1439 2293 
Q 1191 2003 1191 1497 
Q 1191 994 1439 701 
Q 1688 409 2113 409 
Q 2538 409 2786 701 
Q 3034 994 3034 1497 
Q 3034 2003 2786 2293 
Q 2538 2584 2113 2584 
z
M 3366 4563 
L 3366 3988 
Q 3128 4100 2886 4159 
Q 2644 4219 2406 4219 
Q 1781 4219 1451 3797 
Q 1122 3375 1075 2522 
Q 1259 2794 1537 2939 
Q 1816 3084 2150 3084 
Q 2853 3084 3261 2657 
Q 3669 2231 3669 1497 
Q 3669 778 3244 343 
Q 2819 -91 2113 -91 
Q 1303 -91 875 529 
Q 447 1150 447 2328 
Q 447 3434 972 4092 
Q 1497 4750 2381 4750 
Q 2619 4750 2861 4703 
Q 3103 4656 3366 4563 
z
" transform="scale(0.015625)"/>
       </defs>
       <use xlink:href="#DejaVuSans-36"/>
       <use xlink:href="#DejaVuSans-30" x="63.623047"/>
      </g>
     </g>
    </g>
    <g id="xtick_8">
     <g id="line2d_8">
      <g>
       <use xlink:href="#mcc1c0f7f9c" x="342.307329" y="274.318125" style="stroke: #000000; stroke-width: 0.8"/>
      </g>
     </g>
     <g id="text_8">
      <!-- 70 -->
      <g transform="translate(335.944829 288.916562)scale(0.1 -0.1)">
       <defs>
        <path id="DejaVuSans-37" d="M 525 4666 
L 3525 4666 
L 3525 4397 
L 1831 0 
L 1172 0 
L 2766 4134 
L 525 4134 
L 525 4666 
z
" transform="scale(0.015625)"/>
       </defs>
       <use xlink:href="#DejaVuSans-37"/>
       <use xlink:href="#DejaVuSans-30" x="63.623047"/>
      </g>
     </g>
    </g>
    <g id="xtick_9">
     <g id="line2d_9">
      <g>
       <use xlink:href="#mcc1c0f7f9c" x="383.693216" y="274.318125" style="stroke: #000000; stroke-width: 0.8"/>
      </g>
     </g>
     <g id="text_9">
      <!-- 80 -->
      <g transform="translate(377.330716 288.916562)scale(0.1 -0.1)">
       <defs>
        <path id="DejaVuSans-38" d="M 2034 2216 
Q 1584 2216 1326 1975 
Q 1069 1734 1069 1313 
Q 1069 891 1326 650 
Q 1584 409 2034 409 
Q 2484 409 2743 651 
Q 3003 894 3003 1313 
Q 3003 1734 2745 1975 
Q 2488 2216 2034 2216 
z
M 1403 2484 
Q 997 2584 770 2862 
Q 544 3141 544 3541 
Q 544 4100 942 4425 
Q 1341 4750 2034 4750 
Q 2731 4750 3128 4425 
Q 3525 4100 3525 3541 
Q 3525 3141 3298 2862 
Q 3072 2584 2669 2484 
Q 3125 2378 3379 2068 
Q 3634 1759 3634 1313 
Q 3634 634 3220 271 
Q 2806 -91 2034 -91 
Q 1263 -91 848 271 
Q 434 634 434 1313 
Q 434 1759 690 2068 
Q 947 2378 1403 2484 
z
M 1172 3481 
Q 1172 3119 1398 2916 
Q 1625 2713 2034 2713 
Q 2441 2713 2670 2916 
Q 2900 3119 2900 3481 
Q 2900 3844 2670 4047 
Q 2441 4250 2034 4250 
Q 1625 4250 1398 4047 
Q 1172 3844 1172 3481 
z
" transform="scale(0.015625)"/>
       </defs>
       <use xlink:href="#DejaVuSans-38"/>
       <use xlink:href="#DejaVuSans-30" x="63.623047"/>
      </g>
     </g>
    </g>
    <g id="text_10">
     <!-- epoch -->
     <g transform="translate(198.782955 302.594687)scale(0.1 -0.1)">
      <defs>
       <path id="DejaVuSans-65" d="M 3597 1894 
L 3597 1613 
L 953 1613 
Q 991 1019 1311 708 
Q 1631 397 2203 397 
Q 2534 397 2845 478 
Q 3156 559 3463 722 
L 3463 178 
Q 3153 47 2828 -22 
Q 2503 -91 2169 -91 
Q 1331 -91 842 396 
Q 353 884 353 1716 
Q 353 2575 817 3079 
Q 1281 3584 2069 3584 
Q 2775 3584 3186 3129 
Q 3597 2675 3597 1894 
z
M 3022 2063 
Q 3016 2534 2758 2815 
Q 2500 3097 2075 3097 
Q 1594 3097 1305 2825 
Q 1016 2553 972 2059 
L 3022 2063 
z
" transform="scale(0.015625)"/>
       <path id="DejaVuSans-70" d="M 1159 525 
L 1159 -1331 
L 581 -1331 
L 581 3500 
L 1159 3500 
L 1159 2969 
Q 1341 3281 1617 3432 
Q 1894 3584 2278 3584 
Q 2916 3584 3314 3078 
Q 3713 2572 3713 1747 
Q 3713 922 3314 415 
Q 2916 -91 2278 -91 
Q 1894 -91 1617 61 
Q 1341 213 1159 525 
z
M 3116 1747 
Q 3116 2381 2855 2742 
Q 2594 3103 2138 3103 
Q 1681 3103 1420 2742 
Q 1159 2381 1159 1747 
Q 1159 1113 1420 752 
Q 1681 391 2138 391 
Q 2594 391 2855 752 
Q 3116 1113 3116 1747 
z
" transform="scale(0.015625)"/>
       <path id="DejaVuSans-6f" d="M 1959 3097 
Q 1497 3097 1228 2736 
Q 959 2375 959 1747 
Q 959 1119 1226 758 
Q 1494 397 1959 397 
Q 2419 397 2687 759 
Q 2956 1122 2956 1747 
Q 2956 2369 2687 2733 
Q 2419 3097 1959 3097 
z
M 1959 3584 
Q 2709 3584 3137 3096 
Q 3566 2609 3566 1747 
Q 3566 888 3137 398 
Q 2709 -91 1959 -91 
Q 1206 -91 779 398 
Q 353 888 353 1747 
Q 353 2609 779 3096 
Q 1206 3584 1959 3584 
z
" transform="scale(0.015625)"/>
       <path id="DejaVuSans-63" d="M 3122 3366 
L 3122 2828 
Q 2878 2963 2633 3030 
Q 2388 3097 2138 3097 
Q 1578 3097 1268 2742 
Q 959 2388 959 1747 
Q 959 1106 1268 751 
Q 1578 397 2138 397 
Q 2388 397 2633 464 
Q 2878 531 3122 666 
L 3122 134 
Q 2881 22 2623 -34 
Q 2366 -91 2075 -91 
Q 1284 -91 818 406 
Q 353 903 353 1747 
Q 353 2603 823 3093 
Q 1294 3584 2113 3584 
Q 2378 3584 2631 3529 
Q 2884 3475 3122 3366 
z
" transform="scale(0.015625)"/>
       <path id="DejaVuSans-68" d="M 3513 2113 
L 3513 0 
L 2938 0 
L 2938 2094 
Q 2938 2591 2744 2837 
Q 2550 3084 2163 3084 
Q 1697 3084 1428 2787 
Q 1159 2491 1159 1978 
L 1159 0 
L 581 0 
L 581 4863 
L 1159 4863 
L 1159 2956 
Q 1366 3272 1645 3428 
Q 1925 3584 2291 3584 
Q 2894 3584 3203 3211 
Q 3513 2838 3513 2113 
z
" transform="scale(0.015625)"/>
      </defs>
      <use xlink:href="#DejaVuSans-65"/>
      <use xlink:href="#DejaVuSans-70" x="61.523438"/>
      <use xlink:href="#DejaVuSans-6f" x="125"/>
      <use xlink:href="#DejaVuSans-63" x="186.181641"/>
      <use xlink:href="#DejaVuSans-68" x="241.162109"/>
     </g>
    </g>
   </g>
   <g id="matplotlib.axis_2">
    <g id="ytick_1">
     <g id="line2d_10">
      <defs>
       <path id="mc2a22df107" d="M 0 0 
L -3.5 0 
" style="stroke: #000000; stroke-width: 0.8"/>
      </defs>
      <g>
       <use xlink:href="#mc2a22df107" x="36.465625" y="237.356844" style="stroke: #000000; stroke-width: 0.8"/>
      </g>
     </g>
     <g id="text_11">
      <!-- 0.09 -->
      <g transform="translate(7.2 241.156063)scale(0.1 -0.1)">
       <defs>
        <path id="DejaVuSans-2e" d="M 684 794 
L 1344 794 
L 1344 0 
L 684 0 
L 684 794 
z
" transform="scale(0.015625)"/>
        <path id="DejaVuSans-39" d="M 703 97 
L 703 672 
Q 941 559 1184 500 
Q 1428 441 1663 441 
Q 2288 441 2617 861 
Q 2947 1281 2994 2138 
Q 2813 1869 2534 1725 
Q 2256 1581 1919 1581 
Q 1219 1581 811 2004 
Q 403 2428 403 3163 
Q 403 3881 828 4315 
Q 1253 4750 1959 4750 
Q 2769 4750 3195 4129 
Q 3622 3509 3622 2328 
Q 3622 1225 3098 567 
Q 2575 -91 1691 -91 
Q 1453 -91 1209 -44 
Q 966 3 703 97 
z
M 1959 2075 
Q 2384 2075 2632 2365 
Q 2881 2656 2881 3163 
Q 2881 3666 2632 3958 
Q 2384 4250 1959 4250 
Q 1534 4250 1286 3958 
Q 1038 3666 1038 3163 
Q 1038 2656 1286 2365 
Q 1534 2075 1959 2075 
z
" transform="scale(0.015625)"/>
       </defs>
       <use xlink:href="#DejaVuSans-30"/>
       <use xlink:href="#DejaVuSans-2e" x="63.623047"/>
       <use xlink:href="#DejaVuSans-30" x="95.410156"/>
       <use xlink:href="#DejaVuSans-39" x="159.033203"/>
      </g>
     </g>
    </g>
    <g id="ytick_2">
     <g id="line2d_11">
      <g>
       <use xlink:href="#mc2a22df107" x="36.465625" y="193.231481" style="stroke: #000000; stroke-width: 0.8"/>
      </g>
     </g>
     <g id="text_12">
      <!-- 0.10 -->
      <g transform="translate(7.2 197.0307)scale(0.1 -0.1)">
       <use xlink:href="#DejaVuSans-30"/>
       <use xlink:href="#DejaVuSans-2e" x="63.623047"/>
       <use xlink:href="#DejaVuSans-31" x="95.410156"/>
       <use xlink:href="#DejaVuSans-30" x="159.033203"/>
      </g>
     </g>
    </g>
    <g id="ytick_3">
     <g id="line2d_12">
      <g>
       <use xlink:href="#mc2a22df107" x="36.465625" y="149.106119" style="stroke: #000000; stroke-width: 0.8"/>
      </g>
     </g>
     <g id="text_13">
      <!-- 0.11 -->
      <g transform="translate(7.2 152.905337)scale(0.1 -0.1)">
       <use xlink:href="#DejaVuSans-30"/>
       <use xlink:href="#DejaVuSans-2e" x="63.623047"/>
       <use xlink:href="#DejaVuSans-31" x="95.410156"/>
       <use xlink:href="#DejaVuSans-31" x="159.033203"/>
      </g>
     </g>
    </g>
    <g id="ytick_4">
     <g id="line2d_13">
      <g>
       <use xlink:href="#mc2a22df107" x="36.465625" y="104.980756" style="stroke: #000000; stroke-width: 0.8"/>
      </g>
     </g>
     <g id="text_14">
      <!-- 0.12 -->
      <g transform="translate(7.2 108.779975)scale(0.1 -0.1)">
       <use xlink:href="#DejaVuSans-30"/>
       <use xlink:href="#DejaVuSans-2e" x="63.623047"/>
       <use xlink:href="#DejaVuSans-31" x="95.410156"/>
       <use xlink:href="#DejaVuSans-32" x="159.033203"/>
      </g>
     </g>
    </g>
    <g id="ytick_5">
     <g id="line2d_14">
      <g>
       <use xlink:href="#mc2a22df107" x="36.465625" y="60.855394" style="stroke: #000000; stroke-width: 0.8"/>
      </g>
     </g>
     <g id="text_15">
      <!-- 0.13 -->
      <g transform="translate(7.2 64.654612)scale(0.1 -0.1)">
       <use xlink:href="#DejaVuSans-30"/>
       <use xlink:href="#DejaVuSans-2e" x="63.623047"/>
       <use xlink:href="#DejaVuSans-31" x="95.410156"/>
       <use xlink:href="#DejaVuSans-33" x="159.033203"/>
      </g>
     </g>
    </g>
   </g>
   <g id="line2d_15">
    <path d="M 52.606121 33.77267 
L 56.74471 122.083917 
L 60.883298 136.385251 
L 65.021887 145.775007 
L 69.160476 150.932391 
L 73.299064 155.705583 
L 77.437653 158.985091 
L 81.576242 162.158618 
L 85.71483 164.15665 
L 89.853419 167.101294 
L 93.992008 169.732836 
L 98.130596 171.757263 
L 102.269185 173.751887 
L 106.407774 175.582869 
L 110.546362 177.04257 
L 114.684951 179.674391 
L 118.82354 181.156088 
L 122.962128 182.997997 
L 127.100717 184.42056 
L 131.239306 186.209692 
L 135.377895 188.313205 
L 139.516483 189.516054 
L 143.655072 191.741331 
L 147.793661 193.424629 
L 151.932249 194.443877 
L 156.070838 196.445294 
L 160.209427 197.847951 
L 164.348015 199.401592 
L 168.486604 201.542326 
L 172.625193 203.238786 
L 176.763781 204.723139 
L 180.90237 205.93599 
L 185.040959 207.849155 
L 189.179547 209.323523 
L 193.318136 210.767565 
L 197.456725 212.435935 
L 201.595313 213.756738 
L 205.733902 215.436133 
L 209.872491 216.746288 
L 214.01108 218.138581 
L 218.149668 219.913692 
L 222.288257 220.996689 
L 226.426846 222.267081 
L 230.565434 223.399673 
L 234.704023 224.902725 
L 238.842612 226.632507 
L 242.9812 228.580059 
L 247.119789 228.788678 
L 251.258378 230.521772 
L 255.396966 232.01832 
L 259.535555 233.562148 
L 263.674144 234.405488 
L 267.812732 235.706078 
L 271.951321 237.194968 
L 276.08991 238.586811 
L 280.228498 239.299068 
L 284.367087 240.966282 
L 288.505676 241.382153 
L 292.644265 242.813514 
L 296.782853 243.998368 
L 300.921442 244.961179 
L 305.060031 246.589679 
L 309.198619 247.123071 
L 313.337208 248.809799 
L 317.475797 249.169391 
L 321.614385 250.471835 
L 325.752974 251.737372 
L 329.891563 252.737896 
L 334.030151 253.425213 
L 338.16874 254.470854 
L 342.307329 256.070373 
L 346.445917 256.891505 
L 350.584506 257.525756 
L 354.723095 258.431044 
L 358.861683 259.743613 
L 363.000272 260.55411 
L 367.138861 261.781127 
L 371.27745 262.86358 
L 375.416038 262.711619 
" clip-path="url(#p84896078fb)" style="fill: none; stroke: #1f77b4; stroke-width: 1.5; stroke-linecap: square"/>
   </g>
   <g id="patch_3">
    <path d="M 36.465625 274.318125 
L 36.465625 22.318125 
" style="fill: none; stroke: #000000; stroke-width: 0.8; stroke-linejoin: miter; stroke-linecap: square"/>
   </g>
   <g id="patch_4">
    <path d="M 391.556534 274.318125 
L 391.556534 22.318125 
" style="fill: none; stroke: #000000; stroke-width: 0.8; stroke-linejoin: miter; stroke-linecap: square"/>
   </g>
   <g id="patch_5">
    <path d="M 36.465625 274.318125 
L 391.556534 274.318125 
" style="fill: none; stroke: #000000; stroke-width: 0.8; stroke-linejoin: miter; stroke-linecap: square"/>
   </g>
   <g id="patch_6">
    <path d="M 36.465625 22.318125 
L 391.556534 22.318125 
" style="fill: none; stroke: #000000; stroke-width: 0.8; stroke-linejoin: miter; stroke-linecap: square"/>
   </g>
   <g id="text_16">
    <!-- train loss -->
    <g transform="translate(186.54983 16.318125)scale(0.12 -0.12)">
     <defs>
      <path id="DejaVuSans-74" d="M 1172 4494 
L 1172 3500 
L 2356 3500 
L 2356 3053 
L 1172 3053 
L 1172 1153 
Q 1172 725 1289 603 
Q 1406 481 1766 481 
L 2356 481 
L 2356 0 
L 1766 0 
Q 1100 0 847 248 
Q 594 497 594 1153 
L 594 3053 
L 172 3053 
L 172 3500 
L 594 3500 
L 594 4494 
L 1172 4494 
z
" transform="scale(0.015625)"/>
      <path id="DejaVuSans-72" d="M 2631 2963 
Q 2534 3019 2420 3045 
Q 2306 3072 2169 3072 
Q 1681 3072 1420 2755 
Q 1159 2438 1159 1844 
L 1159 0 
L 581 0 
L 581 3500 
L 1159 3500 
L 1159 2956 
Q 1341 3275 1631 3429 
Q 1922 3584 2338 3584 
Q 2397 3584 2469 3576 
Q 2541 3569 2628 3553 
L 2631 2963 
z
" transform="scale(0.015625)"/>
      <path id="DejaVuSans-61" d="M 2194 1759 
Q 1497 1759 1228 1600 
Q 959 1441 959 1056 
Q 959 750 1161 570 
Q 1363 391 1709 391 
Q 2188 391 2477 730 
Q 2766 1069 2766 1631 
L 2766 1759 
L 2194 1759 
z
M 3341 1997 
L 3341 0 
L 2766 0 
L 2766 531 
Q 2569 213 2275 61 
Q 1981 -91 1556 -91 
Q 1019 -91 701 211 
Q 384 513 384 1019 
Q 384 1609 779 1909 
Q 1175 2209 1959 2209 
L 2766 2209 
L 2766 2266 
Q 2766 2663 2505 2880 
Q 2244 3097 1772 3097 
Q 1472 3097 1187 3025 
Q 903 2953 641 2809 
L 641 3341 
Q 956 3463 1253 3523 
Q 1550 3584 1831 3584 
Q 2591 3584 2966 3190 
Q 3341 2797 3341 1997 
z
" transform="scale(0.015625)"/>
      <path id="DejaVuSans-69" d="M 603 3500 
L 1178 3500 
L 1178 0 
L 603 0 
L 603 3500 
z
M 603 4863 
L 1178 4863 
L 1178 4134 
L 603 4134 
L 603 4863 
z
" transform="scale(0.015625)"/>
      <path id="DejaVuSans-6e" d="M 3513 2113 
L 3513 0 
L 2938 0 
L 2938 2094 
Q 2938 2591 2744 2837 
Q 2550 3084 2163 3084 
Q 1697 3084 1428 2787 
Q 1159 2491 1159 1978 
L 1159 0 
L 581 0 
L 581 3500 
L 1159 3500 
L 1159 2956 
Q 1366 3272 1645 3428 
Q 1925 3584 2291 3584 
Q 2894 3584 3203 3211 
Q 3513 2838 3513 2113 
z
" transform="scale(0.015625)"/>
      <path id="DejaVuSans-20" transform="scale(0.015625)"/>
      <path id="DejaVuSans-6c" d="M 603 4863 
L 1178 4863 
L 1178 0 
L 603 0 
L 603 4863 
z
" transform="scale(0.015625)"/>
      <path id="DejaVuSans-73" d="M 2834 3397 
L 2834 2853 
Q 2591 2978 2328 3040 
Q 2066 3103 1784 3103 
Q 1356 3103 1142 2972 
Q 928 2841 928 2578 
Q 928 2378 1081 2264 
Q 1234 2150 1697 2047 
L 1894 2003 
Q 2506 1872 2764 1633 
Q 3022 1394 3022 966 
Q 3022 478 2636 193 
Q 2250 -91 1575 -91 
Q 1294 -91 989 -36 
Q 684 19 347 128 
L 347 722 
Q 666 556 975 473 
Q 1284 391 1588 391 
Q 1994 391 2212 530 
Q 2431 669 2431 922 
Q 2431 1156 2273 1281 
Q 2116 1406 1581 1522 
L 1381 1569 
Q 847 1681 609 1914 
Q 372 2147 372 2553 
Q 372 3047 722 3315 
Q 1072 3584 1716 3584 
Q 2034 3584 2315 3537 
Q 2597 3491 2834 3397 
z
" transform="scale(0.015625)"/>
     </defs>
     <use xlink:href="#DejaVuSans-74"/>
     <use xlink:href="#DejaVuSans-72" x="39.208984"/>
     <use xlink:href="#DejaVuSans-61" x="80.322266"/>
     <use xlink:href="#DejaVuSans-69" x="141.601562"/>
     <use xlink:href="#DejaVuSans-6e" x="169.384766"/>
     <use xlink:href="#DejaVuSans-20" x="232.763672"/>
     <use xlink:href="#DejaVuSans-6c" x="264.550781"/>
     <use xlink:href="#DejaVuSans-6f" x="292.333984"/>
     <use xlink:href="#DejaVuSans-73" x="353.515625"/>
     <use xlink:href="#DejaVuSans-73" x="405.615234"/>
    </g>
   </g>
  </g>
  <g id="axes_2">
   <g id="patch_7">
    <path d="M 462.574716 274.318125 
L 817.665625 274.318125 
L 817.665625 22.318125 
L 462.574716 22.318125 
z
" style="fill: #ffffff"/>
   </g>
   <g id="matplotlib.axis_3">
    <g id="xtick_10">
     <g id="line2d_16">
      <g>
       <use xlink:href="#mcc1c0f7f9c" x="478.715212" y="274.318125" style="stroke: #000000; stroke-width: 0.8"/>
      </g>
     </g>
     <g id="text_17">
      <!-- 0 -->
      <g transform="translate(475.533962 288.916562)scale(0.1 -0.1)">
       <use xlink:href="#DejaVuSans-30"/>
      </g>
     </g>
    </g>
    <g id="xtick_11">
     <g id="line2d_17">
      <g>
       <use xlink:href="#mcc1c0f7f9c" x="520.101099" y="274.318125" style="stroke: #000000; stroke-width: 0.8"/>
      </g>
     </g>
     <g id="text_18">
      <!-- 10 -->
      <g transform="translate(513.738599 288.916562)scale(0.1 -0.1)">
       <use xlink:href="#DejaVuSans-31"/>
       <use xlink:href="#DejaVuSans-30" x="63.623047"/>
      </g>
     </g>
    </g>
    <g id="xtick_12">
     <g id="line2d_18">
      <g>
       <use xlink:href="#mcc1c0f7f9c" x="561.486985" y="274.318125" style="stroke: #000000; stroke-width: 0.8"/>
      </g>
     </g>
     <g id="text_19">
      <!-- 20 -->
      <g transform="translate(555.124485 288.916562)scale(0.1 -0.1)">
       <use xlink:href="#DejaVuSans-32"/>
       <use xlink:href="#DejaVuSans-30" x="63.623047"/>
      </g>
     </g>
    </g>
    <g id="xtick_13">
     <g id="line2d_19">
      <g>
       <use xlink:href="#mcc1c0f7f9c" x="602.872872" y="274.318125" style="stroke: #000000; stroke-width: 0.8"/>
      </g>
     </g>
     <g id="text_20">
      <!-- 30 -->
      <g transform="translate(596.510372 288.916562)scale(0.1 -0.1)">
       <use xlink:href="#DejaVuSans-33"/>
       <use xlink:href="#DejaVuSans-30" x="63.623047"/>
      </g>
     </g>
    </g>
    <g id="xtick_14">
     <g id="line2d_20">
      <g>
       <use xlink:href="#mcc1c0f7f9c" x="644.258759" y="274.318125" style="stroke: #000000; stroke-width: 0.8"/>
      </g>
     </g>
     <g id="text_21">
      <!-- 40 -->
      <g transform="translate(637.896259 288.916562)scale(0.1 -0.1)">
       <use xlink:href="#DejaVuSans-34"/>
       <use xlink:href="#DejaVuSans-30" x="63.623047"/>
      </g>
     </g>
    </g>
    <g id="xtick_15">
     <g id="line2d_21">
      <g>
       <use xlink:href="#mcc1c0f7f9c" x="685.644646" y="274.318125" style="stroke: #000000; stroke-width: 0.8"/>
      </g>
     </g>
     <g id="text_22">
      <!-- 50 -->
      <g transform="translate(679.282146 288.916562)scale(0.1 -0.1)">
       <use xlink:href="#DejaVuSans-35"/>
       <use xlink:href="#DejaVuSans-30" x="63.623047"/>
      </g>
     </g>
    </g>
    <g id="xtick_16">
     <g id="line2d_22">
      <g>
       <use xlink:href="#mcc1c0f7f9c" x="727.030533" y="274.318125" style="stroke: #000000; stroke-width: 0.8"/>
      </g>
     </g>
     <g id="text_23">
      <!-- 60 -->
      <g transform="translate(720.668033 288.916562)scale(0.1 -0.1)">
       <use xlink:href="#DejaVuSans-36"/>
       <use xlink:href="#DejaVuSans-30" x="63.623047"/>
      </g>
     </g>
    </g>
    <g id="xtick_17">
     <g id="line2d_23">
      <g>
       <use xlink:href="#mcc1c0f7f9c" x="768.41642" y="274.318125" style="stroke: #000000; stroke-width: 0.8"/>
      </g>
     </g>
     <g id="text_24">
      <!-- 70 -->
      <g transform="translate(762.05392 288.916562)scale(0.1 -0.1)">
       <use xlink:href="#DejaVuSans-37"/>
       <use xlink:href="#DejaVuSans-30" x="63.623047"/>
      </g>
     </g>
    </g>
    <g id="xtick_18">
     <g id="line2d_24">
      <g>
       <use xlink:href="#mcc1c0f7f9c" x="809.802307" y="274.318125" style="stroke: #000000; stroke-width: 0.8"/>
      </g>
     </g>
     <g id="text_25">
      <!-- 80 -->
      <g transform="translate(803.439807 288.916562)scale(0.1 -0.1)">
       <use xlink:href="#DejaVuSans-38"/>
       <use xlink:href="#DejaVuSans-30" x="63.623047"/>
      </g>
     </g>
    </g>
    <g id="text_26">
     <!-- epoch -->
     <g transform="translate(624.892045 302.594687)scale(0.1 -0.1)">
      <use xlink:href="#DejaVuSans-65"/>
      <use xlink:href="#DejaVuSans-70" x="61.523438"/>
      <use xlink:href="#DejaVuSans-6f" x="125"/>
      <use xlink:href="#DejaVuSans-63" x="186.181641"/>
      <use xlink:href="#DejaVuSans-68" x="241.162109"/>
     </g>
    </g>
   </g>
   <g id="matplotlib.axis_4">
    <g id="ytick_6">
     <g id="line2d_25">
      <g>
       <use xlink:href="#mc2a22df107" x="462.574716" y="237.356844" style="stroke: #000000; stroke-width: 0.8"/>
      </g>
     </g>
     <g id="text_27">
      <!-- 0.09 -->
      <g transform="translate(433.309091 241.156063)scale(0.1 -0.1)">
       <use xlink:href="#DejaVuSans-30"/>
       <use xlink:href="#DejaVuSans-2e" x="63.623047"/>
       <use xlink:href="#DejaVuSans-30" x="95.410156"/>
       <use xlink:href="#DejaVuSans-39" x="159.033203"/>
      </g>
     </g>
    </g>
    <g id="ytick_7">
     <g id="line2d_26">
      <g>
       <use xlink:href="#mc2a22df107" x="462.574716" y="193.231481" style="stroke: #000000; stroke-width: 0.8"/>
      </g>
     </g>
     <g id="text_28">
      <!-- 0.10 -->
      <g transform="translate(433.309091 197.0307)scale(0.1 -0.1)">
       <use xlink:href="#DejaVuSans-30"/>
       <use xlink:href="#DejaVuSans-2e" x="63.623047"/>
       <use xlink:href="#DejaVuSans-31" x="95.410156"/>
       <use xlink:href="#DejaVuSans-30" x="159.033203"/>
      </g>
     </g>
    </g>
    <g id="ytick_8">
     <g id="line2d_27">
      <g>
       <use xlink:href="#mc2a22df107" x="462.574716" y="149.106119" style="stroke: #000000; stroke-width: 0.8"/>
      </g>
     </g>
     <g id="text_29">
      <!-- 0.11 -->
      <g transform="translate(433.309091 152.905337)scale(0.1 -0.1)">
       <use xlink:href="#DejaVuSans-30"/>
       <use xlink:href="#DejaVuSans-2e" x="63.623047"/>
       <use xlink:href="#DejaVuSans-31" x="95.410156"/>
       <use xlink:href="#DejaVuSans-31" x="159.033203"/>
      </g>
     </g>
    </g>
    <g id="ytick_9">
     <g id="line2d_28">
      <g>
       <use xlink:href="#mc2a22df107" x="462.574716" y="104.980756" style="stroke: #000000; stroke-width: 0.8"/>
      </g>
     </g>
     <g id="text_30">
      <!-- 0.12 -->
      <g transform="translate(433.309091 108.779975)scale(0.1 -0.1)">
       <use xlink:href="#DejaVuSans-30"/>
       <use xlink:href="#DejaVuSans-2e" x="63.623047"/>
       <use xlink:href="#DejaVuSans-31" x="95.410156"/>
       <use xlink:href="#DejaVuSans-32" x="159.033203"/>
      </g>
     </g>
    </g>
    <g id="ytick_10">
     <g id="line2d_29">
      <g>
       <use xlink:href="#mc2a22df107" x="462.574716" y="60.855394" style="stroke: #000000; stroke-width: 0.8"/>
      </g>
     </g>
     <g id="text_31">
      <!-- 0.13 -->
      <g transform="translate(433.309091 64.654612)scale(0.1 -0.1)">
       <use xlink:href="#DejaVuSans-30"/>
       <use xlink:href="#DejaVuSans-2e" x="63.623047"/>
       <use xlink:href="#DejaVuSans-31" x="95.410156"/>
       <use xlink:href="#DejaVuSans-33" x="159.033203"/>
      </g>
     </g>
    </g>
   </g>
   <g id="line2d_30">
    <path d="M 478.715212 33.77267 
L 482.8538 122.083917 
L 486.992389 136.385251 
L 491.130978 145.775007 
L 495.269567 150.932391 
L 499.408155 155.705583 
L 503.546744 158.985091 
L 507.685333 162.158618 
L 511.823921 164.15665 
L 515.96251 167.101294 
L 520.101099 169.732836 
L 524.239687 171.757263 
L 528.378276 173.751887 
L 532.516865 175.582869 
L 536.655453 177.04257 
L 540.794042 179.674391 
L 544.932631 181.156088 
L 549.071219 182.997997 
L 553.209808 184.42056 
L 557.348397 186.209692 
L 561.486985 188.313205 
L 565.625574 189.516054 
L 569.764163 191.741331 
L 573.902752 193.424629 
L 578.04134 194.443877 
L 582.179929 196.445294 
L 586.318518 197.847951 
L 590.457106 199.401592 
L 594.595695 201.542326 
L 598.734284 203.238786 
L 602.872872 204.723139 
L 607.011461 205.93599 
L 611.15005 207.849155 
L 615.288638 209.323523 
L 619.427227 210.767565 
L 623.565816 212.435935 
L 627.704404 213.756738 
L 631.842993 215.436133 
L 635.981582 216.746288 
L 640.12017 218.138581 
L 644.258759 219.913692 
L 648.397348 220.996689 
L 652.535937 222.267081 
L 656.674525 223.399673 
L 660.813114 224.902725 
L 664.951703 226.632507 
L 669.090291 228.580059 
L 673.22888 228.788678 
L 677.367469 230.521772 
L 681.506057 232.01832 
L 685.644646 233.562148 
L 689.783235 234.405488 
L 693.921823 235.706078 
L 698.060412 237.194968 
L 702.199001 238.586811 
L 706.337589 239.299068 
L 710.476178 240.966282 
L 714.614767 241.382153 
L 718.753355 242.813514 
L 722.891944 243.998368 
L 727.030533 244.961179 
L 731.169122 246.589679 
L 735.30771 247.123071 
L 739.446299 248.809799 
L 743.584888 249.169391 
L 747.723476 250.471835 
L 751.862065 251.737372 
L 756.000654 252.737896 
L 760.139242 253.425213 
L 764.277831 254.470854 
L 768.41642 256.070373 
L 772.555008 256.891505 
L 776.693597 257.525756 
L 780.832186 258.431044 
L 784.970774 259.743613 
L 789.109363 260.55411 
L 793.247952 261.781127 
L 797.38654 262.86358 
L 801.525129 262.711619 
" clip-path="url(#p6bb29e2de7)" style="fill: none; stroke: #1f77b4; stroke-width: 1.5; stroke-linecap: square"/>
    <defs>
     <path id="mc5415fe1f1" d="M 0 3 
C 0.795609 3 1.55874 2.683901 2.12132 2.12132 
C 2.683901 1.55874 3 0.795609 3 0 
C 3 -0.795609 2.683901 -1.55874 2.12132 -2.12132 
C 1.55874 -2.683901 0.795609 -3 0 -3 
C -0.795609 -3 -1.55874 -2.683901 -2.12132 -2.12132 
C -2.683901 -1.55874 -3 -0.795609 -3 0 
C -3 0.795609 -2.683901 1.55874 -2.12132 2.12132 
C -1.55874 2.683901 -0.795609 3 0 3 
z
" style="stroke: #1f77b4"/>
    </defs>
    <g clip-path="url(#p6bb29e2de7)">
     <use xlink:href="#mc5415fe1f1" x="478.715212" y="33.77267" style="fill: #1f77b4; stroke: #1f77b4"/>
     <use xlink:href="#mc5415fe1f1" x="482.8538" y="122.083917" style="fill: #1f77b4; stroke: #1f77b4"/>
     <use xlink:href="#mc5415fe1f1" x="486.992389" y="136.385251" style="fill: #1f77b4; stroke: #1f77b4"/>
     <use xlink:href="#mc5415fe1f1" x="491.130978" y="145.775007" style="fill: #1f77b4; stroke: #1f77b4"/>
     <use xlink:href="#mc5415fe1f1" x="495.269567" y="150.932391" style="fill: #1f77b4; stroke: #1f77b4"/>
     <use xlink:href="#mc5415fe1f1" x="499.408155" y="155.705583" style="fill: #1f77b4; stroke: #1f77b4"/>
     <use xlink:href="#mc5415fe1f1" x="503.546744" y="158.985091" style="fill: #1f77b4; stroke: #1f77b4"/>
     <use xlink:href="#mc5415fe1f1" x="507.685333" y="162.158618" style="fill: #1f77b4; stroke: #1f77b4"/>
     <use xlink:href="#mc5415fe1f1" x="511.823921" y="164.15665" style="fill: #1f77b4; stroke: #1f77b4"/>
     <use xlink:href="#mc5415fe1f1" x="515.96251" y="167.101294" style="fill: #1f77b4; stroke: #1f77b4"/>
     <use xlink:href="#mc5415fe1f1" x="520.101099" y="169.732836" style="fill: #1f77b4; stroke: #1f77b4"/>
     <use xlink:href="#mc5415fe1f1" x="524.239687" y="171.757263" style="fill: #1f77b4; stroke: #1f77b4"/>
     <use xlink:href="#mc5415fe1f1" x="528.378276" y="173.751887" style="fill: #1f77b4; stroke: #1f77b4"/>
     <use xlink:href="#mc5415fe1f1" x="532.516865" y="175.582869" style="fill: #1f77b4; stroke: #1f77b4"/>
     <use xlink:href="#mc5415fe1f1" x="536.655453" y="177.04257" style="fill: #1f77b4; stroke: #1f77b4"/>
     <use xlink:href="#mc5415fe1f1" x="540.794042" y="179.674391" style="fill: #1f77b4; stroke: #1f77b4"/>
     <use xlink:href="#mc5415fe1f1" x="544.932631" y="181.156088" style="fill: #1f77b4; stroke: #1f77b4"/>
     <use xlink:href="#mc5415fe1f1" x="549.071219" y="182.997997" style="fill: #1f77b4; stroke: #1f77b4"/>
     <use xlink:href="#mc5415fe1f1" x="553.209808" y="184.42056" style="fill: #1f77b4; stroke: #1f77b4"/>
     <use xlink:href="#mc5415fe1f1" x="557.348397" y="186.209692" style="fill: #1f77b4; stroke: #1f77b4"/>
     <use xlink:href="#mc5415fe1f1" x="561.486985" y="188.313205" style="fill: #1f77b4; stroke: #1f77b4"/>
     <use xlink:href="#mc5415fe1f1" x="565.625574" y="189.516054" style="fill: #1f77b4; stroke: #1f77b4"/>
     <use xlink:href="#mc5415fe1f1" x="569.764163" y="191.741331" style="fill: #1f77b4; stroke: #1f77b4"/>
     <use xlink:href="#mc5415fe1f1" x="573.902752" y="193.424629" style="fill: #1f77b4; stroke: #1f77b4"/>
     <use xlink:href="#mc5415fe1f1" x="578.04134" y="194.443877" style="fill: #1f77b4; stroke: #1f77b4"/>
     <use xlink:href="#mc5415fe1f1" x="582.179929" y="196.445294" style="fill: #1f77b4; stroke: #1f77b4"/>
     <use xlink:href="#mc5415fe1f1" x="586.318518" y="197.847951" style="fill: #1f77b4; stroke: #1f77b4"/>
     <use xlink:href="#mc5415fe1f1" x="590.457106" y="199.401592" style="fill: #1f77b4; stroke: #1f77b4"/>
     <use xlink:href="#mc5415fe1f1" x="594.595695" y="201.542326" style="fill: #1f77b4; stroke: #1f77b4"/>
     <use xlink:href="#mc5415fe1f1" x="598.734284" y="203.238786" style="fill: #1f77b4; stroke: #1f77b4"/>
     <use xlink:href="#mc5415fe1f1" x="602.872872" y="204.723139" style="fill: #1f77b4; stroke: #1f77b4"/>
     <use xlink:href="#mc5415fe1f1" x="607.011461" y="205.93599" style="fill: #1f77b4; stroke: #1f77b4"/>
     <use xlink:href="#mc5415fe1f1" x="611.15005" y="207.849155" style="fill: #1f77b4; stroke: #1f77b4"/>
     <use xlink:href="#mc5415fe1f1" x="615.288638" y="209.323523" style="fill: #1f77b4; stroke: #1f77b4"/>
     <use xlink:href="#mc5415fe1f1" x="619.427227" y="210.767565" style="fill: #1f77b4; stroke: #1f77b4"/>
     <use xlink:href="#mc5415fe1f1" x="623.565816" y="212.435935" style="fill: #1f77b4; stroke: #1f77b4"/>
     <use xlink:href="#mc5415fe1f1" x="627.704404" y="213.756738" style="fill: #1f77b4; stroke: #1f77b4"/>
     <use xlink:href="#mc5415fe1f1" x="631.842993" y="215.436133" style="fill: #1f77b4; stroke: #1f77b4"/>
     <use xlink:href="#mc5415fe1f1" x="635.981582" y="216.746288" style="fill: #1f77b4; stroke: #1f77b4"/>
     <use xlink:href="#mc5415fe1f1" x="640.12017" y="218.138581" style="fill: #1f77b4; stroke: #1f77b4"/>
     <use xlink:href="#mc5415fe1f1" x="644.258759" y="219.913692" style="fill: #1f77b4; stroke: #1f77b4"/>
     <use xlink:href="#mc5415fe1f1" x="648.397348" y="220.996689" style="fill: #1f77b4; stroke: #1f77b4"/>
     <use xlink:href="#mc5415fe1f1" x="652.535937" y="222.267081" style="fill: #1f77b4; stroke: #1f77b4"/>
     <use xlink:href="#mc5415fe1f1" x="656.674525" y="223.399673" style="fill: #1f77b4; stroke: #1f77b4"/>
     <use xlink:href="#mc5415fe1f1" x="660.813114" y="224.902725" style="fill: #1f77b4; stroke: #1f77b4"/>
     <use xlink:href="#mc5415fe1f1" x="664.951703" y="226.632507" style="fill: #1f77b4; stroke: #1f77b4"/>
     <use xlink:href="#mc5415fe1f1" x="669.090291" y="228.580059" style="fill: #1f77b4; stroke: #1f77b4"/>
     <use xlink:href="#mc5415fe1f1" x="673.22888" y="228.788678" style="fill: #1f77b4; stroke: #1f77b4"/>
     <use xlink:href="#mc5415fe1f1" x="677.367469" y="230.521772" style="fill: #1f77b4; stroke: #1f77b4"/>
     <use xlink:href="#mc5415fe1f1" x="681.506057" y="232.01832" style="fill: #1f77b4; stroke: #1f77b4"/>
     <use xlink:href="#mc5415fe1f1" x="685.644646" y="233.562148" style="fill: #1f77b4; stroke: #1f77b4"/>
     <use xlink:href="#mc5415fe1f1" x="689.783235" y="234.405488" style="fill: #1f77b4; stroke: #1f77b4"/>
     <use xlink:href="#mc5415fe1f1" x="693.921823" y="235.706078" style="fill: #1f77b4; stroke: #1f77b4"/>
     <use xlink:href="#mc5415fe1f1" x="698.060412" y="237.194968" style="fill: #1f77b4; stroke: #1f77b4"/>
     <use xlink:href="#mc5415fe1f1" x="702.199001" y="238.586811" style="fill: #1f77b4; stroke: #1f77b4"/>
     <use xlink:href="#mc5415fe1f1" x="706.337589" y="239.299068" style="fill: #1f77b4; stroke: #1f77b4"/>
     <use xlink:href="#mc5415fe1f1" x="710.476178" y="240.966282" style="fill: #1f77b4; stroke: #1f77b4"/>
     <use xlink:href="#mc5415fe1f1" x="714.614767" y="241.382153" style="fill: #1f77b4; stroke: #1f77b4"/>
     <use xlink:href="#mc5415fe1f1" x="718.753355" y="242.813514" style="fill: #1f77b4; stroke: #1f77b4"/>
     <use xlink:href="#mc5415fe1f1" x="722.891944" y="243.998368" style="fill: #1f77b4; stroke: #1f77b4"/>
     <use xlink:href="#mc5415fe1f1" x="727.030533" y="244.961179" style="fill: #1f77b4; stroke: #1f77b4"/>
     <use xlink:href="#mc5415fe1f1" x="731.169122" y="246.589679" style="fill: #1f77b4; stroke: #1f77b4"/>
     <use xlink:href="#mc5415fe1f1" x="735.30771" y="247.123071" style="fill: #1f77b4; stroke: #1f77b4"/>
     <use xlink:href="#mc5415fe1f1" x="739.446299" y="248.809799" style="fill: #1f77b4; stroke: #1f77b4"/>
     <use xlink:href="#mc5415fe1f1" x="743.584888" y="249.169391" style="fill: #1f77b4; stroke: #1f77b4"/>
     <use xlink:href="#mc5415fe1f1" x="747.723476" y="250.471835" style="fill: #1f77b4; stroke: #1f77b4"/>
     <use xlink:href="#mc5415fe1f1" x="751.862065" y="251.737372" style="fill: #1f77b4; stroke: #1f77b4"/>
     <use xlink:href="#mc5415fe1f1" x="756.000654" y="252.737896" style="fill: #1f77b4; stroke: #1f77b4"/>
     <use xlink:href="#mc5415fe1f1" x="760.139242" y="253.425213" style="fill: #1f77b4; stroke: #1f77b4"/>
     <use xlink:href="#mc5415fe1f1" x="764.277831" y="254.470854" style="fill: #1f77b4; stroke: #1f77b4"/>
     <use xlink:href="#mc5415fe1f1" x="768.41642" y="256.070373" style="fill: #1f77b4; stroke: #1f77b4"/>
     <use xlink:href="#mc5415fe1f1" x="772.555008" y="256.891505" style="fill: #1f77b4; stroke: #1f77b4"/>
     <use xlink:href="#mc5415fe1f1" x="776.693597" y="257.525756" style="fill: #1f77b4; stroke: #1f77b4"/>
     <use xlink:href="#mc5415fe1f1" x="780.832186" y="258.431044" style="fill: #1f77b4; stroke: #1f77b4"/>
     <use xlink:href="#mc5415fe1f1" x="784.970774" y="259.743613" style="fill: #1f77b4; stroke: #1f77b4"/>
     <use xlink:href="#mc5415fe1f1" x="789.109363" y="260.55411" style="fill: #1f77b4; stroke: #1f77b4"/>
     <use xlink:href="#mc5415fe1f1" x="793.247952" y="261.781127" style="fill: #1f77b4; stroke: #1f77b4"/>
     <use xlink:href="#mc5415fe1f1" x="797.38654" y="262.86358" style="fill: #1f77b4; stroke: #1f77b4"/>
     <use xlink:href="#mc5415fe1f1" x="801.525129" y="262.711619" style="fill: #1f77b4; stroke: #1f77b4"/>
    </g>
   </g>
   <g id="line2d_31">
    <path d="M 478.715212 136.581356 
L 482.8538 151.03446 
L 486.992389 156.131493 
L 491.130978 152.020009 
L 495.269567 160.021349 
L 499.408155 162.817759 
L 503.546744 156.30045 
L 507.685333 166.166931 
L 511.823921 170.990358 
L 515.96251 168.77237 
L 520.101099 162.355875 
L 524.239687 164.878348 
L 528.378276 163.425522 
L 532.516865 164.064486 
L 536.655453 163.680298 
L 540.794042 155.929892 
L 544.932631 160.591964 
L 549.071219 157.347337 
L 553.209808 148.890263 
L 557.348397 157.541708 
L 561.486985 154.545246 
L 565.625574 150.638983 
L 569.764163 139.469406 
L 573.902752 142.877035 
L 578.04134 148.792819 
L 582.179929 144.286189 
L 586.318518 146.335068 
L 590.457106 135.398236 
L 594.595695 142.693676 
L 598.734284 134.310336 
L 602.872872 138.430018 
L 607.011461 129.666337 
L 611.15005 135.009558 
L 615.288638 139.237878 
L 619.427227 133.260032 
L 623.565816 130.172564 
L 627.704404 131.791522 
L 631.842993 120.812613 
L 635.981582 125.239338 
" clip-path="url(#p6bb29e2de7)" style="fill: none; stroke: #ff7f0e; stroke-width: 1.5; stroke-linecap: square"/>
    <defs>
     <path id="mf0c1084fa4" d="M 0 3 
C 0.795609 3 1.55874 2.683901 2.12132 2.12132 
C 2.683901 1.55874 3 0.795609 3 0 
C 3 -0.795609 2.683901 -1.55874 2.12132 -2.12132 
C 1.55874 -2.683901 0.795609 -3 0 -3 
C -0.795609 -3 -1.55874 -2.683901 -2.12132 -2.12132 
C -2.683901 -1.55874 -3 -0.795609 -3 0 
C -3 0.795609 -2.683901 1.55874 -2.12132 2.12132 
C -1.55874 2.683901 -0.795609 3 0 3 
z
" style="stroke: #ff7f0e"/>
    </defs>
    <g clip-path="url(#p6bb29e2de7)">
     <use xlink:href="#mf0c1084fa4" x="478.715212" y="136.581356" style="fill: #ff7f0e; stroke: #ff7f0e"/>
     <use xlink:href="#mf0c1084fa4" x="482.8538" y="151.03446" style="fill: #ff7f0e; stroke: #ff7f0e"/>
     <use xlink:href="#mf0c1084fa4" x="486.992389" y="156.131493" style="fill: #ff7f0e; stroke: #ff7f0e"/>
     <use xlink:href="#mf0c1084fa4" x="491.130978" y="152.020009" style="fill: #ff7f0e; stroke: #ff7f0e"/>
     <use xlink:href="#mf0c1084fa4" x="495.269567" y="160.021349" style="fill: #ff7f0e; stroke: #ff7f0e"/>
     <use xlink:href="#mf0c1084fa4" x="499.408155" y="162.817759" style="fill: #ff7f0e; stroke: #ff7f0e"/>
     <use xlink:href="#mf0c1084fa4" x="503.546744" y="156.30045" style="fill: #ff7f0e; stroke: #ff7f0e"/>
     <use xlink:href="#mf0c1084fa4" x="507.685333" y="166.166931" style="fill: #ff7f0e; stroke: #ff7f0e"/>
     <use xlink:href="#mf0c1084fa4" x="511.823921" y="170.990358" style="fill: #ff7f0e; stroke: #ff7f0e"/>
     <use xlink:href="#mf0c1084fa4" x="515.96251" y="168.77237" style="fill: #ff7f0e; stroke: #ff7f0e"/>
     <use xlink:href="#mf0c1084fa4" x="520.101099" y="162.355875" style="fill: #ff7f0e; stroke: #ff7f0e"/>
     <use xlink:href="#mf0c1084fa4" x="524.239687" y="164.878348" style="fill: #ff7f0e; stroke: #ff7f0e"/>
     <use xlink:href="#mf0c1084fa4" x="528.378276" y="163.425522" style="fill: #ff7f0e; stroke: #ff7f0e"/>
     <use xlink:href="#mf0c1084fa4" x="532.516865" y="164.064486" style="fill: #ff7f0e; stroke: #ff7f0e"/>
     <use xlink:href="#mf0c1084fa4" x="536.655453" y="163.680298" style="fill: #ff7f0e; stroke: #ff7f0e"/>
     <use xlink:href="#mf0c1084fa4" x="540.794042" y="155.929892" style="fill: #ff7f0e; stroke: #ff7f0e"/>
     <use xlink:href="#mf0c1084fa4" x="544.932631" y="160.591964" style="fill: #ff7f0e; stroke: #ff7f0e"/>
     <use xlink:href="#mf0c1084fa4" x="549.071219" y="157.347337" style="fill: #ff7f0e; stroke: #ff7f0e"/>
     <use xlink:href="#mf0c1084fa4" x="553.209808" y="148.890263" style="fill: #ff7f0e; stroke: #ff7f0e"/>
     <use xlink:href="#mf0c1084fa4" x="557.348397" y="157.541708" style="fill: #ff7f0e; stroke: #ff7f0e"/>
     <use xlink:href="#mf0c1084fa4" x="561.486985" y="154.545246" style="fill: #ff7f0e; stroke: #ff7f0e"/>
     <use xlink:href="#mf0c1084fa4" x="565.625574" y="150.638983" style="fill: #ff7f0e; stroke: #ff7f0e"/>
     <use xlink:href="#mf0c1084fa4" x="569.764163" y="139.469406" style="fill: #ff7f0e; stroke: #ff7f0e"/>
     <use xlink:href="#mf0c1084fa4" x="573.902752" y="142.877035" style="fill: #ff7f0e; stroke: #ff7f0e"/>
     <use xlink:href="#mf0c1084fa4" x="578.04134" y="148.792819" style="fill: #ff7f0e; stroke: #ff7f0e"/>
     <use xlink:href="#mf0c1084fa4" x="582.179929" y="144.286189" style="fill: #ff7f0e; stroke: #ff7f0e"/>
     <use xlink:href="#mf0c1084fa4" x="586.318518" y="146.335068" style="fill: #ff7f0e; stroke: #ff7f0e"/>
     <use xlink:href="#mf0c1084fa4" x="590.457106" y="135.398236" style="fill: #ff7f0e; stroke: #ff7f0e"/>
     <use xlink:href="#mf0c1084fa4" x="594.595695" y="142.693676" style="fill: #ff7f0e; stroke: #ff7f0e"/>
     <use xlink:href="#mf0c1084fa4" x="598.734284" y="134.310336" style="fill: #ff7f0e; stroke: #ff7f0e"/>
     <use xlink:href="#mf0c1084fa4" x="602.872872" y="138.430018" style="fill: #ff7f0e; stroke: #ff7f0e"/>
     <use xlink:href="#mf0c1084fa4" x="607.011461" y="129.666337" style="fill: #ff7f0e; stroke: #ff7f0e"/>
     <use xlink:href="#mf0c1084fa4" x="611.15005" y="135.009558" style="fill: #ff7f0e; stroke: #ff7f0e"/>
     <use xlink:href="#mf0c1084fa4" x="615.288638" y="139.237878" style="fill: #ff7f0e; stroke: #ff7f0e"/>
     <use xlink:href="#mf0c1084fa4" x="619.427227" y="133.260032" style="fill: #ff7f0e; stroke: #ff7f0e"/>
     <use xlink:href="#mf0c1084fa4" x="623.565816" y="130.172564" style="fill: #ff7f0e; stroke: #ff7f0e"/>
     <use xlink:href="#mf0c1084fa4" x="627.704404" y="131.791522" style="fill: #ff7f0e; stroke: #ff7f0e"/>
     <use xlink:href="#mf0c1084fa4" x="631.842993" y="120.812613" style="fill: #ff7f0e; stroke: #ff7f0e"/>
     <use xlink:href="#mf0c1084fa4" x="635.981582" y="125.239338" style="fill: #ff7f0e; stroke: #ff7f0e"/>
    </g>
   </g>
   <g id="patch_8">
    <path d="M 462.574716 274.318125 
L 462.574716 22.318125 
" style="fill: none; stroke: #000000; stroke-width: 0.8; stroke-linejoin: miter; stroke-linecap: square"/>
   </g>
   <g id="patch_9">
    <path d="M 817.665625 274.318125 
L 817.665625 22.318125 
" style="fill: none; stroke: #000000; stroke-width: 0.8; stroke-linejoin: miter; stroke-linecap: square"/>
   </g>
   <g id="patch_10">
    <path d="M 462.574716 274.318125 
L 817.665625 274.318125 
" style="fill: none; stroke: #000000; stroke-width: 0.8; stroke-linejoin: miter; stroke-linecap: square"/>
   </g>
   <g id="patch_11">
    <path d="M 462.574716 22.318125 
L 817.665625 22.318125 
" style="fill: none; stroke: #000000; stroke-width: 0.8; stroke-linejoin: miter; stroke-linecap: square"/>
   </g>
   <g id="text_32">
    <!-- epochs loss for train and valid -->
    <g transform="translate(549.72267 16.318125)scale(0.12 -0.12)">
     <defs>
      <path id="DejaVuSans-66" d="M 2375 4863 
L 2375 4384 
L 1825 4384 
Q 1516 4384 1395 4259 
Q 1275 4134 1275 3809 
L 1275 3500 
L 2222 3500 
L 2222 3053 
L 1275 3053 
L 1275 0 
L 697 0 
L 697 3053 
L 147 3053 
L 147 3500 
L 697 3500 
L 697 3744 
Q 697 4328 969 4595 
Q 1241 4863 1831 4863 
L 2375 4863 
z
" transform="scale(0.015625)"/>
      <path id="DejaVuSans-64" d="M 2906 2969 
L 2906 4863 
L 3481 4863 
L 3481 0 
L 2906 0 
L 2906 525 
Q 2725 213 2448 61 
Q 2172 -91 1784 -91 
Q 1150 -91 751 415 
Q 353 922 353 1747 
Q 353 2572 751 3078 
Q 1150 3584 1784 3584 
Q 2172 3584 2448 3432 
Q 2725 3281 2906 2969 
z
M 947 1747 
Q 947 1113 1208 752 
Q 1469 391 1925 391 
Q 2381 391 2643 752 
Q 2906 1113 2906 1747 
Q 2906 2381 2643 2742 
Q 2381 3103 1925 3103 
Q 1469 3103 1208 2742 
Q 947 2381 947 1747 
z
" transform="scale(0.015625)"/>
      <path id="DejaVuSans-76" d="M 191 3500 
L 800 3500 
L 1894 563 
L 2988 3500 
L 3597 3500 
L 2284 0 
L 1503 0 
L 191 3500 
z
" transform="scale(0.015625)"/>
     </defs>
     <use xlink:href="#DejaVuSans-65"/>
     <use xlink:href="#DejaVuSans-70" x="61.523438"/>
     <use xlink:href="#DejaVuSans-6f" x="125"/>
     <use xlink:href="#DejaVuSans-63" x="186.181641"/>
     <use xlink:href="#DejaVuSans-68" x="241.162109"/>
     <use xlink:href="#DejaVuSans-73" x="304.541016"/>
     <use xlink:href="#DejaVuSans-20" x="356.640625"/>
     <use xlink:href="#DejaVuSans-6c" x="388.427734"/>
     <use xlink:href="#DejaVuSans-6f" x="416.210938"/>
     <use xlink:href="#DejaVuSans-73" x="477.392578"/>
     <use xlink:href="#DejaVuSans-73" x="529.492188"/>
     <use xlink:href="#DejaVuSans-20" x="581.591797"/>
     <use xlink:href="#DejaVuSans-66" x="613.378906"/>
     <use xlink:href="#DejaVuSans-6f" x="648.583984"/>
     <use xlink:href="#DejaVuSans-72" x="709.765625"/>
     <use xlink:href="#DejaVuSans-20" x="750.878906"/>
     <use xlink:href="#DejaVuSans-74" x="782.666016"/>
     <use xlink:href="#DejaVuSans-72" x="821.875"/>
     <use xlink:href="#DejaVuSans-61" x="862.988281"/>
     <use xlink:href="#DejaVuSans-69" x="924.267578"/>
     <use xlink:href="#DejaVuSans-6e" x="952.050781"/>
     <use xlink:href="#DejaVuSans-20" x="1015.429688"/>
     <use xlink:href="#DejaVuSans-61" x="1047.216797"/>
     <use xlink:href="#DejaVuSans-6e" x="1108.496094"/>
     <use xlink:href="#DejaVuSans-64" x="1171.875"/>
     <use xlink:href="#DejaVuSans-20" x="1235.351562"/>
     <use xlink:href="#DejaVuSans-76" x="1267.138672"/>
     <use xlink:href="#DejaVuSans-61" x="1326.318359"/>
     <use xlink:href="#DejaVuSans-6c" x="1387.597656"/>
     <use xlink:href="#DejaVuSans-69" x="1415.380859"/>
     <use xlink:href="#DejaVuSans-64" x="1443.164062"/>
    </g>
   </g>
   <g id="legend_1">
    <g id="patch_12">
     <path d="M 730.398438 60.230625 
L 810.665625 60.230625 
Q 812.665625 60.230625 812.665625 58.230625 
L 812.665625 29.318125 
Q 812.665625 27.318125 810.665625 27.318125 
L 730.398438 27.318125 
Q 728.398438 27.318125 728.398438 29.318125 
L 728.398438 58.230625 
Q 728.398438 60.230625 730.398438 60.230625 
z
" style="fill: #ffffff; opacity: 0.8; stroke: #cccccc; stroke-linejoin: miter"/>
    </g>
    <g id="line2d_32">
     <path d="M 732.398438 35.416562 
L 742.398438 35.416562 
L 752.398438 35.416562 
" style="fill: none; stroke: #1f77b4; stroke-width: 1.5; stroke-linecap: square"/>
     <g>
      <use xlink:href="#mc5415fe1f1" x="742.398438" y="35.416562" style="fill: #1f77b4; stroke: #1f77b4"/>
     </g>
    </g>
    <g id="text_33">
     <!-- train_loss -->
     <g transform="translate(760.398438 38.916562)scale(0.1 -0.1)">
      <defs>
       <path id="DejaVuSans-5f" d="M 3263 -1063 
L 3263 -1509 
L -63 -1509 
L -63 -1063 
L 3263 -1063 
z
" transform="scale(0.015625)"/>
      </defs>
      <use xlink:href="#DejaVuSans-74"/>
      <use xlink:href="#DejaVuSans-72" x="39.208984"/>
      <use xlink:href="#DejaVuSans-61" x="80.322266"/>
      <use xlink:href="#DejaVuSans-69" x="141.601562"/>
      <use xlink:href="#DejaVuSans-6e" x="169.384766"/>
      <use xlink:href="#DejaVuSans-5f" x="232.763672"/>
      <use xlink:href="#DejaVuSans-6c" x="282.763672"/>
      <use xlink:href="#DejaVuSans-6f" x="310.546875"/>
      <use xlink:href="#DejaVuSans-73" x="371.728516"/>
      <use xlink:href="#DejaVuSans-73" x="423.828125"/>
     </g>
    </g>
    <g id="line2d_33">
     <path d="M 732.398438 50.372812 
L 742.398438 50.372812 
L 752.398438 50.372812 
" style="fill: none; stroke: #ff7f0e; stroke-width: 1.5; stroke-linecap: square"/>
     <g>
      <use xlink:href="#mf0c1084fa4" x="742.398438" y="50.372812" style="fill: #ff7f0e; stroke: #ff7f0e"/>
     </g>
    </g>
    <g id="text_34">
     <!-- valid_loss -->
     <g transform="translate(760.398438 53.872812)scale(0.1 -0.1)">
      <use xlink:href="#DejaVuSans-76"/>
      <use xlink:href="#DejaVuSans-61" x="59.179688"/>
      <use xlink:href="#DejaVuSans-6c" x="120.458984"/>
      <use xlink:href="#DejaVuSans-69" x="148.242188"/>
      <use xlink:href="#DejaVuSans-64" x="176.025391"/>
      <use xlink:href="#DejaVuSans-5f" x="239.501953"/>
      <use xlink:href="#DejaVuSans-6c" x="289.501953"/>
      <use xlink:href="#DejaVuSans-6f" x="317.285156"/>
      <use xlink:href="#DejaVuSans-73" x="378.466797"/>
      <use xlink:href="#DejaVuSans-73" x="430.566406"/>
     </g>
    </g>
   </g>
  </g>
 </g>
 <defs>
  <clipPath id="p84896078fb">
   <rect x="36.465625" y="22.318125" width="355.090909" height="252"/>
  </clipPath>
  <clipPath id="p6bb29e2de7">
   <rect x="462.574716" y="22.318125" width="355.090909" height="252"/>
  </clipPath>
 </defs>
</svg>
