<?xml version="1.0" encoding="utf-8" standalone="no"?>
<!DOCTYPE svg PUBLIC "-//W3C//DTD SVG 1.1//EN"
  "http://www.w3.org/Graphics/SVG/1.1/DTD/svg11.dtd">
<svg xmlns:xlink="http://www.w3.org/1999/xlink" width="824.865625pt" height="311.874375pt" viewBox="0 0 824.865625 311.874375" xmlns="http://www.w3.org/2000/svg" version="1.1">
 <metadata>
  <rdf:RDF xmlns:dc="http://purl.org/dc/elements/1.1/" xmlns:cc="http://creativecommons.org/ns#" xmlns:rdf="http://www.w3.org/1999/02/22-rdf-syntax-ns#">
   <cc:Work>
    <dc:type rdf:resource="http://purl.org/dc/dcmitype/StillImage"/>
    <dc:date>2023-12-31T14:58:03.244058</dc:date>
    <dc:format>image/svg+xml</dc:format>
    <dc:creator>
     <cc:Agent>
      <dc:title>Matplotlib v3.5.2, https://matplotlib.org/</dc:title>
     </cc:Agent>
    </dc:creator>
   </cc:Work>
  </rdf:RDF>
 </metadata>
 <defs>
  <style type="text/css">*{stroke-linejoin: round; stroke-linecap: butt}</style>
 </defs>
 <g id="figure_1">
  <g id="patch_1">
   <path d="M 0 311.874375 
L 824.865625 311.874375 
L 824.865625 0 
L 0 0 
z
" style="fill: #ffffff"/>
  </g>
  <g id="axes_1">
   <g id="patch_2">
    <path d="M 36.465625 274.318125 
L 391.556534 274.318125 
L 391.556534 22.318125 
L 36.465625 22.318125 
z
" style="fill: #ffffff"/>
   </g>
   <g id="matplotlib.axis_1">
    <g id="xtick_1">
     <g id="line2d_1">
      <defs>
       <path id="m721a1e53e3" d="M 0 0 
L 0 3.5 
" style="stroke: #000000; stroke-width: 0.8"/>
      </defs>
      <g>
       <use xlink:href="#m721a1e53e3" x="52.606121" y="274.318125" style="stroke: #000000; stroke-width: 0.8"/>
      </g>
     </g>
     <g id="text_1">
      <!-- 0 -->
      <g transform="translate(49.424871 288.916562)scale(0.1 -0.1)">
       <defs>
        <path id="DejaVuSans-30" d="M 2034 4250 
Q 1547 4250 1301 3770 
Q 1056 3291 1056 2328 
Q 1056 1369 1301 889 
Q 1547 409 2034 409 
Q 2525 409 2770 889 
Q 3016 1369 3016 2328 
Q 3016 3291 2770 3770 
Q 2525 4250 2034 4250 
z
M 2034 4750 
Q 2819 4750 3233 4129 
Q 3647 3509 3647 2328 
Q 3647 1150 3233 529 
Q 2819 -91 2034 -91 
Q 1250 -91 836 529 
Q 422 1150 422 2328 
Q 422 3509 836 4129 
Q 1250 4750 2034 4750 
z
" transform="scale(0.015625)"/>
       </defs>
       <use xlink:href="#DejaVuSans-30"/>
      </g>
     </g>
    </g>
    <g id="xtick_2">
     <g id="line2d_2">
      <g>
       <use xlink:href="#m721a1e53e3" x="103.442328" y="274.318125" style="stroke: #000000; stroke-width: 0.8"/>
      </g>
     </g>
     <g id="text_2">
      <!-- 20 -->
      <g transform="translate(97.079828 288.916562)scale(0.1 -0.1)">
       <defs>
        <path id="DejaVuSans-32" d="M 1228 531 
L 3431 531 
L 3431 0 
L 469 0 
L 469 531 
Q 828 903 1448 1529 
Q 2069 2156 2228 2338 
Q 2531 2678 2651 2914 
Q 2772 3150 2772 3378 
Q 2772 3750 2511 3984 
Q 2250 4219 1831 4219 
Q 1534 4219 1204 4116 
Q 875 4013 500 3803 
L 500 4441 
Q 881 4594 1212 4672 
Q 1544 4750 1819 4750 
Q 2544 4750 2975 4387 
Q 3406 4025 3406 3419 
Q 3406 3131 3298 2873 
Q 3191 2616 2906 2266 
Q 2828 2175 2409 1742 
Q 1991 1309 1228 531 
z
" transform="scale(0.015625)"/>
       </defs>
       <use xlink:href="#DejaVuSans-32"/>
       <use xlink:href="#DejaVuSans-30" x="63.623047"/>
      </g>
     </g>
    </g>
    <g id="xtick_3">
     <g id="line2d_3">
      <g>
       <use xlink:href="#m721a1e53e3" x="154.278536" y="274.318125" style="stroke: #000000; stroke-width: 0.8"/>
      </g>
     </g>
     <g id="text_3">
      <!-- 40 -->
      <g transform="translate(147.916036 288.916562)scale(0.1 -0.1)">
       <defs>
        <path id="DejaVuSans-34" d="M 2419 4116 
L 825 1625 
L 2419 1625 
L 2419 4116 
z
M 2253 4666 
L 3047 4666 
L 3047 1625 
L 3713 1625 
L 3713 1100 
L 3047 1100 
L 3047 0 
L 2419 0 
L 2419 1100 
L 313 1100 
L 313 1709 
L 2253 4666 
z
" transform="scale(0.015625)"/>
       </defs>
       <use xlink:href="#DejaVuSans-34"/>
       <use xlink:href="#DejaVuSans-30" x="63.623047"/>
      </g>
     </g>
    </g>
    <g id="xtick_4">
     <g id="line2d_4">
      <g>
       <use xlink:href="#m721a1e53e3" x="205.114743" y="274.318125" style="stroke: #000000; stroke-width: 0.8"/>
      </g>
     </g>
     <g id="text_4">
      <!-- 60 -->
      <g transform="translate(198.752243 288.916562)scale(0.1 -0.1)">
       <defs>
        <path id="DejaVuSans-36" d="M 2113 2584 
Q 1688 2584 1439 2293 
Q 1191 2003 1191 1497 
Q 1191 994 1439 701 
Q 1688 409 2113 409 
Q 2538 409 2786 701 
Q 3034 994 3034 1497 
Q 3034 2003 2786 2293 
Q 2538 2584 2113 2584 
z
M 3366 4563 
L 3366 3988 
Q 3128 4100 2886 4159 
Q 2644 4219 2406 4219 
Q 1781 4219 1451 3797 
Q 1122 3375 1075 2522 
Q 1259 2794 1537 2939 
Q 1816 3084 2150 3084 
Q 2853 3084 3261 2657 
Q 3669 2231 3669 1497 
Q 3669 778 3244 343 
Q 2819 -91 2113 -91 
Q 1303 -91 875 529 
Q 447 1150 447 2328 
Q 447 3434 972 4092 
Q 1497 4750 2381 4750 
Q 2619 4750 2861 4703 
Q 3103 4656 3366 4563 
z
" transform="scale(0.015625)"/>
       </defs>
       <use xlink:href="#DejaVuSans-36"/>
       <use xlink:href="#DejaVuSans-30" x="63.623047"/>
      </g>
     </g>
    </g>
    <g id="xtick_5">
     <g id="line2d_5">
      <g>
       <use xlink:href="#m721a1e53e3" x="255.950951" y="274.318125" style="stroke: #000000; stroke-width: 0.8"/>
      </g>
     </g>
     <g id="text_5">
      <!-- 80 -->
      <g transform="translate(249.588451 288.916562)scale(0.1 -0.1)">
       <defs>
        <path id="DejaVuSans-38" d="M 2034 2216 
Q 1584 2216 1326 1975 
Q 1069 1734 1069 1313 
Q 1069 891 1326 650 
Q 1584 409 2034 409 
Q 2484 409 2743 651 
Q 3003 894 3003 1313 
Q 3003 1734 2745 1975 
Q 2488 2216 2034 2216 
z
M 1403 2484 
Q 997 2584 770 2862 
Q 544 3141 544 3541 
Q 544 4100 942 4425 
Q 1341 4750 2034 4750 
Q 2731 4750 3128 4425 
Q 3525 4100 3525 3541 
Q 3525 3141 3298 2862 
Q 3072 2584 2669 2484 
Q 3125 2378 3379 2068 
Q 3634 1759 3634 1313 
Q 3634 634 3220 271 
Q 2806 -91 2034 -91 
Q 1263 -91 848 271 
Q 434 634 434 1313 
Q 434 1759 690 2068 
Q 947 2378 1403 2484 
z
M 1172 3481 
Q 1172 3119 1398 2916 
Q 1625 2713 2034 2713 
Q 2441 2713 2670 2916 
Q 2900 3119 2900 3481 
Q 2900 3844 2670 4047 
Q 2441 4250 2034 4250 
Q 1625 4250 1398 4047 
Q 1172 3844 1172 3481 
z
" transform="scale(0.015625)"/>
       </defs>
       <use xlink:href="#DejaVuSans-38"/>
       <use xlink:href="#DejaVuSans-30" x="63.623047"/>
      </g>
     </g>
    </g>
    <g id="xtick_6">
     <g id="line2d_6">
      <g>
       <use xlink:href="#m721a1e53e3" x="306.787158" y="274.318125" style="stroke: #000000; stroke-width: 0.8"/>
      </g>
     </g>
     <g id="text_6">
      <!-- 100 -->
      <g transform="translate(297.243408 288.916562)scale(0.1 -0.1)">
       <defs>
        <path id="DejaVuSans-31" d="M 794 531 
L 1825 531 
L 1825 4091 
L 703 3866 
L 703 4441 
L 1819 4666 
L 2450 4666 
L 2450 531 
L 3481 531 
L 3481 0 
L 794 0 
L 794 531 
z
" transform="scale(0.015625)"/>
       </defs>
       <use xlink:href="#DejaVuSans-31"/>
       <use xlink:href="#DejaVuSans-30" x="63.623047"/>
       <use xlink:href="#DejaVuSans-30" x="127.246094"/>
      </g>
     </g>
    </g>
    <g id="xtick_7">
     <g id="line2d_7">
      <g>
       <use xlink:href="#m721a1e53e3" x="357.623366" y="274.318125" style="stroke: #000000; stroke-width: 0.8"/>
      </g>
     </g>
     <g id="text_7">
      <!-- 120 -->
      <g transform="translate(348.079616 288.916562)scale(0.1 -0.1)">
       <use xlink:href="#DejaVuSans-31"/>
       <use xlink:href="#DejaVuSans-32" x="63.623047"/>
       <use xlink:href="#DejaVuSans-30" x="127.246094"/>
      </g>
     </g>
    </g>
    <g id="text_8">
     <!-- epoch -->
     <g transform="translate(198.782955 302.594687)scale(0.1 -0.1)">
      <defs>
       <path id="DejaVuSans-65" d="M 3597 1894 
L 3597 1613 
L 953 1613 
Q 991 1019 1311 708 
Q 1631 397 2203 397 
Q 2534 397 2845 478 
Q 3156 559 3463 722 
L 3463 178 
Q 3153 47 2828 -22 
Q 2503 -91 2169 -91 
Q 1331 -91 842 396 
Q 353 884 353 1716 
Q 353 2575 817 3079 
Q 1281 3584 2069 3584 
Q 2775 3584 3186 3129 
Q 3597 2675 3597 1894 
z
M 3022 2063 
Q 3016 2534 2758 2815 
Q 2500 3097 2075 3097 
Q 1594 3097 1305 2825 
Q 1016 2553 972 2059 
L 3022 2063 
z
" transform="scale(0.015625)"/>
       <path id="DejaVuSans-70" d="M 1159 525 
L 1159 -1331 
L 581 -1331 
L 581 3500 
L 1159 3500 
L 1159 2969 
Q 1341 3281 1617 3432 
Q 1894 3584 2278 3584 
Q 2916 3584 3314 3078 
Q 3713 2572 3713 1747 
Q 3713 922 3314 415 
Q 2916 -91 2278 -91 
Q 1894 -91 1617 61 
Q 1341 213 1159 525 
z
M 3116 1747 
Q 3116 2381 2855 2742 
Q 2594 3103 2138 3103 
Q 1681 3103 1420 2742 
Q 1159 2381 1159 1747 
Q 1159 1113 1420 752 
Q 1681 391 2138 391 
Q 2594 391 2855 752 
Q 3116 1113 3116 1747 
z
" transform="scale(0.015625)"/>
       <path id="DejaVuSans-6f" d="M 1959 3097 
Q 1497 3097 1228 2736 
Q 959 2375 959 1747 
Q 959 1119 1226 758 
Q 1494 397 1959 397 
Q 2419 397 2687 759 
Q 2956 1122 2956 1747 
Q 2956 2369 2687 2733 
Q 2419 3097 1959 3097 
z
M 1959 3584 
Q 2709 3584 3137 3096 
Q 3566 2609 3566 1747 
Q 3566 888 3137 398 
Q 2709 -91 1959 -91 
Q 1206 -91 779 398 
Q 353 888 353 1747 
Q 353 2609 779 3096 
Q 1206 3584 1959 3584 
z
" transform="scale(0.015625)"/>
       <path id="DejaVuSans-63" d="M 3122 3366 
L 3122 2828 
Q 2878 2963 2633 3030 
Q 2388 3097 2138 3097 
Q 1578 3097 1268 2742 
Q 959 2388 959 1747 
Q 959 1106 1268 751 
Q 1578 397 2138 397 
Q 2388 397 2633 464 
Q 2878 531 3122 666 
L 3122 134 
Q 2881 22 2623 -34 
Q 2366 -91 2075 -91 
Q 1284 -91 818 406 
Q 353 903 353 1747 
Q 353 2603 823 3093 
Q 1294 3584 2113 3584 
Q 2378 3584 2631 3529 
Q 2884 3475 3122 3366 
z
" transform="scale(0.015625)"/>
       <path id="DejaVuSans-68" d="M 3513 2113 
L 3513 0 
L 2938 0 
L 2938 2094 
Q 2938 2591 2744 2837 
Q 2550 3084 2163 3084 
Q 1697 3084 1428 2787 
Q 1159 2491 1159 1978 
L 1159 0 
L 581 0 
L 581 4863 
L 1159 4863 
L 1159 2956 
Q 1366 3272 1645 3428 
Q 1925 3584 2291 3584 
Q 2894 3584 3203 3211 
Q 3513 2838 3513 2113 
z
" transform="scale(0.015625)"/>
      </defs>
      <use xlink:href="#DejaVuSans-65"/>
      <use xlink:href="#DejaVuSans-70" x="61.523438"/>
      <use xlink:href="#DejaVuSans-6f" x="125"/>
      <use xlink:href="#DejaVuSans-63" x="186.181641"/>
      <use xlink:href="#DejaVuSans-68" x="241.162109"/>
     </g>
    </g>
   </g>
   <g id="matplotlib.axis_2">
    <g id="ytick_1">
     <g id="line2d_8">
      <defs>
       <path id="md759cd52b0" d="M 0 0 
L -3.5 0 
" style="stroke: #000000; stroke-width: 0.8"/>
      </defs>
      <g>
       <use xlink:href="#md759cd52b0" x="36.465625" y="263.675077" style="stroke: #000000; stroke-width: 0.8"/>
      </g>
     </g>
     <g id="text_9">
      <!-- 0.10 -->
      <g transform="translate(7.2 267.474296)scale(0.1 -0.1)">
       <defs>
        <path id="DejaVuSans-2e" d="M 684 794 
L 1344 794 
L 1344 0 
L 684 0 
L 684 794 
z
" transform="scale(0.015625)"/>
       </defs>
       <use xlink:href="#DejaVuSans-30"/>
       <use xlink:href="#DejaVuSans-2e" x="63.623047"/>
       <use xlink:href="#DejaVuSans-31" x="95.410156"/>
       <use xlink:href="#DejaVuSans-30" x="159.033203"/>
      </g>
     </g>
    </g>
    <g id="ytick_2">
     <g id="line2d_9">
      <g>
       <use xlink:href="#md759cd52b0" x="36.465625" y="213.493936" style="stroke: #000000; stroke-width: 0.8"/>
      </g>
     </g>
     <g id="text_10">
      <!-- 0.11 -->
      <g transform="translate(7.2 217.293155)scale(0.1 -0.1)">
       <use xlink:href="#DejaVuSans-30"/>
       <use xlink:href="#DejaVuSans-2e" x="63.623047"/>
       <use xlink:href="#DejaVuSans-31" x="95.410156"/>
       <use xlink:href="#DejaVuSans-31" x="159.033203"/>
      </g>
     </g>
    </g>
    <g id="ytick_3">
     <g id="line2d_10">
      <g>
       <use xlink:href="#md759cd52b0" x="36.465625" y="163.312795" style="stroke: #000000; stroke-width: 0.8"/>
      </g>
     </g>
     <g id="text_11">
      <!-- 0.12 -->
      <g transform="translate(7.2 167.112014)scale(0.1 -0.1)">
       <use xlink:href="#DejaVuSans-30"/>
       <use xlink:href="#DejaVuSans-2e" x="63.623047"/>
       <use xlink:href="#DejaVuSans-31" x="95.410156"/>
       <use xlink:href="#DejaVuSans-32" x="159.033203"/>
      </g>
     </g>
    </g>
    <g id="ytick_4">
     <g id="line2d_11">
      <g>
       <use xlink:href="#md759cd52b0" x="36.465625" y="113.131655" style="stroke: #000000; stroke-width: 0.8"/>
      </g>
     </g>
     <g id="text_12">
      <!-- 0.13 -->
      <g transform="translate(7.2 116.930873)scale(0.1 -0.1)">
       <defs>
        <path id="DejaVuSans-33" d="M 2597 2516 
Q 3050 2419 3304 2112 
Q 3559 1806 3559 1356 
Q 3559 666 3084 287 
Q 2609 -91 1734 -91 
Q 1441 -91 1130 -33 
Q 819 25 488 141 
L 488 750 
Q 750 597 1062 519 
Q 1375 441 1716 441 
Q 2309 441 2620 675 
Q 2931 909 2931 1356 
Q 2931 1769 2642 2001 
Q 2353 2234 1838 2234 
L 1294 2234 
L 1294 2753 
L 1863 2753 
Q 2328 2753 2575 2939 
Q 2822 3125 2822 3475 
Q 2822 3834 2567 4026 
Q 2313 4219 1838 4219 
Q 1578 4219 1281 4162 
Q 984 4106 628 3988 
L 628 4550 
Q 988 4650 1302 4700 
Q 1616 4750 1894 4750 
Q 2613 4750 3031 4423 
Q 3450 4097 3450 3541 
Q 3450 3153 3228 2886 
Q 3006 2619 2597 2516 
z
" transform="scale(0.015625)"/>
       </defs>
       <use xlink:href="#DejaVuSans-30"/>
       <use xlink:href="#DejaVuSans-2e" x="63.623047"/>
       <use xlink:href="#DejaVuSans-31" x="95.410156"/>
       <use xlink:href="#DejaVuSans-33" x="159.033203"/>
      </g>
     </g>
    </g>
    <g id="ytick_5">
     <g id="line2d_12">
      <g>
       <use xlink:href="#md759cd52b0" x="36.465625" y="62.950514" style="stroke: #000000; stroke-width: 0.8"/>
      </g>
     </g>
     <g id="text_13">
      <!-- 0.14 -->
      <g transform="translate(7.2 66.749733)scale(0.1 -0.1)">
       <use xlink:href="#DejaVuSans-30"/>
       <use xlink:href="#DejaVuSans-2e" x="63.623047"/>
       <use xlink:href="#DejaVuSans-31" x="95.410156"/>
       <use xlink:href="#DejaVuSans-34" x="159.033203"/>
      </g>
     </g>
    </g>
   </g>
   <g id="line2d_13">
    <path d="M 52.606121 33.77267 
L 55.147931 168.749939 
L 60.231552 198.46757 
L 62.773362 204.242325 
L 65.315173 208.458313 
L 67.856983 211.218217 
L 70.398793 214.706759 
L 72.940604 216.823877 
L 78.024225 220.106982 
L 80.566035 222.538585 
L 83.107845 223.705056 
L 85.649656 224.395552 
L 88.191466 225.987089 
L 93.275087 227.409479 
L 95.816897 228.648322 
L 98.358708 230.393953 
L 100.900518 230.308222 
L 103.442328 231.734672 
L 105.984139 231.458784 
L 108.525949 233.651015 
L 111.067759 233.234322 
L 113.60957 233.948803 
L 116.15138 234.15419 
L 118.693191 235.50676 
L 121.235001 235.697583 
L 126.318622 236.777566 
L 128.860432 237.695289 
L 131.402242 237.815945 
L 136.485863 238.451552 
L 141.569484 239.484597 
L 144.111294 239.696167 
L 146.653105 240.640436 
L 149.194915 241.05545 
L 151.736725 241.342426 
L 154.278536 242.090329 
L 159.362157 242.58014 
L 161.903967 243.237772 
L 164.445777 243.081626 
L 166.987588 243.85998 
L 169.529398 243.831561 
L 172.071208 244.743711 
L 174.613019 244.173427 
L 177.154829 245.304829 
L 179.69664 244.854597 
L 184.78026 246.116794 
L 187.322071 246.336497 
L 189.863881 246.382144 
L 192.405691 246.825114 
L 194.947502 247.615985 
L 197.489312 246.487901 
L 200.031122 247.751733 
L 202.572933 248.39313 
L 205.114743 249.267454 
L 207.656554 249.170339 
L 210.198364 249.400942 
L 212.740174 249.292004 
L 215.281985 249.507142 
L 220.365605 251.03651 
L 222.907416 249.865295 
L 225.449226 251.253442 
L 227.991037 250.324099 
L 230.532847 251.370599 
L 233.074657 251.790785 
L 235.616468 252.063864 
L 238.158278 252.146464 
L 240.700088 252.440152 
L 243.241899 252.592795 
L 245.783709 252.465057 
L 248.32552 253.248987 
L 250.86733 253.815858 
L 253.40914 253.708998 
L 255.950951 253.437369 
L 258.492761 254.769116 
L 261.034571 254.172387 
L 268.660003 254.902491 
L 271.201813 254.776135 
L 273.743623 255.66065 
L 276.285434 255.040162 
L 278.827244 254.943413 
L 281.369054 255.649447 
L 283.910865 256.688112 
L 286.452675 256.001293 
L 288.994486 256.536578 
L 291.536296 257.617946 
L 294.078106 256.96662 
L 296.619917 256.656608 
L 299.161727 258.105321 
L 301.703537 256.652943 
L 304.245348 257.556024 
L 306.787158 258.333843 
L 309.328969 258.070739 
L 311.870779 258.05509 
L 316.9544 258.351359 
L 319.49621 258.413533 
L 322.03802 259.239887 
L 324.579831 258.66564 
L 329.663452 258.998502 
L 334.747072 260.026702 
L 337.288883 259.988742 
L 339.830693 259.627559 
L 342.372503 260.753002 
L 344.914314 260.431263 
L 347.456124 260.876029 
L 349.997934 260.598885 
L 355.081555 261.188919 
L 357.623366 261.312951 
L 360.165176 261.612416 
L 367.790607 262.074685 
L 370.332417 262.86358 
L 372.874228 261.622881 
L 375.416038 262.730522 
L 375.416038 262.730522 
" clip-path="url(#pfcaf8e1dd6)" style="fill: none; stroke: #1f77b4; stroke-width: 1.5; stroke-linecap: square"/>
   </g>
   <g id="patch_3">
    <path d="M 36.465625 274.318125 
L 36.465625 22.318125 
" style="fill: none; stroke: #000000; stroke-width: 0.8; stroke-linejoin: miter; stroke-linecap: square"/>
   </g>
   <g id="patch_4">
    <path d="M 391.556534 274.318125 
L 391.556534 22.318125 
" style="fill: none; stroke: #000000; stroke-width: 0.8; stroke-linejoin: miter; stroke-linecap: square"/>
   </g>
   <g id="patch_5">
    <path d="M 36.465625 274.318125 
L 391.556534 274.318125 
" style="fill: none; stroke: #000000; stroke-width: 0.8; stroke-linejoin: miter; stroke-linecap: square"/>
   </g>
   <g id="patch_6">
    <path d="M 36.465625 22.318125 
L 391.556534 22.318125 
" style="fill: none; stroke: #000000; stroke-width: 0.8; stroke-linejoin: miter; stroke-linecap: square"/>
   </g>
   <g id="text_14">
    <!-- train loss -->
    <g transform="translate(186.54983 16.318125)scale(0.12 -0.12)">
     <defs>
      <path id="DejaVuSans-74" d="M 1172 4494 
L 1172 3500 
L 2356 3500 
L 2356 3053 
L 1172 3053 
L 1172 1153 
Q 1172 725 1289 603 
Q 1406 481 1766 481 
L 2356 481 
L 2356 0 
L 1766 0 
Q 1100 0 847 248 
Q 594 497 594 1153 
L 594 3053 
L 172 3053 
L 172 3500 
L 594 3500 
L 594 4494 
L 1172 4494 
z
" transform="scale(0.015625)"/>
      <path id="DejaVuSans-72" d="M 2631 2963 
Q 2534 3019 2420 3045 
Q 2306 3072 2169 3072 
Q 1681 3072 1420 2755 
Q 1159 2438 1159 1844 
L 1159 0 
L 581 0 
L 581 3500 
L 1159 3500 
L 1159 2956 
Q 1341 3275 1631 3429 
Q 1922 3584 2338 3584 
Q 2397 3584 2469 3576 
Q 2541 3569 2628 3553 
L 2631 2963 
z
" transform="scale(0.015625)"/>
      <path id="DejaVuSans-61" d="M 2194 1759 
Q 1497 1759 1228 1600 
Q 959 1441 959 1056 
Q 959 750 1161 570 
Q 1363 391 1709 391 
Q 2188 391 2477 730 
Q 2766 1069 2766 1631 
L 2766 1759 
L 2194 1759 
z
M 3341 1997 
L 3341 0 
L 2766 0 
L 2766 531 
Q 2569 213 2275 61 
Q 1981 -91 1556 -91 
Q 1019 -91 701 211 
Q 384 513 384 1019 
Q 384 1609 779 1909 
Q 1175 2209 1959 2209 
L 2766 2209 
L 2766 2266 
Q 2766 2663 2505 2880 
Q 2244 3097 1772 3097 
Q 1472 3097 1187 3025 
Q 903 2953 641 2809 
L 641 3341 
Q 956 3463 1253 3523 
Q 1550 3584 1831 3584 
Q 2591 3584 2966 3190 
Q 3341 2797 3341 1997 
z
" transform="scale(0.015625)"/>
      <path id="DejaVuSans-69" d="M 603 3500 
L 1178 3500 
L 1178 0 
L 603 0 
L 603 3500 
z
M 603 4863 
L 1178 4863 
L 1178 4134 
L 603 4134 
L 603 4863 
z
" transform="scale(0.015625)"/>
      <path id="DejaVuSans-6e" d="M 3513 2113 
L 3513 0 
L 2938 0 
L 2938 2094 
Q 2938 2591 2744 2837 
Q 2550 3084 2163 3084 
Q 1697 3084 1428 2787 
Q 1159 2491 1159 1978 
L 1159 0 
L 581 0 
L 581 3500 
L 1159 3500 
L 1159 2956 
Q 1366 3272 1645 3428 
Q 1925 3584 2291 3584 
Q 2894 3584 3203 3211 
Q 3513 2838 3513 2113 
z
" transform="scale(0.015625)"/>
      <path id="DejaVuSans-20" transform="scale(0.015625)"/>
      <path id="DejaVuSans-6c" d="M 603 4863 
L 1178 4863 
L 1178 0 
L 603 0 
L 603 4863 
z
" transform="scale(0.015625)"/>
      <path id="DejaVuSans-73" d="M 2834 3397 
L 2834 2853 
Q 2591 2978 2328 3040 
Q 2066 3103 1784 3103 
Q 1356 3103 1142 2972 
Q 928 2841 928 2578 
Q 928 2378 1081 2264 
Q 1234 2150 1697 2047 
L 1894 2003 
Q 2506 1872 2764 1633 
Q 3022 1394 3022 966 
Q 3022 478 2636 193 
Q 2250 -91 1575 -91 
Q 1294 -91 989 -36 
Q 684 19 347 128 
L 347 722 
Q 666 556 975 473 
Q 1284 391 1588 391 
Q 1994 391 2212 530 
Q 2431 669 2431 922 
Q 2431 1156 2273 1281 
Q 2116 1406 1581 1522 
L 1381 1569 
Q 847 1681 609 1914 
Q 372 2147 372 2553 
Q 372 3047 722 3315 
Q 1072 3584 1716 3584 
Q 2034 3584 2315 3537 
Q 2597 3491 2834 3397 
z
" transform="scale(0.015625)"/>
     </defs>
     <use xlink:href="#DejaVuSans-74"/>
     <use xlink:href="#DejaVuSans-72" x="39.208984"/>
     <use xlink:href="#DejaVuSans-61" x="80.322266"/>
     <use xlink:href="#DejaVuSans-69" x="141.601562"/>
     <use xlink:href="#DejaVuSans-6e" x="169.384766"/>
     <use xlink:href="#DejaVuSans-20" x="232.763672"/>
     <use xlink:href="#DejaVuSans-6c" x="264.550781"/>
     <use xlink:href="#DejaVuSans-6f" x="292.333984"/>
     <use xlink:href="#DejaVuSans-73" x="353.515625"/>
     <use xlink:href="#DejaVuSans-73" x="405.615234"/>
    </g>
   </g>
  </g>
  <g id="axes_2">
   <g id="patch_7">
    <path d="M 462.574716 274.318125 
L 817.665625 274.318125 
L 817.665625 22.318125 
L 462.574716 22.318125 
z
" style="fill: #ffffff"/>
   </g>
   <g id="matplotlib.axis_3">
    <g id="xtick_8">
     <g id="line2d_14">
      <g>
       <use xlink:href="#m721a1e53e3" x="478.715212" y="274.318125" style="stroke: #000000; stroke-width: 0.8"/>
      </g>
     </g>
     <g id="text_15">
      <!-- 0 -->
      <g transform="translate(475.533962 288.916562)scale(0.1 -0.1)">
       <use xlink:href="#DejaVuSans-30"/>
      </g>
     </g>
    </g>
    <g id="xtick_9">
     <g id="line2d_15">
      <g>
       <use xlink:href="#m721a1e53e3" x="529.551419" y="274.318125" style="stroke: #000000; stroke-width: 0.8"/>
      </g>
     </g>
     <g id="text_16">
      <!-- 20 -->
      <g transform="translate(523.188919 288.916562)scale(0.1 -0.1)">
       <use xlink:href="#DejaVuSans-32"/>
       <use xlink:href="#DejaVuSans-30" x="63.623047"/>
      </g>
     </g>
    </g>
    <g id="xtick_10">
     <g id="line2d_16">
      <g>
       <use xlink:href="#m721a1e53e3" x="580.387627" y="274.318125" style="stroke: #000000; stroke-width: 0.8"/>
      </g>
     </g>
     <g id="text_17">
      <!-- 40 -->
      <g transform="translate(574.025127 288.916562)scale(0.1 -0.1)">
       <use xlink:href="#DejaVuSans-34"/>
       <use xlink:href="#DejaVuSans-30" x="63.623047"/>
      </g>
     </g>
    </g>
    <g id="xtick_11">
     <g id="line2d_17">
      <g>
       <use xlink:href="#m721a1e53e3" x="631.223834" y="274.318125" style="stroke: #000000; stroke-width: 0.8"/>
      </g>
     </g>
     <g id="text_18">
      <!-- 60 -->
      <g transform="translate(624.861334 288.916562)scale(0.1 -0.1)">
       <use xlink:href="#DejaVuSans-36"/>
       <use xlink:href="#DejaVuSans-30" x="63.623047"/>
      </g>
     </g>
    </g>
    <g id="xtick_12">
     <g id="line2d_18">
      <g>
       <use xlink:href="#m721a1e53e3" x="682.060042" y="274.318125" style="stroke: #000000; stroke-width: 0.8"/>
      </g>
     </g>
     <g id="text_19">
      <!-- 80 -->
      <g transform="translate(675.697542 288.916562)scale(0.1 -0.1)">
       <use xlink:href="#DejaVuSans-38"/>
       <use xlink:href="#DejaVuSans-30" x="63.623047"/>
      </g>
     </g>
    </g>
    <g id="xtick_13">
     <g id="line2d_19">
      <g>
       <use xlink:href="#m721a1e53e3" x="732.896249" y="274.318125" style="stroke: #000000; stroke-width: 0.8"/>
      </g>
     </g>
     <g id="text_20">
      <!-- 100 -->
      <g transform="translate(723.352499 288.916562)scale(0.1 -0.1)">
       <use xlink:href="#DejaVuSans-31"/>
       <use xlink:href="#DejaVuSans-30" x="63.623047"/>
       <use xlink:href="#DejaVuSans-30" x="127.246094"/>
      </g>
     </g>
    </g>
    <g id="xtick_14">
     <g id="line2d_20">
      <g>
       <use xlink:href="#m721a1e53e3" x="783.732457" y="274.318125" style="stroke: #000000; stroke-width: 0.8"/>
      </g>
     </g>
     <g id="text_21">
      <!-- 120 -->
      <g transform="translate(774.188707 288.916562)scale(0.1 -0.1)">
       <use xlink:href="#DejaVuSans-31"/>
       <use xlink:href="#DejaVuSans-32" x="63.623047"/>
       <use xlink:href="#DejaVuSans-30" x="127.246094"/>
      </g>
     </g>
    </g>
    <g id="text_22">
     <!-- epoch -->
     <g transform="translate(624.892045 302.594687)scale(0.1 -0.1)">
      <use xlink:href="#DejaVuSans-65"/>
      <use xlink:href="#DejaVuSans-70" x="61.523438"/>
      <use xlink:href="#DejaVuSans-6f" x="125"/>
      <use xlink:href="#DejaVuSans-63" x="186.181641"/>
      <use xlink:href="#DejaVuSans-68" x="241.162109"/>
     </g>
    </g>
   </g>
   <g id="matplotlib.axis_4">
    <g id="ytick_6">
     <g id="line2d_21">
      <g>
       <use xlink:href="#md759cd52b0" x="462.574716" y="263.675077" style="stroke: #000000; stroke-width: 0.8"/>
      </g>
     </g>
     <g id="text_23">
      <!-- 0.10 -->
      <g transform="translate(433.309091 267.474296)scale(0.1 -0.1)">
       <use xlink:href="#DejaVuSans-30"/>
       <use xlink:href="#DejaVuSans-2e" x="63.623047"/>
       <use xlink:href="#DejaVuSans-31" x="95.410156"/>
       <use xlink:href="#DejaVuSans-30" x="159.033203"/>
      </g>
     </g>
    </g>
    <g id="ytick_7">
     <g id="line2d_22">
      <g>
       <use xlink:href="#md759cd52b0" x="462.574716" y="213.493936" style="stroke: #000000; stroke-width: 0.8"/>
      </g>
     </g>
     <g id="text_24">
      <!-- 0.11 -->
      <g transform="translate(433.309091 217.293155)scale(0.1 -0.1)">
       <use xlink:href="#DejaVuSans-30"/>
       <use xlink:href="#DejaVuSans-2e" x="63.623047"/>
       <use xlink:href="#DejaVuSans-31" x="95.410156"/>
       <use xlink:href="#DejaVuSans-31" x="159.033203"/>
      </g>
     </g>
    </g>
    <g id="ytick_8">
     <g id="line2d_23">
      <g>
       <use xlink:href="#md759cd52b0" x="462.574716" y="163.312795" style="stroke: #000000; stroke-width: 0.8"/>
      </g>
     </g>
     <g id="text_25">
      <!-- 0.12 -->
      <g transform="translate(433.309091 167.112014)scale(0.1 -0.1)">
       <use xlink:href="#DejaVuSans-30"/>
       <use xlink:href="#DejaVuSans-2e" x="63.623047"/>
       <use xlink:href="#DejaVuSans-31" x="95.410156"/>
       <use xlink:href="#DejaVuSans-32" x="159.033203"/>
      </g>
     </g>
    </g>
    <g id="ytick_9">
     <g id="line2d_24">
      <g>
       <use xlink:href="#md759cd52b0" x="462.574716" y="113.131655" style="stroke: #000000; stroke-width: 0.8"/>
      </g>
     </g>
     <g id="text_26">
      <!-- 0.13 -->
      <g transform="translate(433.309091 116.930873)scale(0.1 -0.1)">
       <use xlink:href="#DejaVuSans-30"/>
       <use xlink:href="#DejaVuSans-2e" x="63.623047"/>
       <use xlink:href="#DejaVuSans-31" x="95.410156"/>
       <use xlink:href="#DejaVuSans-33" x="159.033203"/>
      </g>
     </g>
    </g>
    <g id="ytick_10">
     <g id="line2d_25">
      <g>
       <use xlink:href="#md759cd52b0" x="462.574716" y="62.950514" style="stroke: #000000; stroke-width: 0.8"/>
      </g>
     </g>
     <g id="text_27">
      <!-- 0.14 -->
      <g transform="translate(433.309091 66.749733)scale(0.1 -0.1)">
       <use xlink:href="#DejaVuSans-30"/>
       <use xlink:href="#DejaVuSans-2e" x="63.623047"/>
       <use xlink:href="#DejaVuSans-31" x="95.410156"/>
       <use xlink:href="#DejaVuSans-34" x="159.033203"/>
      </g>
     </g>
    </g>
   </g>
   <g id="line2d_26">
    <path d="M 478.715212 33.77267 
L 481.257022 168.749939 
L 486.340643 198.46757 
L 488.882453 204.242325 
L 491.424264 208.458313 
L 493.966074 211.218217 
L 496.507884 214.706759 
L 499.049695 216.823877 
L 504.133316 220.106982 
L 506.675126 222.538585 
L 509.216936 223.705056 
L 511.758747 224.395552 
L 514.300557 225.987089 
L 519.384178 227.409479 
L 521.925988 228.648322 
L 524.467798 230.393953 
L 527.009609 230.308222 
L 529.551419 231.734672 
L 532.09323 231.458784 
L 534.63504 233.651015 
L 537.17685 233.234322 
L 539.718661 233.948803 
L 542.260471 234.15419 
L 544.802281 235.50676 
L 547.344092 235.697583 
L 552.427713 236.777566 
L 554.969523 237.695289 
L 557.511333 237.815945 
L 562.594954 238.451552 
L 567.678575 239.484597 
L 570.220385 239.696167 
L 572.762196 240.640436 
L 575.304006 241.05545 
L 577.845816 241.342426 
L 580.387627 242.090329 
L 585.471247 242.58014 
L 588.013058 243.237772 
L 590.554868 243.081626 
L 593.096679 243.85998 
L 595.638489 243.831561 
L 598.180299 244.743711 
L 600.72211 244.173427 
L 603.26392 245.304829 
L 605.80573 244.854597 
L 610.889351 246.116794 
L 613.431162 246.336497 
L 615.972972 246.382144 
L 618.514782 246.825114 
L 621.056593 247.615985 
L 623.598403 246.487901 
L 626.140213 247.751733 
L 628.682024 248.39313 
L 631.223834 249.267454 
L 633.765645 249.170339 
L 636.307455 249.400942 
L 638.849265 249.292004 
L 641.391076 249.507142 
L 646.474696 251.03651 
L 649.016507 249.865295 
L 651.558317 251.253442 
L 654.100128 250.324099 
L 656.641938 251.370599 
L 659.183748 251.790785 
L 661.725559 252.063864 
L 664.267369 252.146464 
L 666.809179 252.440152 
L 669.35099 252.592795 
L 671.8928 252.465057 
L 674.43461 253.248987 
L 676.976421 253.815858 
L 679.518231 253.708998 
L 682.060042 253.437369 
L 684.601852 254.769116 
L 687.143662 254.172387 
L 694.769093 254.902491 
L 697.310904 254.776135 
L 699.852714 255.66065 
L 702.394525 255.040162 
L 704.936335 254.943413 
L 707.478145 255.649447 
L 710.019956 256.688112 
L 712.561766 256.001293 
L 715.103576 256.536578 
L 717.645387 257.617946 
L 720.187197 256.96662 
L 722.729008 256.656608 
L 725.270818 258.105321 
L 727.812628 256.652943 
L 730.354439 257.556024 
L 732.896249 258.333843 
L 735.438059 258.070739 
L 737.97987 258.05509 
L 743.063491 258.351359 
L 745.605301 258.413533 
L 748.147111 259.239887 
L 750.688922 258.66564 
L 755.772542 258.998502 
L 760.856163 260.026702 
L 763.397974 259.988742 
L 765.939784 259.627559 
L 768.481594 260.753002 
L 771.023405 260.431263 
L 773.565215 260.876029 
L 776.107025 260.598885 
L 781.190646 261.188919 
L 783.732457 261.312951 
L 786.274267 261.612416 
L 793.899698 262.074685 
L 796.441508 262.86358 
L 798.983319 261.622881 
L 801.525129 262.730522 
L 801.525129 262.730522 
" clip-path="url(#pdee929b367)" style="fill: none; stroke: #1f77b4; stroke-width: 1.5; stroke-linecap: square"/>
    <defs>
     <path id="m0bb6d2b3e1" d="M 0 3 
C 0.795609 3 1.55874 2.683901 2.12132 2.12132 
C 2.683901 1.55874 3 0.795609 3 0 
C 3 -0.795609 2.683901 -1.55874 2.12132 -2.12132 
C 1.55874 -2.683901 0.795609 -3 0 -3 
C -0.795609 -3 -1.55874 -2.683901 -2.12132 -2.12132 
C -2.683901 -1.55874 -3 -0.795609 -3 0 
C -3 0.795609 -2.683901 1.55874 -2.12132 2.12132 
C -1.55874 2.683901 -0.795609 3 0 3 
z
" style="stroke: #1f77b4"/>
    </defs>
    <g clip-path="url(#pdee929b367)">
     <use xlink:href="#m0bb6d2b3e1" x="478.715212" y="33.77267" style="fill: #1f77b4; stroke: #1f77b4"/>
     <use xlink:href="#m0bb6d2b3e1" x="481.257022" y="168.749939" style="fill: #1f77b4; stroke: #1f77b4"/>
     <use xlink:href="#m0bb6d2b3e1" x="483.798833" y="183.735412" style="fill: #1f77b4; stroke: #1f77b4"/>
     <use xlink:href="#m0bb6d2b3e1" x="486.340643" y="198.46757" style="fill: #1f77b4; stroke: #1f77b4"/>
     <use xlink:href="#m0bb6d2b3e1" x="488.882453" y="204.242325" style="fill: #1f77b4; stroke: #1f77b4"/>
     <use xlink:href="#m0bb6d2b3e1" x="491.424264" y="208.458313" style="fill: #1f77b4; stroke: #1f77b4"/>
     <use xlink:href="#m0bb6d2b3e1" x="493.966074" y="211.218217" style="fill: #1f77b4; stroke: #1f77b4"/>
     <use xlink:href="#m0bb6d2b3e1" x="496.507884" y="214.706759" style="fill: #1f77b4; stroke: #1f77b4"/>
     <use xlink:href="#m0bb6d2b3e1" x="499.049695" y="216.823877" style="fill: #1f77b4; stroke: #1f77b4"/>
     <use xlink:href="#m0bb6d2b3e1" x="501.591505" y="218.425478" style="fill: #1f77b4; stroke: #1f77b4"/>
     <use xlink:href="#m0bb6d2b3e1" x="504.133316" y="220.106982" style="fill: #1f77b4; stroke: #1f77b4"/>
     <use xlink:href="#m0bb6d2b3e1" x="506.675126" y="222.538585" style="fill: #1f77b4; stroke: #1f77b4"/>
     <use xlink:href="#m0bb6d2b3e1" x="509.216936" y="223.705056" style="fill: #1f77b4; stroke: #1f77b4"/>
     <use xlink:href="#m0bb6d2b3e1" x="511.758747" y="224.395552" style="fill: #1f77b4; stroke: #1f77b4"/>
     <use xlink:href="#m0bb6d2b3e1" x="514.300557" y="225.987089" style="fill: #1f77b4; stroke: #1f77b4"/>
     <use xlink:href="#m0bb6d2b3e1" x="516.842367" y="226.73455" style="fill: #1f77b4; stroke: #1f77b4"/>
     <use xlink:href="#m0bb6d2b3e1" x="519.384178" y="227.409479" style="fill: #1f77b4; stroke: #1f77b4"/>
     <use xlink:href="#m0bb6d2b3e1" x="521.925988" y="228.648322" style="fill: #1f77b4; stroke: #1f77b4"/>
     <use xlink:href="#m0bb6d2b3e1" x="524.467798" y="230.393953" style="fill: #1f77b4; stroke: #1f77b4"/>
     <use xlink:href="#m0bb6d2b3e1" x="527.009609" y="230.308222" style="fill: #1f77b4; stroke: #1f77b4"/>
     <use xlink:href="#m0bb6d2b3e1" x="529.551419" y="231.734672" style="fill: #1f77b4; stroke: #1f77b4"/>
     <use xlink:href="#m0bb6d2b3e1" x="532.09323" y="231.458784" style="fill: #1f77b4; stroke: #1f77b4"/>
     <use xlink:href="#m0bb6d2b3e1" x="534.63504" y="233.651015" style="fill: #1f77b4; stroke: #1f77b4"/>
     <use xlink:href="#m0bb6d2b3e1" x="537.17685" y="233.234322" style="fill: #1f77b4; stroke: #1f77b4"/>
     <use xlink:href="#m0bb6d2b3e1" x="539.718661" y="233.948803" style="fill: #1f77b4; stroke: #1f77b4"/>
     <use xlink:href="#m0bb6d2b3e1" x="542.260471" y="234.15419" style="fill: #1f77b4; stroke: #1f77b4"/>
     <use xlink:href="#m0bb6d2b3e1" x="544.802281" y="235.50676" style="fill: #1f77b4; stroke: #1f77b4"/>
     <use xlink:href="#m0bb6d2b3e1" x="547.344092" y="235.697583" style="fill: #1f77b4; stroke: #1f77b4"/>
     <use xlink:href="#m0bb6d2b3e1" x="549.885902" y="236.205895" style="fill: #1f77b4; stroke: #1f77b4"/>
     <use xlink:href="#m0bb6d2b3e1" x="552.427713" y="236.777566" style="fill: #1f77b4; stroke: #1f77b4"/>
     <use xlink:href="#m0bb6d2b3e1" x="554.969523" y="237.695289" style="fill: #1f77b4; stroke: #1f77b4"/>
     <use xlink:href="#m0bb6d2b3e1" x="557.511333" y="237.815945" style="fill: #1f77b4; stroke: #1f77b4"/>
     <use xlink:href="#m0bb6d2b3e1" x="560.053144" y="238.131172" style="fill: #1f77b4; stroke: #1f77b4"/>
     <use xlink:href="#m0bb6d2b3e1" x="562.594954" y="238.451552" style="fill: #1f77b4; stroke: #1f77b4"/>
     <use xlink:href="#m0bb6d2b3e1" x="565.136764" y="239.020005" style="fill: #1f77b4; stroke: #1f77b4"/>
     <use xlink:href="#m0bb6d2b3e1" x="567.678575" y="239.484597" style="fill: #1f77b4; stroke: #1f77b4"/>
     <use xlink:href="#m0bb6d2b3e1" x="570.220385" y="239.696167" style="fill: #1f77b4; stroke: #1f77b4"/>
     <use xlink:href="#m0bb6d2b3e1" x="572.762196" y="240.640436" style="fill: #1f77b4; stroke: #1f77b4"/>
     <use xlink:href="#m0bb6d2b3e1" x="575.304006" y="241.05545" style="fill: #1f77b4; stroke: #1f77b4"/>
     <use xlink:href="#m0bb6d2b3e1" x="577.845816" y="241.342426" style="fill: #1f77b4; stroke: #1f77b4"/>
     <use xlink:href="#m0bb6d2b3e1" x="580.387627" y="242.090329" style="fill: #1f77b4; stroke: #1f77b4"/>
     <use xlink:href="#m0bb6d2b3e1" x="582.929437" y="242.318834" style="fill: #1f77b4; stroke: #1f77b4"/>
     <use xlink:href="#m0bb6d2b3e1" x="585.471247" y="242.58014" style="fill: #1f77b4; stroke: #1f77b4"/>
     <use xlink:href="#m0bb6d2b3e1" x="588.013058" y="243.237772" style="fill: #1f77b4; stroke: #1f77b4"/>
     <use xlink:href="#m0bb6d2b3e1" x="590.554868" y="243.081626" style="fill: #1f77b4; stroke: #1f77b4"/>
     <use xlink:href="#m0bb6d2b3e1" x="593.096679" y="243.85998" style="fill: #1f77b4; stroke: #1f77b4"/>
     <use xlink:href="#m0bb6d2b3e1" x="595.638489" y="243.831561" style="fill: #1f77b4; stroke: #1f77b4"/>
     <use xlink:href="#m0bb6d2b3e1" x="598.180299" y="244.743711" style="fill: #1f77b4; stroke: #1f77b4"/>
     <use xlink:href="#m0bb6d2b3e1" x="600.72211" y="244.173427" style="fill: #1f77b4; stroke: #1f77b4"/>
     <use xlink:href="#m0bb6d2b3e1" x="603.26392" y="245.304829" style="fill: #1f77b4; stroke: #1f77b4"/>
     <use xlink:href="#m0bb6d2b3e1" x="605.80573" y="244.854597" style="fill: #1f77b4; stroke: #1f77b4"/>
     <use xlink:href="#m0bb6d2b3e1" x="608.347541" y="245.450449" style="fill: #1f77b4; stroke: #1f77b4"/>
     <use xlink:href="#m0bb6d2b3e1" x="610.889351" y="246.116794" style="fill: #1f77b4; stroke: #1f77b4"/>
     <use xlink:href="#m0bb6d2b3e1" x="613.431162" y="246.336497" style="fill: #1f77b4; stroke: #1f77b4"/>
     <use xlink:href="#m0bb6d2b3e1" x="615.972972" y="246.382144" style="fill: #1f77b4; stroke: #1f77b4"/>
     <use xlink:href="#m0bb6d2b3e1" x="618.514782" y="246.825114" style="fill: #1f77b4; stroke: #1f77b4"/>
     <use xlink:href="#m0bb6d2b3e1" x="621.056593" y="247.615985" style="fill: #1f77b4; stroke: #1f77b4"/>
     <use xlink:href="#m0bb6d2b3e1" x="623.598403" y="246.487901" style="fill: #1f77b4; stroke: #1f77b4"/>
     <use xlink:href="#m0bb6d2b3e1" x="626.140213" y="247.751733" style="fill: #1f77b4; stroke: #1f77b4"/>
     <use xlink:href="#m0bb6d2b3e1" x="628.682024" y="248.39313" style="fill: #1f77b4; stroke: #1f77b4"/>
     <use xlink:href="#m0bb6d2b3e1" x="631.223834" y="249.267454" style="fill: #1f77b4; stroke: #1f77b4"/>
     <use xlink:href="#m0bb6d2b3e1" x="633.765645" y="249.170339" style="fill: #1f77b4; stroke: #1f77b4"/>
     <use xlink:href="#m0bb6d2b3e1" x="636.307455" y="249.400942" style="fill: #1f77b4; stroke: #1f77b4"/>
     <use xlink:href="#m0bb6d2b3e1" x="638.849265" y="249.292004" style="fill: #1f77b4; stroke: #1f77b4"/>
     <use xlink:href="#m0bb6d2b3e1" x="641.391076" y="249.507142" style="fill: #1f77b4; stroke: #1f77b4"/>
     <use xlink:href="#m0bb6d2b3e1" x="643.932886" y="250.274966" style="fill: #1f77b4; stroke: #1f77b4"/>
     <use xlink:href="#m0bb6d2b3e1" x="646.474696" y="251.03651" style="fill: #1f77b4; stroke: #1f77b4"/>
     <use xlink:href="#m0bb6d2b3e1" x="649.016507" y="249.865295" style="fill: #1f77b4; stroke: #1f77b4"/>
     <use xlink:href="#m0bb6d2b3e1" x="651.558317" y="251.253442" style="fill: #1f77b4; stroke: #1f77b4"/>
     <use xlink:href="#m0bb6d2b3e1" x="654.100128" y="250.324099" style="fill: #1f77b4; stroke: #1f77b4"/>
     <use xlink:href="#m0bb6d2b3e1" x="656.641938" y="251.370599" style="fill: #1f77b4; stroke: #1f77b4"/>
     <use xlink:href="#m0bb6d2b3e1" x="659.183748" y="251.790785" style="fill: #1f77b4; stroke: #1f77b4"/>
     <use xlink:href="#m0bb6d2b3e1" x="661.725559" y="252.063864" style="fill: #1f77b4; stroke: #1f77b4"/>
     <use xlink:href="#m0bb6d2b3e1" x="664.267369" y="252.146464" style="fill: #1f77b4; stroke: #1f77b4"/>
     <use xlink:href="#m0bb6d2b3e1" x="666.809179" y="252.440152" style="fill: #1f77b4; stroke: #1f77b4"/>
     <use xlink:href="#m0bb6d2b3e1" x="669.35099" y="252.592795" style="fill: #1f77b4; stroke: #1f77b4"/>
     <use xlink:href="#m0bb6d2b3e1" x="671.8928" y="252.465057" style="fill: #1f77b4; stroke: #1f77b4"/>
     <use xlink:href="#m0bb6d2b3e1" x="674.43461" y="253.248987" style="fill: #1f77b4; stroke: #1f77b4"/>
     <use xlink:href="#m0bb6d2b3e1" x="676.976421" y="253.815858" style="fill: #1f77b4; stroke: #1f77b4"/>
     <use xlink:href="#m0bb6d2b3e1" x="679.518231" y="253.708998" style="fill: #1f77b4; stroke: #1f77b4"/>
     <use xlink:href="#m0bb6d2b3e1" x="682.060042" y="253.437369" style="fill: #1f77b4; stroke: #1f77b4"/>
     <use xlink:href="#m0bb6d2b3e1" x="684.601852" y="254.769116" style="fill: #1f77b4; stroke: #1f77b4"/>
     <use xlink:href="#m0bb6d2b3e1" x="687.143662" y="254.172387" style="fill: #1f77b4; stroke: #1f77b4"/>
     <use xlink:href="#m0bb6d2b3e1" x="689.685473" y="254.415454" style="fill: #1f77b4; stroke: #1f77b4"/>
     <use xlink:href="#m0bb6d2b3e1" x="692.227283" y="254.607803" style="fill: #1f77b4; stroke: #1f77b4"/>
     <use xlink:href="#m0bb6d2b3e1" x="694.769093" y="254.902491" style="fill: #1f77b4; stroke: #1f77b4"/>
     <use xlink:href="#m0bb6d2b3e1" x="697.310904" y="254.776135" style="fill: #1f77b4; stroke: #1f77b4"/>
     <use xlink:href="#m0bb6d2b3e1" x="699.852714" y="255.66065" style="fill: #1f77b4; stroke: #1f77b4"/>
     <use xlink:href="#m0bb6d2b3e1" x="702.394525" y="255.040162" style="fill: #1f77b4; stroke: #1f77b4"/>
     <use xlink:href="#m0bb6d2b3e1" x="704.936335" y="254.943413" style="fill: #1f77b4; stroke: #1f77b4"/>
     <use xlink:href="#m0bb6d2b3e1" x="707.478145" y="255.649447" style="fill: #1f77b4; stroke: #1f77b4"/>
     <use xlink:href="#m0bb6d2b3e1" x="710.019956" y="256.688112" style="fill: #1f77b4; stroke: #1f77b4"/>
     <use xlink:href="#m0bb6d2b3e1" x="712.561766" y="256.001293" style="fill: #1f77b4; stroke: #1f77b4"/>
     <use xlink:href="#m0bb6d2b3e1" x="715.103576" y="256.536578" style="fill: #1f77b4; stroke: #1f77b4"/>
     <use xlink:href="#m0bb6d2b3e1" x="717.645387" y="257.617946" style="fill: #1f77b4; stroke: #1f77b4"/>
     <use xlink:href="#m0bb6d2b3e1" x="720.187197" y="256.96662" style="fill: #1f77b4; stroke: #1f77b4"/>
     <use xlink:href="#m0bb6d2b3e1" x="722.729008" y="256.656608" style="fill: #1f77b4; stroke: #1f77b4"/>
     <use xlink:href="#m0bb6d2b3e1" x="725.270818" y="258.105321" style="fill: #1f77b4; stroke: #1f77b4"/>
     <use xlink:href="#m0bb6d2b3e1" x="727.812628" y="256.652943" style="fill: #1f77b4; stroke: #1f77b4"/>
     <use xlink:href="#m0bb6d2b3e1" x="730.354439" y="257.556024" style="fill: #1f77b4; stroke: #1f77b4"/>
     <use xlink:href="#m0bb6d2b3e1" x="732.896249" y="258.333843" style="fill: #1f77b4; stroke: #1f77b4"/>
     <use xlink:href="#m0bb6d2b3e1" x="735.438059" y="258.070739" style="fill: #1f77b4; stroke: #1f77b4"/>
     <use xlink:href="#m0bb6d2b3e1" x="737.97987" y="258.05509" style="fill: #1f77b4; stroke: #1f77b4"/>
     <use xlink:href="#m0bb6d2b3e1" x="740.52168" y="258.258474" style="fill: #1f77b4; stroke: #1f77b4"/>
     <use xlink:href="#m0bb6d2b3e1" x="743.063491" y="258.351359" style="fill: #1f77b4; stroke: #1f77b4"/>
     <use xlink:href="#m0bb6d2b3e1" x="745.605301" y="258.413533" style="fill: #1f77b4; stroke: #1f77b4"/>
     <use xlink:href="#m0bb6d2b3e1" x="748.147111" y="259.239887" style="fill: #1f77b4; stroke: #1f77b4"/>
     <use xlink:href="#m0bb6d2b3e1" x="750.688922" y="258.66564" style="fill: #1f77b4; stroke: #1f77b4"/>
     <use xlink:href="#m0bb6d2b3e1" x="753.230732" y="258.816416" style="fill: #1f77b4; stroke: #1f77b4"/>
     <use xlink:href="#m0bb6d2b3e1" x="755.772542" y="258.998502" style="fill: #1f77b4; stroke: #1f77b4"/>
     <use xlink:href="#m0bb6d2b3e1" x="758.314353" y="259.501123" style="fill: #1f77b4; stroke: #1f77b4"/>
     <use xlink:href="#m0bb6d2b3e1" x="760.856163" y="260.026702" style="fill: #1f77b4; stroke: #1f77b4"/>
     <use xlink:href="#m0bb6d2b3e1" x="763.397974" y="259.988742" style="fill: #1f77b4; stroke: #1f77b4"/>
     <use xlink:href="#m0bb6d2b3e1" x="765.939784" y="259.627559" style="fill: #1f77b4; stroke: #1f77b4"/>
     <use xlink:href="#m0bb6d2b3e1" x="768.481594" y="260.753002" style="fill: #1f77b4; stroke: #1f77b4"/>
     <use xlink:href="#m0bb6d2b3e1" x="771.023405" y="260.431263" style="fill: #1f77b4; stroke: #1f77b4"/>
     <use xlink:href="#m0bb6d2b3e1" x="773.565215" y="260.876029" style="fill: #1f77b4; stroke: #1f77b4"/>
     <use xlink:href="#m0bb6d2b3e1" x="776.107025" y="260.598885" style="fill: #1f77b4; stroke: #1f77b4"/>
     <use xlink:href="#m0bb6d2b3e1" x="778.648836" y="260.876772" style="fill: #1f77b4; stroke: #1f77b4"/>
     <use xlink:href="#m0bb6d2b3e1" x="781.190646" y="261.188919" style="fill: #1f77b4; stroke: #1f77b4"/>
     <use xlink:href="#m0bb6d2b3e1" x="783.732457" y="261.312951" style="fill: #1f77b4; stroke: #1f77b4"/>
     <use xlink:href="#m0bb6d2b3e1" x="786.274267" y="261.612416" style="fill: #1f77b4; stroke: #1f77b4"/>
     <use xlink:href="#m0bb6d2b3e1" x="788.816077" y="261.748302" style="fill: #1f77b4; stroke: #1f77b4"/>
     <use xlink:href="#m0bb6d2b3e1" x="791.357888" y="261.986985" style="fill: #1f77b4; stroke: #1f77b4"/>
     <use xlink:href="#m0bb6d2b3e1" x="793.899698" y="262.074685" style="fill: #1f77b4; stroke: #1f77b4"/>
     <use xlink:href="#m0bb6d2b3e1" x="796.441508" y="262.86358" style="fill: #1f77b4; stroke: #1f77b4"/>
     <use xlink:href="#m0bb6d2b3e1" x="798.983319" y="261.622881" style="fill: #1f77b4; stroke: #1f77b4"/>
     <use xlink:href="#m0bb6d2b3e1" x="801.525129" y="262.730522" style="fill: #1f77b4; stroke: #1f77b4"/>
    </g>
   </g>
   <g id="line2d_27">
    <path d="M 478.715212 197.590551 
L 481.257022 221.629819 
L 483.798833 219.183898 
L 486.340643 208.41317 
L 488.882453 224.315797 
L 491.424264 226.44564 
L 493.966074 228.830088 
L 496.507884 201.065476 
L 499.049695 225.898083 
L 501.591505 235.934769 
L 504.133316 235.459608 
L 506.675126 234.780513 
L 509.216936 236.291286 
L 511.758747 229.311752 
L 514.300557 232.623125 
L 516.842367 233.782272 
L 519.384178 234.997425 
L 521.925988 233.834023 
L 524.467798 234.100067 
L 527.009609 233.702183 
L 529.551419 236.555432 
L 532.09323 237.561437 
L 534.63504 224.679245 
L 537.17685 232.39386 
L 539.718661 238.263931 
L 542.260471 238.57868 
L 544.802281 240.092103 
L 547.344092 232.679388 
L 549.885902 241.480276 
L 552.427713 238.618147 
L 554.969523 238.228058 
L 557.511333 238.74612 
L 560.053144 235.355601 
L 562.594954 241.857128 
L 565.136764 236.459408 
L 567.678575 232.850259 
L 570.220385 235.675246 
L 572.762196 233.049393 
L 575.304006 239.035334 
L 577.845816 237.938894 
L 580.387627 229.637097 
L 582.929437 236.541554 
L 585.471247 233.98098 
L 588.013058 232.432455 
L 590.554868 237.978691 
L 593.096679 235.591872 
L 595.638489 231.784795 
L 598.180299 230.823317 
L 600.72211 235.467202 
L 603.26392 235.934758 
L 605.80573 233.206329 
L 608.347541 237.258979 
L 610.889351 233.555768 
L 613.431162 234.261397 
L 615.972972 233.069639 
L 618.514782 230.354981 
L 621.056593 239.945569 
L 623.598403 234.381698 
L 626.140213 239.937134 
L 628.682024 239.030845 
L 631.223834 230.756722 
L 633.765645 233.007559 
L 636.307455 231.860418 
L 638.849265 233.205468 
" clip-path="url(#pdee929b367)" style="fill: none; stroke: #ff7f0e; stroke-width: 1.5; stroke-linecap: square"/>
    <defs>
     <path id="m1dda235fa1" d="M 0 3 
C 0.795609 3 1.55874 2.683901 2.12132 2.12132 
C 2.683901 1.55874 3 0.795609 3 0 
C 3 -0.795609 2.683901 -1.55874 2.12132 -2.12132 
C 1.55874 -2.683901 0.795609 -3 0 -3 
C -0.795609 -3 -1.55874 -2.683901 -2.12132 -2.12132 
C -2.683901 -1.55874 -3 -0.795609 -3 0 
C -3 0.795609 -2.683901 1.55874 -2.12132 2.12132 
C -1.55874 2.683901 -0.795609 3 0 3 
z
" style="stroke: #ff7f0e"/>
    </defs>
    <g clip-path="url(#pdee929b367)">
     <use xlink:href="#m1dda235fa1" x="478.715212" y="197.590551" style="fill: #ff7f0e; stroke: #ff7f0e"/>
     <use xlink:href="#m1dda235fa1" x="481.257022" y="221.629819" style="fill: #ff7f0e; stroke: #ff7f0e"/>
     <use xlink:href="#m1dda235fa1" x="483.798833" y="219.183898" style="fill: #ff7f0e; stroke: #ff7f0e"/>
     <use xlink:href="#m1dda235fa1" x="486.340643" y="208.41317" style="fill: #ff7f0e; stroke: #ff7f0e"/>
     <use xlink:href="#m1dda235fa1" x="488.882453" y="224.315797" style="fill: #ff7f0e; stroke: #ff7f0e"/>
     <use xlink:href="#m1dda235fa1" x="491.424264" y="226.44564" style="fill: #ff7f0e; stroke: #ff7f0e"/>
     <use xlink:href="#m1dda235fa1" x="493.966074" y="228.830088" style="fill: #ff7f0e; stroke: #ff7f0e"/>
     <use xlink:href="#m1dda235fa1" x="496.507884" y="201.065476" style="fill: #ff7f0e; stroke: #ff7f0e"/>
     <use xlink:href="#m1dda235fa1" x="499.049695" y="225.898083" style="fill: #ff7f0e; stroke: #ff7f0e"/>
     <use xlink:href="#m1dda235fa1" x="501.591505" y="235.934769" style="fill: #ff7f0e; stroke: #ff7f0e"/>
     <use xlink:href="#m1dda235fa1" x="504.133316" y="235.459608" style="fill: #ff7f0e; stroke: #ff7f0e"/>
     <use xlink:href="#m1dda235fa1" x="506.675126" y="234.780513" style="fill: #ff7f0e; stroke: #ff7f0e"/>
     <use xlink:href="#m1dda235fa1" x="509.216936" y="236.291286" style="fill: #ff7f0e; stroke: #ff7f0e"/>
     <use xlink:href="#m1dda235fa1" x="511.758747" y="229.311752" style="fill: #ff7f0e; stroke: #ff7f0e"/>
     <use xlink:href="#m1dda235fa1" x="514.300557" y="232.623125" style="fill: #ff7f0e; stroke: #ff7f0e"/>
     <use xlink:href="#m1dda235fa1" x="516.842367" y="233.782272" style="fill: #ff7f0e; stroke: #ff7f0e"/>
     <use xlink:href="#m1dda235fa1" x="519.384178" y="234.997425" style="fill: #ff7f0e; stroke: #ff7f0e"/>
     <use xlink:href="#m1dda235fa1" x="521.925988" y="233.834023" style="fill: #ff7f0e; stroke: #ff7f0e"/>
     <use xlink:href="#m1dda235fa1" x="524.467798" y="234.100067" style="fill: #ff7f0e; stroke: #ff7f0e"/>
     <use xlink:href="#m1dda235fa1" x="527.009609" y="233.702183" style="fill: #ff7f0e; stroke: #ff7f0e"/>
     <use xlink:href="#m1dda235fa1" x="529.551419" y="236.555432" style="fill: #ff7f0e; stroke: #ff7f0e"/>
     <use xlink:href="#m1dda235fa1" x="532.09323" y="237.561437" style="fill: #ff7f0e; stroke: #ff7f0e"/>
     <use xlink:href="#m1dda235fa1" x="534.63504" y="224.679245" style="fill: #ff7f0e; stroke: #ff7f0e"/>
     <use xlink:href="#m1dda235fa1" x="537.17685" y="232.39386" style="fill: #ff7f0e; stroke: #ff7f0e"/>
     <use xlink:href="#m1dda235fa1" x="539.718661" y="238.263931" style="fill: #ff7f0e; stroke: #ff7f0e"/>
     <use xlink:href="#m1dda235fa1" x="542.260471" y="238.57868" style="fill: #ff7f0e; stroke: #ff7f0e"/>
     <use xlink:href="#m1dda235fa1" x="544.802281" y="240.092103" style="fill: #ff7f0e; stroke: #ff7f0e"/>
     <use xlink:href="#m1dda235fa1" x="547.344092" y="232.679388" style="fill: #ff7f0e; stroke: #ff7f0e"/>
     <use xlink:href="#m1dda235fa1" x="549.885902" y="241.480276" style="fill: #ff7f0e; stroke: #ff7f0e"/>
     <use xlink:href="#m1dda235fa1" x="552.427713" y="238.618147" style="fill: #ff7f0e; stroke: #ff7f0e"/>
     <use xlink:href="#m1dda235fa1" x="554.969523" y="238.228058" style="fill: #ff7f0e; stroke: #ff7f0e"/>
     <use xlink:href="#m1dda235fa1" x="557.511333" y="238.74612" style="fill: #ff7f0e; stroke: #ff7f0e"/>
     <use xlink:href="#m1dda235fa1" x="560.053144" y="235.355601" style="fill: #ff7f0e; stroke: #ff7f0e"/>
     <use xlink:href="#m1dda235fa1" x="562.594954" y="241.857128" style="fill: #ff7f0e; stroke: #ff7f0e"/>
     <use xlink:href="#m1dda235fa1" x="565.136764" y="236.459408" style="fill: #ff7f0e; stroke: #ff7f0e"/>
     <use xlink:href="#m1dda235fa1" x="567.678575" y="232.850259" style="fill: #ff7f0e; stroke: #ff7f0e"/>
     <use xlink:href="#m1dda235fa1" x="570.220385" y="235.675246" style="fill: #ff7f0e; stroke: #ff7f0e"/>
     <use xlink:href="#m1dda235fa1" x="572.762196" y="233.049393" style="fill: #ff7f0e; stroke: #ff7f0e"/>
     <use xlink:href="#m1dda235fa1" x="575.304006" y="239.035334" style="fill: #ff7f0e; stroke: #ff7f0e"/>
     <use xlink:href="#m1dda235fa1" x="577.845816" y="237.938894" style="fill: #ff7f0e; stroke: #ff7f0e"/>
     <use xlink:href="#m1dda235fa1" x="580.387627" y="229.637097" style="fill: #ff7f0e; stroke: #ff7f0e"/>
     <use xlink:href="#m1dda235fa1" x="582.929437" y="236.541554" style="fill: #ff7f0e; stroke: #ff7f0e"/>
     <use xlink:href="#m1dda235fa1" x="585.471247" y="233.98098" style="fill: #ff7f0e; stroke: #ff7f0e"/>
     <use xlink:href="#m1dda235fa1" x="588.013058" y="232.432455" style="fill: #ff7f0e; stroke: #ff7f0e"/>
     <use xlink:href="#m1dda235fa1" x="590.554868" y="237.978691" style="fill: #ff7f0e; stroke: #ff7f0e"/>
     <use xlink:href="#m1dda235fa1" x="593.096679" y="235.591872" style="fill: #ff7f0e; stroke: #ff7f0e"/>
     <use xlink:href="#m1dda235fa1" x="595.638489" y="231.784795" style="fill: #ff7f0e; stroke: #ff7f0e"/>
     <use xlink:href="#m1dda235fa1" x="598.180299" y="230.823317" style="fill: #ff7f0e; stroke: #ff7f0e"/>
     <use xlink:href="#m1dda235fa1" x="600.72211" y="235.467202" style="fill: #ff7f0e; stroke: #ff7f0e"/>
     <use xlink:href="#m1dda235fa1" x="603.26392" y="235.934758" style="fill: #ff7f0e; stroke: #ff7f0e"/>
     <use xlink:href="#m1dda235fa1" x="605.80573" y="233.206329" style="fill: #ff7f0e; stroke: #ff7f0e"/>
     <use xlink:href="#m1dda235fa1" x="608.347541" y="237.258979" style="fill: #ff7f0e; stroke: #ff7f0e"/>
     <use xlink:href="#m1dda235fa1" x="610.889351" y="233.555768" style="fill: #ff7f0e; stroke: #ff7f0e"/>
     <use xlink:href="#m1dda235fa1" x="613.431162" y="234.261397" style="fill: #ff7f0e; stroke: #ff7f0e"/>
     <use xlink:href="#m1dda235fa1" x="615.972972" y="233.069639" style="fill: #ff7f0e; stroke: #ff7f0e"/>
     <use xlink:href="#m1dda235fa1" x="618.514782" y="230.354981" style="fill: #ff7f0e; stroke: #ff7f0e"/>
     <use xlink:href="#m1dda235fa1" x="621.056593" y="239.945569" style="fill: #ff7f0e; stroke: #ff7f0e"/>
     <use xlink:href="#m1dda235fa1" x="623.598403" y="234.381698" style="fill: #ff7f0e; stroke: #ff7f0e"/>
     <use xlink:href="#m1dda235fa1" x="626.140213" y="239.937134" style="fill: #ff7f0e; stroke: #ff7f0e"/>
     <use xlink:href="#m1dda235fa1" x="628.682024" y="239.030845" style="fill: #ff7f0e; stroke: #ff7f0e"/>
     <use xlink:href="#m1dda235fa1" x="631.223834" y="230.756722" style="fill: #ff7f0e; stroke: #ff7f0e"/>
     <use xlink:href="#m1dda235fa1" x="633.765645" y="233.007559" style="fill: #ff7f0e; stroke: #ff7f0e"/>
     <use xlink:href="#m1dda235fa1" x="636.307455" y="231.860418" style="fill: #ff7f0e; stroke: #ff7f0e"/>
     <use xlink:href="#m1dda235fa1" x="638.849265" y="233.205468" style="fill: #ff7f0e; stroke: #ff7f0e"/>
    </g>
   </g>
   <g id="patch_8">
    <path d="M 462.574716 274.318125 
L 462.574716 22.318125 
" style="fill: none; stroke: #000000; stroke-width: 0.8; stroke-linejoin: miter; stroke-linecap: square"/>
   </g>
   <g id="patch_9">
    <path d="M 817.665625 274.318125 
L 817.665625 22.318125 
" style="fill: none; stroke: #000000; stroke-width: 0.8; stroke-linejoin: miter; stroke-linecap: square"/>
   </g>
   <g id="patch_10">
    <path d="M 462.574716 274.318125 
L 817.665625 274.318125 
" style="fill: none; stroke: #000000; stroke-width: 0.8; stroke-linejoin: miter; stroke-linecap: square"/>
   </g>
   <g id="patch_11">
    <path d="M 462.574716 22.318125 
L 817.665625 22.318125 
" style="fill: none; stroke: #000000; stroke-width: 0.8; stroke-linejoin: miter; stroke-linecap: square"/>
   </g>
   <g id="text_28">
    <!-- epochs loss for train and valid -->
    <g transform="translate(549.72267 16.318125)scale(0.12 -0.12)">
     <defs>
      <path id="DejaVuSans-66" d="M 2375 4863 
L 2375 4384 
L 1825 4384 
Q 1516 4384 1395 4259 
Q 1275 4134 1275 3809 
L 1275 3500 
L 2222 3500 
L 2222 3053 
L 1275 3053 
L 1275 0 
L 697 0 
L 697 3053 
L 147 3053 
L 147 3500 
L 697 3500 
L 697 3744 
Q 697 4328 969 4595 
Q 1241 4863 1831 4863 
L 2375 4863 
z
" transform="scale(0.015625)"/>
      <path id="DejaVuSans-64" d="M 2906 2969 
L 2906 4863 
L 3481 4863 
L 3481 0 
L 2906 0 
L 2906 525 
Q 2725 213 2448 61 
Q 2172 -91 1784 -91 
Q 1150 -91 751 415 
Q 353 922 353 1747 
Q 353 2572 751 3078 
Q 1150 3584 1784 3584 
Q 2172 3584 2448 3432 
Q 2725 3281 2906 2969 
z
M 947 1747 
Q 947 1113 1208 752 
Q 1469 391 1925 391 
Q 2381 391 2643 752 
Q 2906 1113 2906 1747 
Q 2906 2381 2643 2742 
Q 2381 3103 1925 3103 
Q 1469 3103 1208 2742 
Q 947 2381 947 1747 
z
" transform="scale(0.015625)"/>
      <path id="DejaVuSans-76" d="M 191 3500 
L 800 3500 
L 1894 563 
L 2988 3500 
L 3597 3500 
L 2284 0 
L 1503 0 
L 191 3500 
z
" transform="scale(0.015625)"/>
     </defs>
     <use xlink:href="#DejaVuSans-65"/>
     <use xlink:href="#DejaVuSans-70" x="61.523438"/>
     <use xlink:href="#DejaVuSans-6f" x="125"/>
     <use xlink:href="#DejaVuSans-63" x="186.181641"/>
     <use xlink:href="#DejaVuSans-68" x="241.162109"/>
     <use xlink:href="#DejaVuSans-73" x="304.541016"/>
     <use xlink:href="#DejaVuSans-20" x="356.640625"/>
     <use xlink:href="#DejaVuSans-6c" x="388.427734"/>
     <use xlink:href="#DejaVuSans-6f" x="416.210938"/>
     <use xlink:href="#DejaVuSans-73" x="477.392578"/>
     <use xlink:href="#DejaVuSans-73" x="529.492188"/>
     <use xlink:href="#DejaVuSans-20" x="581.591797"/>
     <use xlink:href="#DejaVuSans-66" x="613.378906"/>
     <use xlink:href="#DejaVuSans-6f" x="648.583984"/>
     <use xlink:href="#DejaVuSans-72" x="709.765625"/>
     <use xlink:href="#DejaVuSans-20" x="750.878906"/>
     <use xlink:href="#DejaVuSans-74" x="782.666016"/>
     <use xlink:href="#DejaVuSans-72" x="821.875"/>
     <use xlink:href="#DejaVuSans-61" x="862.988281"/>
     <use xlink:href="#DejaVuSans-69" x="924.267578"/>
     <use xlink:href="#DejaVuSans-6e" x="952.050781"/>
     <use xlink:href="#DejaVuSans-20" x="1015.429688"/>
     <use xlink:href="#DejaVuSans-61" x="1047.216797"/>
     <use xlink:href="#DejaVuSans-6e" x="1108.496094"/>
     <use xlink:href="#DejaVuSans-64" x="1171.875"/>
     <use xlink:href="#DejaVuSans-20" x="1235.351562"/>
     <use xlink:href="#DejaVuSans-76" x="1267.138672"/>
     <use xlink:href="#DejaVuSans-61" x="1326.318359"/>
     <use xlink:href="#DejaVuSans-6c" x="1387.597656"/>
     <use xlink:href="#DejaVuSans-69" x="1415.380859"/>
     <use xlink:href="#DejaVuSans-64" x="1443.164062"/>
    </g>
   </g>
   <g id="legend_1">
    <g id="patch_12">
     <path d="M 730.398438 60.230625 
L 810.665625 60.230625 
Q 812.665625 60.230625 812.665625 58.230625 
L 812.665625 29.318125 
Q 812.665625 27.318125 810.665625 27.318125 
L 730.398438 27.318125 
Q 728.398438 27.318125 728.398438 29.318125 
L 728.398438 58.230625 
Q 728.398438 60.230625 730.398438 60.230625 
z
" style="fill: #ffffff; opacity: 0.8; stroke: #cccccc; stroke-linejoin: miter"/>
    </g>
    <g id="line2d_28">
     <path d="M 732.398438 35.416562 
L 742.398438 35.416562 
L 752.398438 35.416562 
" style="fill: none; stroke: #1f77b4; stroke-width: 1.5; stroke-linecap: square"/>
     <g>
      <use xlink:href="#m0bb6d2b3e1" x="742.398438" y="35.416562" style="fill: #1f77b4; stroke: #1f77b4"/>
     </g>
    </g>
    <g id="text_29">
     <!-- train_loss -->
     <g transform="translate(760.398438 38.916562)scale(0.1 -0.1)">
      <defs>
       <path id="DejaVuSans-5f" d="M 3263 -1063 
L 3263 -1509 
L -63 -1509 
L -63 -1063 
L 3263 -1063 
z
" transform="scale(0.015625)"/>
      </defs>
      <use xlink:href="#DejaVuSans-74"/>
      <use xlink:href="#DejaVuSans-72" x="39.208984"/>
      <use xlink:href="#DejaVuSans-61" x="80.322266"/>
      <use xlink:href="#DejaVuSans-69" x="141.601562"/>
      <use xlink:href="#DejaVuSans-6e" x="169.384766"/>
      <use xlink:href="#DejaVuSans-5f" x="232.763672"/>
      <use xlink:href="#DejaVuSans-6c" x="282.763672"/>
      <use xlink:href="#DejaVuSans-6f" x="310.546875"/>
      <use xlink:href="#DejaVuSans-73" x="371.728516"/>
      <use xlink:href="#DejaVuSans-73" x="423.828125"/>
     </g>
    </g>
    <g id="line2d_29">
     <path d="M 732.398438 50.372812 
L 742.398438 50.372812 
L 752.398438 50.372812 
" style="fill: none; stroke: #ff7f0e; stroke-width: 1.5; stroke-linecap: square"/>
     <g>
      <use xlink:href="#m1dda235fa1" x="742.398438" y="50.372812" style="fill: #ff7f0e; stroke: #ff7f0e"/>
     </g>
    </g>
    <g id="text_30">
     <!-- valid_loss -->
     <g transform="translate(760.398438 53.872812)scale(0.1 -0.1)">
      <use xlink:href="#DejaVuSans-76"/>
      <use xlink:href="#DejaVuSans-61" x="59.179688"/>
      <use xlink:href="#DejaVuSans-6c" x="120.458984"/>
      <use xlink:href="#DejaVuSans-69" x="148.242188"/>
      <use xlink:href="#DejaVuSans-64" x="176.025391"/>
      <use xlink:href="#DejaVuSans-5f" x="239.501953"/>
      <use xlink:href="#DejaVuSans-6c" x="289.501953"/>
      <use xlink:href="#DejaVuSans-6f" x="317.285156"/>
      <use xlink:href="#DejaVuSans-73" x="378.466797"/>
      <use xlink:href="#DejaVuSans-73" x="430.566406"/>
     </g>
    </g>
   </g>
  </g>
 </g>
 <defs>
  <clipPath id="pfcaf8e1dd6">
   <rect x="36.465625" y="22.318125" width="355.090909" height="252"/>
  </clipPath>
  <clipPath id="pdee929b367">
   <rect x="462.574716" y="22.318125" width="355.090909" height="252"/>
  </clipPath>
 </defs>
</svg>
