<?xml version="1.0" encoding="utf-8" standalone="no"?>
<!DOCTYPE svg PUBLIC "-//W3C//DTD SVG 1.1//EN"
  "http://www.w3.org/Graphics/SVG/1.1/DTD/svg11.dtd">
<svg xmlns:xlink="http://www.w3.org/1999/xlink" width="831.228125pt" height="311.874375pt" viewBox="0 0 831.228125 311.874375" xmlns="http://www.w3.org/2000/svg" version="1.1">
 <metadata>
  <rdf:RDF xmlns:dc="http://purl.org/dc/elements/1.1/" xmlns:cc="http://creativecommons.org/ns#" xmlns:rdf="http://www.w3.org/1999/02/22-rdf-syntax-ns#">
   <cc:Work>
    <dc:type rdf:resource="http://purl.org/dc/dcmitype/StillImage"/>
    <dc:date>2024-01-02T11:26:06.916602</dc:date>
    <dc:format>image/svg+xml</dc:format>
    <dc:creator>
     <cc:Agent>
      <dc:title>Matplotlib v3.5.2, https://matplotlib.org/</dc:title>
     </cc:Agent>
    </dc:creator>
   </cc:Work>
  </rdf:RDF>
 </metadata>
 <defs>
  <style type="text/css">*{stroke-linejoin: round; stroke-linecap: butt}</style>
 </defs>
 <g id="figure_1">
  <g id="patch_1">
   <path d="M 0 311.874375 
L 831.228125 311.874375 
L 831.228125 0 
L 0 0 
z
" style="fill: #ffffff"/>
  </g>
  <g id="axes_1">
   <g id="patch_2">
    <path d="M 42.828125 274.318125 
L 397.919034 274.318125 
L 397.919034 22.318125 
L 42.828125 22.318125 
z
" style="fill: #ffffff"/>
   </g>
   <g id="matplotlib.axis_1">
    <g id="xtick_1">
     <g id="line2d_1">
      <defs>
       <path id="mc51f8a84f7" d="M 0 0 
L 0 3.5 
" style="stroke: #000000; stroke-width: 0.8"/>
      </defs>
      <g>
       <use xlink:href="#mc51f8a84f7" x="58.968621" y="274.318125" style="stroke: #000000; stroke-width: 0.8"/>
      </g>
     </g>
     <g id="text_1">
      <!-- 0 -->
      <g transform="translate(55.787371 288.916562)scale(0.1 -0.1)">
       <defs>
        <path id="DejaVuSans-30" d="M 2034 4250 
Q 1547 4250 1301 3770 
Q 1056 3291 1056 2328 
Q 1056 1369 1301 889 
Q 1547 409 2034 409 
Q 2525 409 2770 889 
Q 3016 1369 3016 2328 
Q 3016 3291 2770 3770 
Q 2525 4250 2034 4250 
z
M 2034 4750 
Q 2819 4750 3233 4129 
Q 3647 3509 3647 2328 
Q 3647 1150 3233 529 
Q 2819 -91 2034 -91 
Q 1250 -91 836 529 
Q 422 1150 422 2328 
Q 422 3509 836 4129 
Q 1250 4750 2034 4750 
z
" transform="scale(0.015625)"/>
       </defs>
       <use xlink:href="#DejaVuSans-30"/>
      </g>
     </g>
    </g>
    <g id="xtick_2">
     <g id="line2d_2">
      <g>
       <use xlink:href="#mc51f8a84f7" x="113.222388" y="274.318125" style="stroke: #000000; stroke-width: 0.8"/>
      </g>
     </g>
     <g id="text_2">
      <!-- 20 -->
      <g transform="translate(106.859888 288.916562)scale(0.1 -0.1)">
       <defs>
        <path id="DejaVuSans-32" d="M 1228 531 
L 3431 531 
L 3431 0 
L 469 0 
L 469 531 
Q 828 903 1448 1529 
Q 2069 2156 2228 2338 
Q 2531 2678 2651 2914 
Q 2772 3150 2772 3378 
Q 2772 3750 2511 3984 
Q 2250 4219 1831 4219 
Q 1534 4219 1204 4116 
Q 875 4013 500 3803 
L 500 4441 
Q 881 4594 1212 4672 
Q 1544 4750 1819 4750 
Q 2544 4750 2975 4387 
Q 3406 4025 3406 3419 
Q 3406 3131 3298 2873 
Q 3191 2616 2906 2266 
Q 2828 2175 2409 1742 
Q 1991 1309 1228 531 
z
" transform="scale(0.015625)"/>
       </defs>
       <use xlink:href="#DejaVuSans-32"/>
       <use xlink:href="#DejaVuSans-30" x="63.623047"/>
      </g>
     </g>
    </g>
    <g id="xtick_3">
     <g id="line2d_3">
      <g>
       <use xlink:href="#mc51f8a84f7" x="167.476156" y="274.318125" style="stroke: #000000; stroke-width: 0.8"/>
      </g>
     </g>
     <g id="text_3">
      <!-- 40 -->
      <g transform="translate(161.113656 288.916562)scale(0.1 -0.1)">
       <defs>
        <path id="DejaVuSans-34" d="M 2419 4116 
L 825 1625 
L 2419 1625 
L 2419 4116 
z
M 2253 4666 
L 3047 4666 
L 3047 1625 
L 3713 1625 
L 3713 1100 
L 3047 1100 
L 3047 0 
L 2419 0 
L 2419 1100 
L 313 1100 
L 313 1709 
L 2253 4666 
z
" transform="scale(0.015625)"/>
       </defs>
       <use xlink:href="#DejaVuSans-34"/>
       <use xlink:href="#DejaVuSans-30" x="63.623047"/>
      </g>
     </g>
    </g>
    <g id="xtick_4">
     <g id="line2d_4">
      <g>
       <use xlink:href="#mc51f8a84f7" x="221.729924" y="274.318125" style="stroke: #000000; stroke-width: 0.8"/>
      </g>
     </g>
     <g id="text_4">
      <!-- 60 -->
      <g transform="translate(215.367424 288.916562)scale(0.1 -0.1)">
       <defs>
        <path id="DejaVuSans-36" d="M 2113 2584 
Q 1688 2584 1439 2293 
Q 1191 2003 1191 1497 
Q 1191 994 1439 701 
Q 1688 409 2113 409 
Q 2538 409 2786 701 
Q 3034 994 3034 1497 
Q 3034 2003 2786 2293 
Q 2538 2584 2113 2584 
z
M 3366 4563 
L 3366 3988 
Q 3128 4100 2886 4159 
Q 2644 4219 2406 4219 
Q 1781 4219 1451 3797 
Q 1122 3375 1075 2522 
Q 1259 2794 1537 2939 
Q 1816 3084 2150 3084 
Q 2853 3084 3261 2657 
Q 3669 2231 3669 1497 
Q 3669 778 3244 343 
Q 2819 -91 2113 -91 
Q 1303 -91 875 529 
Q 447 1150 447 2328 
Q 447 3434 972 4092 
Q 1497 4750 2381 4750 
Q 2619 4750 2861 4703 
Q 3103 4656 3366 4563 
z
" transform="scale(0.015625)"/>
       </defs>
       <use xlink:href="#DejaVuSans-36"/>
       <use xlink:href="#DejaVuSans-30" x="63.623047"/>
      </g>
     </g>
    </g>
    <g id="xtick_5">
     <g id="line2d_5">
      <g>
       <use xlink:href="#mc51f8a84f7" x="275.983691" y="274.318125" style="stroke: #000000; stroke-width: 0.8"/>
      </g>
     </g>
     <g id="text_5">
      <!-- 80 -->
      <g transform="translate(269.621191 288.916562)scale(0.1 -0.1)">
       <defs>
        <path id="DejaVuSans-38" d="M 2034 2216 
Q 1584 2216 1326 1975 
Q 1069 1734 1069 1313 
Q 1069 891 1326 650 
Q 1584 409 2034 409 
Q 2484 409 2743 651 
Q 3003 894 3003 1313 
Q 3003 1734 2745 1975 
Q 2488 2216 2034 2216 
z
M 1403 2484 
Q 997 2584 770 2862 
Q 544 3141 544 3541 
Q 544 4100 942 4425 
Q 1341 4750 2034 4750 
Q 2731 4750 3128 4425 
Q 3525 4100 3525 3541 
Q 3525 3141 3298 2862 
Q 3072 2584 2669 2484 
Q 3125 2378 3379 2068 
Q 3634 1759 3634 1313 
Q 3634 634 3220 271 
Q 2806 -91 2034 -91 
Q 1263 -91 848 271 
Q 434 634 434 1313 
Q 434 1759 690 2068 
Q 947 2378 1403 2484 
z
M 1172 3481 
Q 1172 3119 1398 2916 
Q 1625 2713 2034 2713 
Q 2441 2713 2670 2916 
Q 2900 3119 2900 3481 
Q 2900 3844 2670 4047 
Q 2441 4250 2034 4250 
Q 1625 4250 1398 4047 
Q 1172 3844 1172 3481 
z
" transform="scale(0.015625)"/>
       </defs>
       <use xlink:href="#DejaVuSans-38"/>
       <use xlink:href="#DejaVuSans-30" x="63.623047"/>
      </g>
     </g>
    </g>
    <g id="xtick_6">
     <g id="line2d_6">
      <g>
       <use xlink:href="#mc51f8a84f7" x="330.237459" y="274.318125" style="stroke: #000000; stroke-width: 0.8"/>
      </g>
     </g>
     <g id="text_6">
      <!-- 100 -->
      <g transform="translate(320.693709 288.916562)scale(0.1 -0.1)">
       <defs>
        <path id="DejaVuSans-31" d="M 794 531 
L 1825 531 
L 1825 4091 
L 703 3866 
L 703 4441 
L 1819 4666 
L 2450 4666 
L 2450 531 
L 3481 531 
L 3481 0 
L 794 0 
L 794 531 
z
" transform="scale(0.015625)"/>
       </defs>
       <use xlink:href="#DejaVuSans-31"/>
       <use xlink:href="#DejaVuSans-30" x="63.623047"/>
       <use xlink:href="#DejaVuSans-30" x="127.246094"/>
      </g>
     </g>
    </g>
    <g id="xtick_7">
     <g id="line2d_7">
      <g>
       <use xlink:href="#mc51f8a84f7" x="384.491227" y="274.318125" style="stroke: #000000; stroke-width: 0.8"/>
      </g>
     </g>
     <g id="text_7">
      <!-- 120 -->
      <g transform="translate(374.947477 288.916562)scale(0.1 -0.1)">
       <use xlink:href="#DejaVuSans-31"/>
       <use xlink:href="#DejaVuSans-32" x="63.623047"/>
       <use xlink:href="#DejaVuSans-30" x="127.246094"/>
      </g>
     </g>
    </g>
    <g id="text_8">
     <!-- epoch -->
     <g transform="translate(205.145455 302.594687)scale(0.1 -0.1)">
      <defs>
       <path id="DejaVuSans-65" d="M 3597 1894 
L 3597 1613 
L 953 1613 
Q 991 1019 1311 708 
Q 1631 397 2203 397 
Q 2534 397 2845 478 
Q 3156 559 3463 722 
L 3463 178 
Q 3153 47 2828 -22 
Q 2503 -91 2169 -91 
Q 1331 -91 842 396 
Q 353 884 353 1716 
Q 353 2575 817 3079 
Q 1281 3584 2069 3584 
Q 2775 3584 3186 3129 
Q 3597 2675 3597 1894 
z
M 3022 2063 
Q 3016 2534 2758 2815 
Q 2500 3097 2075 3097 
Q 1594 3097 1305 2825 
Q 1016 2553 972 2059 
L 3022 2063 
z
" transform="scale(0.015625)"/>
       <path id="DejaVuSans-70" d="M 1159 525 
L 1159 -1331 
L 581 -1331 
L 581 3500 
L 1159 3500 
L 1159 2969 
Q 1341 3281 1617 3432 
Q 1894 3584 2278 3584 
Q 2916 3584 3314 3078 
Q 3713 2572 3713 1747 
Q 3713 922 3314 415 
Q 2916 -91 2278 -91 
Q 1894 -91 1617 61 
Q 1341 213 1159 525 
z
M 3116 1747 
Q 3116 2381 2855 2742 
Q 2594 3103 2138 3103 
Q 1681 3103 1420 2742 
Q 1159 2381 1159 1747 
Q 1159 1113 1420 752 
Q 1681 391 2138 391 
Q 2594 391 2855 752 
Q 3116 1113 3116 1747 
z
" transform="scale(0.015625)"/>
       <path id="DejaVuSans-6f" d="M 1959 3097 
Q 1497 3097 1228 2736 
Q 959 2375 959 1747 
Q 959 1119 1226 758 
Q 1494 397 1959 397 
Q 2419 397 2687 759 
Q 2956 1122 2956 1747 
Q 2956 2369 2687 2733 
Q 2419 3097 1959 3097 
z
M 1959 3584 
Q 2709 3584 3137 3096 
Q 3566 2609 3566 1747 
Q 3566 888 3137 398 
Q 2709 -91 1959 -91 
Q 1206 -91 779 398 
Q 353 888 353 1747 
Q 353 2609 779 3096 
Q 1206 3584 1959 3584 
z
" transform="scale(0.015625)"/>
       <path id="DejaVuSans-63" d="M 3122 3366 
L 3122 2828 
Q 2878 2963 2633 3030 
Q 2388 3097 2138 3097 
Q 1578 3097 1268 2742 
Q 959 2388 959 1747 
Q 959 1106 1268 751 
Q 1578 397 2138 397 
Q 2388 397 2633 464 
Q 2878 531 3122 666 
L 3122 134 
Q 2881 22 2623 -34 
Q 2366 -91 2075 -91 
Q 1284 -91 818 406 
Q 353 903 353 1747 
Q 353 2603 823 3093 
Q 1294 3584 2113 3584 
Q 2378 3584 2631 3529 
Q 2884 3475 3122 3366 
z
" transform="scale(0.015625)"/>
       <path id="DejaVuSans-68" d="M 3513 2113 
L 3513 0 
L 2938 0 
L 2938 2094 
Q 2938 2591 2744 2837 
Q 2550 3084 2163 3084 
Q 1697 3084 1428 2787 
Q 1159 2491 1159 1978 
L 1159 0 
L 581 0 
L 581 4863 
L 1159 4863 
L 1159 2956 
Q 1366 3272 1645 3428 
Q 1925 3584 2291 3584 
Q 2894 3584 3203 3211 
Q 3513 2838 3513 2113 
z
" transform="scale(0.015625)"/>
      </defs>
      <use xlink:href="#DejaVuSans-65"/>
      <use xlink:href="#DejaVuSans-70" x="61.523438"/>
      <use xlink:href="#DejaVuSans-6f" x="125"/>
      <use xlink:href="#DejaVuSans-63" x="186.181641"/>
      <use xlink:href="#DejaVuSans-68" x="241.162109"/>
     </g>
    </g>
   </g>
   <g id="matplotlib.axis_2">
    <g id="ytick_1">
     <g id="line2d_8">
      <defs>
       <path id="m1cc47b86be" d="M 0 0 
L -3.5 0 
" style="stroke: #000000; stroke-width: 0.8"/>
      </defs>
      <g>
       <use xlink:href="#m1cc47b86be" x="42.828125" y="252.444405" style="stroke: #000000; stroke-width: 0.8"/>
      </g>
     </g>
     <g id="text_9">
      <!-- 0.100 -->
      <g transform="translate(7.2 256.243624)scale(0.1 -0.1)">
       <defs>
        <path id="DejaVuSans-2e" d="M 684 794 
L 1344 794 
L 1344 0 
L 684 0 
L 684 794 
z
" transform="scale(0.015625)"/>
       </defs>
       <use xlink:href="#DejaVuSans-30"/>
       <use xlink:href="#DejaVuSans-2e" x="63.623047"/>
       <use xlink:href="#DejaVuSans-31" x="95.410156"/>
       <use xlink:href="#DejaVuSans-30" x="159.033203"/>
       <use xlink:href="#DejaVuSans-30" x="222.65625"/>
      </g>
     </g>
    </g>
    <g id="ytick_2">
     <g id="line2d_9">
      <g>
       <use xlink:href="#m1cc47b86be" x="42.828125" y="213.461138" style="stroke: #000000; stroke-width: 0.8"/>
      </g>
     </g>
     <g id="text_10">
      <!-- 0.105 -->
      <g transform="translate(7.2 217.260357)scale(0.1 -0.1)">
       <defs>
        <path id="DejaVuSans-35" d="M 691 4666 
L 3169 4666 
L 3169 4134 
L 1269 4134 
L 1269 2991 
Q 1406 3038 1543 3061 
Q 1681 3084 1819 3084 
Q 2600 3084 3056 2656 
Q 3513 2228 3513 1497 
Q 3513 744 3044 326 
Q 2575 -91 1722 -91 
Q 1428 -91 1123 -41 
Q 819 9 494 109 
L 494 744 
Q 775 591 1075 516 
Q 1375 441 1709 441 
Q 2250 441 2565 725 
Q 2881 1009 2881 1497 
Q 2881 1984 2565 2268 
Q 2250 2553 1709 2553 
Q 1456 2553 1204 2497 
Q 953 2441 691 2322 
L 691 4666 
z
" transform="scale(0.015625)"/>
       </defs>
       <use xlink:href="#DejaVuSans-30"/>
       <use xlink:href="#DejaVuSans-2e" x="63.623047"/>
       <use xlink:href="#DejaVuSans-31" x="95.410156"/>
       <use xlink:href="#DejaVuSans-30" x="159.033203"/>
       <use xlink:href="#DejaVuSans-35" x="222.65625"/>
      </g>
     </g>
    </g>
    <g id="ytick_3">
     <g id="line2d_10">
      <g>
       <use xlink:href="#m1cc47b86be" x="42.828125" y="174.477871" style="stroke: #000000; stroke-width: 0.8"/>
      </g>
     </g>
     <g id="text_11">
      <!-- 0.110 -->
      <g transform="translate(7.2 178.27709)scale(0.1 -0.1)">
       <use xlink:href="#DejaVuSans-30"/>
       <use xlink:href="#DejaVuSans-2e" x="63.623047"/>
       <use xlink:href="#DejaVuSans-31" x="95.410156"/>
       <use xlink:href="#DejaVuSans-31" x="159.033203"/>
       <use xlink:href="#DejaVuSans-30" x="222.65625"/>
      </g>
     </g>
    </g>
    <g id="ytick_4">
     <g id="line2d_11">
      <g>
       <use xlink:href="#m1cc47b86be" x="42.828125" y="135.494605" style="stroke: #000000; stroke-width: 0.8"/>
      </g>
     </g>
     <g id="text_12">
      <!-- 0.115 -->
      <g transform="translate(7.2 139.293823)scale(0.1 -0.1)">
       <use xlink:href="#DejaVuSans-30"/>
       <use xlink:href="#DejaVuSans-2e" x="63.623047"/>
       <use xlink:href="#DejaVuSans-31" x="95.410156"/>
       <use xlink:href="#DejaVuSans-31" x="159.033203"/>
       <use xlink:href="#DejaVuSans-35" x="222.65625"/>
      </g>
     </g>
    </g>
    <g id="ytick_5">
     <g id="line2d_12">
      <g>
       <use xlink:href="#m1cc47b86be" x="42.828125" y="96.511338" style="stroke: #000000; stroke-width: 0.8"/>
      </g>
     </g>
     <g id="text_13">
      <!-- 0.120 -->
      <g transform="translate(7.2 100.310557)scale(0.1 -0.1)">
       <use xlink:href="#DejaVuSans-30"/>
       <use xlink:href="#DejaVuSans-2e" x="63.623047"/>
       <use xlink:href="#DejaVuSans-31" x="95.410156"/>
       <use xlink:href="#DejaVuSans-32" x="159.033203"/>
       <use xlink:href="#DejaVuSans-30" x="222.65625"/>
      </g>
     </g>
    </g>
    <g id="ytick_6">
     <g id="line2d_13">
      <g>
       <use xlink:href="#m1cc47b86be" x="42.828125" y="57.528071" style="stroke: #000000; stroke-width: 0.8"/>
      </g>
     </g>
     <g id="text_14">
      <!-- 0.125 -->
      <g transform="translate(7.2 61.32729)scale(0.1 -0.1)">
       <use xlink:href="#DejaVuSans-30"/>
       <use xlink:href="#DejaVuSans-2e" x="63.623047"/>
       <use xlink:href="#DejaVuSans-31" x="95.410156"/>
       <use xlink:href="#DejaVuSans-32" x="159.033203"/>
       <use xlink:href="#DejaVuSans-35" x="222.65625"/>
      </g>
     </g>
    </g>
   </g>
   <g id="line2d_14">
    <path d="M 58.968621 33.77267 
L 61.681309 127.620979 
L 64.393998 148.461534 
L 67.106686 158.534165 
L 69.819374 167.648719 
L 72.532063 173.58641 
L 75.244751 178.096131 
L 77.95744 182.907105 
L 80.670128 185.608204 
L 83.382816 188.022267 
L 86.095505 191.829874 
L 88.808193 194.961189 
L 91.520881 195.948538 
L 94.23357 197.44395 
L 96.946258 199.336553 
L 99.658947 201.567828 
L 102.371635 203.601606 
L 105.084323 205.209523 
L 107.797012 206.925816 
L 110.5097 207.82264 
L 113.222388 208.684963 
L 115.935077 209.877853 
L 118.647765 210.331352 
L 121.360454 212.379028 
L 124.073142 213.641433 
L 126.78583 214.087992 
L 129.498519 216.145187 
L 132.211207 217.613846 
L 134.923896 217.849947 
L 137.636584 217.936611 
L 140.349272 220.432989 
L 143.061961 221.269666 
L 145.774649 221.146499 
L 148.487337 221.371424 
L 151.200026 223.615392 
L 153.912714 223.513568 
L 156.625403 225.14169 
L 159.338091 224.951183 
L 162.050779 225.569436 
L 164.763468 226.990998 
L 167.476156 227.549673 
L 170.188844 227.732396 
L 172.901533 228.859609 
L 175.614221 230.05344 
L 178.32691 229.800015 
L 181.039598 231.378108 
L 183.752286 231.51731 
L 186.464975 232.683167 
L 189.177663 233.134092 
L 191.890352 233.38598 
L 194.60304 233.708798 
L 197.315728 233.449029 
L 200.028417 234.770057 
L 202.741105 236.022921 
L 205.453793 236.504131 
L 208.166482 237.512752 
L 210.87917 236.435565 
L 213.591859 237.336731 
L 216.304547 237.963844 
L 219.017235 237.889802 
L 221.729924 240.44892 
L 224.442612 239.902484 
L 227.1553 240.431695 
L 229.867989 240.821083 
L 232.580677 241.674976 
L 235.293366 241.997939 
L 238.006054 242.11038 
L 240.718742 243.030955 
L 243.431431 243.332786 
L 246.144119 243.051178 
L 248.856808 243.448618 
L 251.569496 244.154818 
L 254.282184 244.212038 
L 256.994873 245.349218 
L 259.707561 245.455482 
L 262.420249 246.818703 
L 265.132938 247.411672 
L 267.845626 246.758512 
L 270.558315 248.535216 
L 273.271003 247.470785 
L 275.983691 248.760185 
L 278.69638 248.843511 
L 281.409068 248.672583 
L 284.121757 249.374138 
L 286.834445 249.457177 
L 289.547133 250.019364 
L 292.259822 250.01167 
L 294.97251 250.601894 
L 297.685198 251.172827 
L 300.397887 251.697172 
L 303.110575 250.297291 
L 305.823264 252.516609 
L 308.535952 253.938947 
L 311.24864 253.174351 
L 313.961329 254.292388 
L 316.674017 253.860933 
L 319.386705 254.664986 
L 322.099394 254.47905 
L 324.812082 255.974786 
L 327.524771 256.176233 
L 330.237459 257.304599 
L 332.950147 256.217496 
L 335.662836 256.778405 
L 338.375524 257.44728 
L 341.088213 257.343435 
L 343.800901 258.116983 
L 346.513589 257.818008 
L 349.226278 259.556878 
L 351.938966 258.577006 
L 354.651654 259.376223 
L 357.364343 259.662235 
L 360.077031 260.681459 
L 362.78972 261.03673 
L 365.502408 260.255432 
L 368.215096 261.040456 
L 370.927785 260.889743 
L 373.640473 261.804258 
L 376.353161 262.606872 
L 379.06585 262.70177 
L 381.778538 262.86358 
" clip-path="url(#pe4e7ad84b7)" style="fill: none; stroke: #1f77b4; stroke-width: 1.5; stroke-linecap: square"/>
   </g>
   <g id="patch_3">
    <path d="M 42.828125 274.318125 
L 42.828125 22.318125 
" style="fill: none; stroke: #000000; stroke-width: 0.8; stroke-linejoin: miter; stroke-linecap: square"/>
   </g>
   <g id="patch_4">
    <path d="M 397.919034 274.318125 
L 397.919034 22.318125 
" style="fill: none; stroke: #000000; stroke-width: 0.8; stroke-linejoin: miter; stroke-linecap: square"/>
   </g>
   <g id="patch_5">
    <path d="M 42.828125 274.318125 
L 397.919034 274.318125 
" style="fill: none; stroke: #000000; stroke-width: 0.8; stroke-linejoin: miter; stroke-linecap: square"/>
   </g>
   <g id="patch_6">
    <path d="M 42.828125 22.318125 
L 397.919034 22.318125 
" style="fill: none; stroke: #000000; stroke-width: 0.8; stroke-linejoin: miter; stroke-linecap: square"/>
   </g>
   <g id="text_15">
    <!-- train loss -->
    <g transform="translate(192.91233 16.318125)scale(0.12 -0.12)">
     <defs>
      <path id="DejaVuSans-74" d="M 1172 4494 
L 1172 3500 
L 2356 3500 
L 2356 3053 
L 1172 3053 
L 1172 1153 
Q 1172 725 1289 603 
Q 1406 481 1766 481 
L 2356 481 
L 2356 0 
L 1766 0 
Q 1100 0 847 248 
Q 594 497 594 1153 
L 594 3053 
L 172 3053 
L 172 3500 
L 594 3500 
L 594 4494 
L 1172 4494 
z
" transform="scale(0.015625)"/>
      <path id="DejaVuSans-72" d="M 2631 2963 
Q 2534 3019 2420 3045 
Q 2306 3072 2169 3072 
Q 1681 3072 1420 2755 
Q 1159 2438 1159 1844 
L 1159 0 
L 581 0 
L 581 3500 
L 1159 3500 
L 1159 2956 
Q 1341 3275 1631 3429 
Q 1922 3584 2338 3584 
Q 2397 3584 2469 3576 
Q 2541 3569 2628 3553 
L 2631 2963 
z
" transform="scale(0.015625)"/>
      <path id="DejaVuSans-61" d="M 2194 1759 
Q 1497 1759 1228 1600 
Q 959 1441 959 1056 
Q 959 750 1161 570 
Q 1363 391 1709 391 
Q 2188 391 2477 730 
Q 2766 1069 2766 1631 
L 2766 1759 
L 2194 1759 
z
M 3341 1997 
L 3341 0 
L 2766 0 
L 2766 531 
Q 2569 213 2275 61 
Q 1981 -91 1556 -91 
Q 1019 -91 701 211 
Q 384 513 384 1019 
Q 384 1609 779 1909 
Q 1175 2209 1959 2209 
L 2766 2209 
L 2766 2266 
Q 2766 2663 2505 2880 
Q 2244 3097 1772 3097 
Q 1472 3097 1187 3025 
Q 903 2953 641 2809 
L 641 3341 
Q 956 3463 1253 3523 
Q 1550 3584 1831 3584 
Q 2591 3584 2966 3190 
Q 3341 2797 3341 1997 
z
" transform="scale(0.015625)"/>
      <path id="DejaVuSans-69" d="M 603 3500 
L 1178 3500 
L 1178 0 
L 603 0 
L 603 3500 
z
M 603 4863 
L 1178 4863 
L 1178 4134 
L 603 4134 
L 603 4863 
z
" transform="scale(0.015625)"/>
      <path id="DejaVuSans-6e" d="M 3513 2113 
L 3513 0 
L 2938 0 
L 2938 2094 
Q 2938 2591 2744 2837 
Q 2550 3084 2163 3084 
Q 1697 3084 1428 2787 
Q 1159 2491 1159 1978 
L 1159 0 
L 581 0 
L 581 3500 
L 1159 3500 
L 1159 2956 
Q 1366 3272 1645 3428 
Q 1925 3584 2291 3584 
Q 2894 3584 3203 3211 
Q 3513 2838 3513 2113 
z
" transform="scale(0.015625)"/>
      <path id="DejaVuSans-20" transform="scale(0.015625)"/>
      <path id="DejaVuSans-6c" d="M 603 4863 
L 1178 4863 
L 1178 0 
L 603 0 
L 603 4863 
z
" transform="scale(0.015625)"/>
      <path id="DejaVuSans-73" d="M 2834 3397 
L 2834 2853 
Q 2591 2978 2328 3040 
Q 2066 3103 1784 3103 
Q 1356 3103 1142 2972 
Q 928 2841 928 2578 
Q 928 2378 1081 2264 
Q 1234 2150 1697 2047 
L 1894 2003 
Q 2506 1872 2764 1633 
Q 3022 1394 3022 966 
Q 3022 478 2636 193 
Q 2250 -91 1575 -91 
Q 1294 -91 989 -36 
Q 684 19 347 128 
L 347 722 
Q 666 556 975 473 
Q 1284 391 1588 391 
Q 1994 391 2212 530 
Q 2431 669 2431 922 
Q 2431 1156 2273 1281 
Q 2116 1406 1581 1522 
L 1381 1569 
Q 847 1681 609 1914 
Q 372 2147 372 2553 
Q 372 3047 722 3315 
Q 1072 3584 1716 3584 
Q 2034 3584 2315 3537 
Q 2597 3491 2834 3397 
z
" transform="scale(0.015625)"/>
     </defs>
     <use xlink:href="#DejaVuSans-74"/>
     <use xlink:href="#DejaVuSans-72" x="39.208984"/>
     <use xlink:href="#DejaVuSans-61" x="80.322266"/>
     <use xlink:href="#DejaVuSans-69" x="141.601562"/>
     <use xlink:href="#DejaVuSans-6e" x="169.384766"/>
     <use xlink:href="#DejaVuSans-20" x="232.763672"/>
     <use xlink:href="#DejaVuSans-6c" x="264.550781"/>
     <use xlink:href="#DejaVuSans-6f" x="292.333984"/>
     <use xlink:href="#DejaVuSans-73" x="353.515625"/>
     <use xlink:href="#DejaVuSans-73" x="405.615234"/>
    </g>
   </g>
  </g>
  <g id="axes_2">
   <g id="patch_7">
    <path d="M 468.937216 274.318125 
L 824.028125 274.318125 
L 824.028125 22.318125 
L 468.937216 22.318125 
z
" style="fill: #ffffff"/>
   </g>
   <g id="matplotlib.axis_3">
    <g id="xtick_8">
     <g id="line2d_15">
      <g>
       <use xlink:href="#mc51f8a84f7" x="485.077712" y="274.318125" style="stroke: #000000; stroke-width: 0.8"/>
      </g>
     </g>
     <g id="text_16">
      <!-- 0 -->
      <g transform="translate(481.896462 288.916562)scale(0.1 -0.1)">
       <use xlink:href="#DejaVuSans-30"/>
      </g>
     </g>
    </g>
    <g id="xtick_9">
     <g id="line2d_16">
      <g>
       <use xlink:href="#mc51f8a84f7" x="539.331479" y="274.318125" style="stroke: #000000; stroke-width: 0.8"/>
      </g>
     </g>
     <g id="text_17">
      <!-- 20 -->
      <g transform="translate(532.968979 288.916562)scale(0.1 -0.1)">
       <use xlink:href="#DejaVuSans-32"/>
       <use xlink:href="#DejaVuSans-30" x="63.623047"/>
      </g>
     </g>
    </g>
    <g id="xtick_10">
     <g id="line2d_17">
      <g>
       <use xlink:href="#mc51f8a84f7" x="593.585247" y="274.318125" style="stroke: #000000; stroke-width: 0.8"/>
      </g>
     </g>
     <g id="text_18">
      <!-- 40 -->
      <g transform="translate(587.222747 288.916562)scale(0.1 -0.1)">
       <use xlink:href="#DejaVuSans-34"/>
       <use xlink:href="#DejaVuSans-30" x="63.623047"/>
      </g>
     </g>
    </g>
    <g id="xtick_11">
     <g id="line2d_18">
      <g>
       <use xlink:href="#mc51f8a84f7" x="647.839015" y="274.318125" style="stroke: #000000; stroke-width: 0.8"/>
      </g>
     </g>
     <g id="text_19">
      <!-- 60 -->
      <g transform="translate(641.476515 288.916562)scale(0.1 -0.1)">
       <use xlink:href="#DejaVuSans-36"/>
       <use xlink:href="#DejaVuSans-30" x="63.623047"/>
      </g>
     </g>
    </g>
    <g id="xtick_12">
     <g id="line2d_19">
      <g>
       <use xlink:href="#mc51f8a84f7" x="702.092782" y="274.318125" style="stroke: #000000; stroke-width: 0.8"/>
      </g>
     </g>
     <g id="text_20">
      <!-- 80 -->
      <g transform="translate(695.730282 288.916562)scale(0.1 -0.1)">
       <use xlink:href="#DejaVuSans-38"/>
       <use xlink:href="#DejaVuSans-30" x="63.623047"/>
      </g>
     </g>
    </g>
    <g id="xtick_13">
     <g id="line2d_20">
      <g>
       <use xlink:href="#mc51f8a84f7" x="756.34655" y="274.318125" style="stroke: #000000; stroke-width: 0.8"/>
      </g>
     </g>
     <g id="text_21">
      <!-- 100 -->
      <g transform="translate(746.8028 288.916562)scale(0.1 -0.1)">
       <use xlink:href="#DejaVuSans-31"/>
       <use xlink:href="#DejaVuSans-30" x="63.623047"/>
       <use xlink:href="#DejaVuSans-30" x="127.246094"/>
      </g>
     </g>
    </g>
    <g id="xtick_14">
     <g id="line2d_21">
      <g>
       <use xlink:href="#mc51f8a84f7" x="810.600318" y="274.318125" style="stroke: #000000; stroke-width: 0.8"/>
      </g>
     </g>
     <g id="text_22">
      <!-- 120 -->
      <g transform="translate(801.056568 288.916562)scale(0.1 -0.1)">
       <use xlink:href="#DejaVuSans-31"/>
       <use xlink:href="#DejaVuSans-32" x="63.623047"/>
       <use xlink:href="#DejaVuSans-30" x="127.246094"/>
      </g>
     </g>
    </g>
    <g id="text_23">
     <!-- epoch -->
     <g transform="translate(631.254545 302.594687)scale(0.1 -0.1)">
      <use xlink:href="#DejaVuSans-65"/>
      <use xlink:href="#DejaVuSans-70" x="61.523438"/>
      <use xlink:href="#DejaVuSans-6f" x="125"/>
      <use xlink:href="#DejaVuSans-63" x="186.181641"/>
      <use xlink:href="#DejaVuSans-68" x="241.162109"/>
     </g>
    </g>
   </g>
   <g id="matplotlib.axis_4">
    <g id="ytick_7">
     <g id="line2d_22">
      <g>
       <use xlink:href="#m1cc47b86be" x="468.937216" y="252.444405" style="stroke: #000000; stroke-width: 0.8"/>
      </g>
     </g>
     <g id="text_24">
      <!-- 0.100 -->
      <g transform="translate(433.309091 256.243624)scale(0.1 -0.1)">
       <use xlink:href="#DejaVuSans-30"/>
       <use xlink:href="#DejaVuSans-2e" x="63.623047"/>
       <use xlink:href="#DejaVuSans-31" x="95.410156"/>
       <use xlink:href="#DejaVuSans-30" x="159.033203"/>
       <use xlink:href="#DejaVuSans-30" x="222.65625"/>
      </g>
     </g>
    </g>
    <g id="ytick_8">
     <g id="line2d_23">
      <g>
       <use xlink:href="#m1cc47b86be" x="468.937216" y="213.461138" style="stroke: #000000; stroke-width: 0.8"/>
      </g>
     </g>
     <g id="text_25">
      <!-- 0.105 -->
      <g transform="translate(433.309091 217.260357)scale(0.1 -0.1)">
       <use xlink:href="#DejaVuSans-30"/>
       <use xlink:href="#DejaVuSans-2e" x="63.623047"/>
       <use xlink:href="#DejaVuSans-31" x="95.410156"/>
       <use xlink:href="#DejaVuSans-30" x="159.033203"/>
       <use xlink:href="#DejaVuSans-35" x="222.65625"/>
      </g>
     </g>
    </g>
    <g id="ytick_9">
     <g id="line2d_24">
      <g>
       <use xlink:href="#m1cc47b86be" x="468.937216" y="174.477871" style="stroke: #000000; stroke-width: 0.8"/>
      </g>
     </g>
     <g id="text_26">
      <!-- 0.110 -->
      <g transform="translate(433.309091 178.27709)scale(0.1 -0.1)">
       <use xlink:href="#DejaVuSans-30"/>
       <use xlink:href="#DejaVuSans-2e" x="63.623047"/>
       <use xlink:href="#DejaVuSans-31" x="95.410156"/>
       <use xlink:href="#DejaVuSans-31" x="159.033203"/>
       <use xlink:href="#DejaVuSans-30" x="222.65625"/>
      </g>
     </g>
    </g>
    <g id="ytick_10">
     <g id="line2d_25">
      <g>
       <use xlink:href="#m1cc47b86be" x="468.937216" y="135.494605" style="stroke: #000000; stroke-width: 0.8"/>
      </g>
     </g>
     <g id="text_27">
      <!-- 0.115 -->
      <g transform="translate(433.309091 139.293823)scale(0.1 -0.1)">
       <use xlink:href="#DejaVuSans-30"/>
       <use xlink:href="#DejaVuSans-2e" x="63.623047"/>
       <use xlink:href="#DejaVuSans-31" x="95.410156"/>
       <use xlink:href="#DejaVuSans-31" x="159.033203"/>
       <use xlink:href="#DejaVuSans-35" x="222.65625"/>
      </g>
     </g>
    </g>
    <g id="ytick_11">
     <g id="line2d_26">
      <g>
       <use xlink:href="#m1cc47b86be" x="468.937216" y="96.511338" style="stroke: #000000; stroke-width: 0.8"/>
      </g>
     </g>
     <g id="text_28">
      <!-- 0.120 -->
      <g transform="translate(433.309091 100.310557)scale(0.1 -0.1)">
       <use xlink:href="#DejaVuSans-30"/>
       <use xlink:href="#DejaVuSans-2e" x="63.623047"/>
       <use xlink:href="#DejaVuSans-31" x="95.410156"/>
       <use xlink:href="#DejaVuSans-32" x="159.033203"/>
       <use xlink:href="#DejaVuSans-30" x="222.65625"/>
      </g>
     </g>
    </g>
    <g id="ytick_12">
     <g id="line2d_27">
      <g>
       <use xlink:href="#m1cc47b86be" x="468.937216" y="57.528071" style="stroke: #000000; stroke-width: 0.8"/>
      </g>
     </g>
     <g id="text_29">
      <!-- 0.125 -->
      <g transform="translate(433.309091 61.32729)scale(0.1 -0.1)">
       <use xlink:href="#DejaVuSans-30"/>
       <use xlink:href="#DejaVuSans-2e" x="63.623047"/>
       <use xlink:href="#DejaVuSans-31" x="95.410156"/>
       <use xlink:href="#DejaVuSans-32" x="159.033203"/>
       <use xlink:href="#DejaVuSans-35" x="222.65625"/>
      </g>
     </g>
    </g>
   </g>
   <g id="line2d_28">
    <path d="M 485.077712 33.77267 
L 487.7904 127.620979 
L 490.503089 148.461534 
L 493.215777 158.534165 
L 495.928465 167.648719 
L 498.641154 173.58641 
L 501.353842 178.096131 
L 504.06653 182.907105 
L 506.779219 185.608204 
L 509.491907 188.022267 
L 512.204596 191.829874 
L 514.917284 194.961189 
L 517.629972 195.948538 
L 520.342661 197.44395 
L 523.055349 199.336553 
L 525.768037 201.567828 
L 528.480726 203.601606 
L 531.193414 205.209523 
L 533.906103 206.925816 
L 536.618791 207.82264 
L 539.331479 208.684963 
L 542.044168 209.877853 
L 544.756856 210.331352 
L 547.469545 212.379028 
L 550.182233 213.641433 
L 552.894921 214.087992 
L 555.60761 216.145187 
L 558.320298 217.613846 
L 561.032986 217.849947 
L 563.745675 217.936611 
L 566.458363 220.432989 
L 569.171052 221.269666 
L 571.88374 221.146499 
L 574.596428 221.371424 
L 577.309117 223.615392 
L 580.021805 223.513568 
L 582.734493 225.14169 
L 585.447182 224.951183 
L 588.15987 225.569436 
L 590.872559 226.990998 
L 593.585247 227.549673 
L 596.297935 227.732396 
L 599.010624 228.859609 
L 601.723312 230.05344 
L 604.436001 229.800015 
L 607.148689 231.378108 
L 609.861377 231.51731 
L 612.574066 232.683167 
L 615.286754 233.134092 
L 617.999442 233.38598 
L 620.712131 233.708798 
L 623.424819 233.449029 
L 626.137508 234.770057 
L 628.850196 236.022921 
L 631.562884 236.504131 
L 634.275573 237.512752 
L 636.988261 236.435565 
L 639.70095 237.336731 
L 642.413638 237.963844 
L 645.126326 237.889802 
L 647.839015 240.44892 
L 650.551703 239.902484 
L 653.264391 240.431695 
L 655.97708 240.821083 
L 658.689768 241.674976 
L 661.402457 241.997939 
L 664.115145 242.11038 
L 666.827833 243.030955 
L 669.540522 243.332786 
L 672.25321 243.051178 
L 674.965898 243.448618 
L 677.678587 244.154818 
L 680.391275 244.212038 
L 683.103964 245.349218 
L 685.816652 245.455482 
L 688.52934 246.818703 
L 691.242029 247.411672 
L 693.954717 246.758512 
L 696.667406 248.535216 
L 699.380094 247.470785 
L 702.092782 248.760185 
L 704.805471 248.843511 
L 707.518159 248.672583 
L 710.230847 249.374138 
L 712.943536 249.457177 
L 715.656224 250.019364 
L 718.368913 250.01167 
L 721.081601 250.601894 
L 723.794289 251.172827 
L 726.506978 251.697172 
L 729.219666 250.297291 
L 731.932354 252.516609 
L 734.645043 253.938947 
L 737.357731 253.174351 
L 740.07042 254.292388 
L 742.783108 253.860933 
L 745.495796 254.664986 
L 748.208485 254.47905 
L 750.921173 255.974786 
L 753.633862 256.176233 
L 756.34655 257.304599 
L 759.059238 256.217496 
L 761.771927 256.778405 
L 764.484615 257.44728 
L 767.197303 257.343435 
L 769.909992 258.116983 
L 772.62268 257.818008 
L 775.335369 259.556878 
L 778.048057 258.577006 
L 780.760745 259.376223 
L 783.473434 259.662235 
L 786.186122 260.681459 
L 788.89881 261.03673 
L 791.611499 260.255432 
L 794.324187 261.040456 
L 797.036876 260.889743 
L 799.749564 261.804258 
L 802.462252 262.606872 
L 805.174941 262.70177 
L 807.887629 262.86358 
" clip-path="url(#pc2fe05e4b1)" style="fill: none; stroke: #1f77b4; stroke-width: 1.5; stroke-linecap: square"/>
    <defs>
     <path id="m2e603ddaad" d="M 0 3 
C 0.795609 3 1.55874 2.683901 2.12132 2.12132 
C 2.683901 1.55874 3 0.795609 3 0 
C 3 -0.795609 2.683901 -1.55874 2.12132 -2.12132 
C 1.55874 -2.683901 0.795609 -3 0 -3 
C -0.795609 -3 -1.55874 -2.683901 -2.12132 -2.12132 
C -2.683901 -1.55874 -3 -0.795609 -3 0 
C -3 0.795609 -2.683901 1.55874 -2.12132 2.12132 
C -1.55874 2.683901 -0.795609 3 0 3 
z
" style="stroke: #1f77b4"/>
    </defs>
    <g clip-path="url(#pc2fe05e4b1)">
     <use xlink:href="#m2e603ddaad" x="485.077712" y="33.77267" style="fill: #1f77b4; stroke: #1f77b4"/>
     <use xlink:href="#m2e603ddaad" x="487.7904" y="127.620979" style="fill: #1f77b4; stroke: #1f77b4"/>
     <use xlink:href="#m2e603ddaad" x="490.503089" y="148.461534" style="fill: #1f77b4; stroke: #1f77b4"/>
     <use xlink:href="#m2e603ddaad" x="493.215777" y="158.534165" style="fill: #1f77b4; stroke: #1f77b4"/>
     <use xlink:href="#m2e603ddaad" x="495.928465" y="167.648719" style="fill: #1f77b4; stroke: #1f77b4"/>
     <use xlink:href="#m2e603ddaad" x="498.641154" y="173.58641" style="fill: #1f77b4; stroke: #1f77b4"/>
     <use xlink:href="#m2e603ddaad" x="501.353842" y="178.096131" style="fill: #1f77b4; stroke: #1f77b4"/>
     <use xlink:href="#m2e603ddaad" x="504.06653" y="182.907105" style="fill: #1f77b4; stroke: #1f77b4"/>
     <use xlink:href="#m2e603ddaad" x="506.779219" y="185.608204" style="fill: #1f77b4; stroke: #1f77b4"/>
     <use xlink:href="#m2e603ddaad" x="509.491907" y="188.022267" style="fill: #1f77b4; stroke: #1f77b4"/>
     <use xlink:href="#m2e603ddaad" x="512.204596" y="191.829874" style="fill: #1f77b4; stroke: #1f77b4"/>
     <use xlink:href="#m2e603ddaad" x="514.917284" y="194.961189" style="fill: #1f77b4; stroke: #1f77b4"/>
     <use xlink:href="#m2e603ddaad" x="517.629972" y="195.948538" style="fill: #1f77b4; stroke: #1f77b4"/>
     <use xlink:href="#m2e603ddaad" x="520.342661" y="197.44395" style="fill: #1f77b4; stroke: #1f77b4"/>
     <use xlink:href="#m2e603ddaad" x="523.055349" y="199.336553" style="fill: #1f77b4; stroke: #1f77b4"/>
     <use xlink:href="#m2e603ddaad" x="525.768037" y="201.567828" style="fill: #1f77b4; stroke: #1f77b4"/>
     <use xlink:href="#m2e603ddaad" x="528.480726" y="203.601606" style="fill: #1f77b4; stroke: #1f77b4"/>
     <use xlink:href="#m2e603ddaad" x="531.193414" y="205.209523" style="fill: #1f77b4; stroke: #1f77b4"/>
     <use xlink:href="#m2e603ddaad" x="533.906103" y="206.925816" style="fill: #1f77b4; stroke: #1f77b4"/>
     <use xlink:href="#m2e603ddaad" x="536.618791" y="207.82264" style="fill: #1f77b4; stroke: #1f77b4"/>
     <use xlink:href="#m2e603ddaad" x="539.331479" y="208.684963" style="fill: #1f77b4; stroke: #1f77b4"/>
     <use xlink:href="#m2e603ddaad" x="542.044168" y="209.877853" style="fill: #1f77b4; stroke: #1f77b4"/>
     <use xlink:href="#m2e603ddaad" x="544.756856" y="210.331352" style="fill: #1f77b4; stroke: #1f77b4"/>
     <use xlink:href="#m2e603ddaad" x="547.469545" y="212.379028" style="fill: #1f77b4; stroke: #1f77b4"/>
     <use xlink:href="#m2e603ddaad" x="550.182233" y="213.641433" style="fill: #1f77b4; stroke: #1f77b4"/>
     <use xlink:href="#m2e603ddaad" x="552.894921" y="214.087992" style="fill: #1f77b4; stroke: #1f77b4"/>
     <use xlink:href="#m2e603ddaad" x="555.60761" y="216.145187" style="fill: #1f77b4; stroke: #1f77b4"/>
     <use xlink:href="#m2e603ddaad" x="558.320298" y="217.613846" style="fill: #1f77b4; stroke: #1f77b4"/>
     <use xlink:href="#m2e603ddaad" x="561.032986" y="217.849947" style="fill: #1f77b4; stroke: #1f77b4"/>
     <use xlink:href="#m2e603ddaad" x="563.745675" y="217.936611" style="fill: #1f77b4; stroke: #1f77b4"/>
     <use xlink:href="#m2e603ddaad" x="566.458363" y="220.432989" style="fill: #1f77b4; stroke: #1f77b4"/>
     <use xlink:href="#m2e603ddaad" x="569.171052" y="221.269666" style="fill: #1f77b4; stroke: #1f77b4"/>
     <use xlink:href="#m2e603ddaad" x="571.88374" y="221.146499" style="fill: #1f77b4; stroke: #1f77b4"/>
     <use xlink:href="#m2e603ddaad" x="574.596428" y="221.371424" style="fill: #1f77b4; stroke: #1f77b4"/>
     <use xlink:href="#m2e603ddaad" x="577.309117" y="223.615392" style="fill: #1f77b4; stroke: #1f77b4"/>
     <use xlink:href="#m2e603ddaad" x="580.021805" y="223.513568" style="fill: #1f77b4; stroke: #1f77b4"/>
     <use xlink:href="#m2e603ddaad" x="582.734493" y="225.14169" style="fill: #1f77b4; stroke: #1f77b4"/>
     <use xlink:href="#m2e603ddaad" x="585.447182" y="224.951183" style="fill: #1f77b4; stroke: #1f77b4"/>
     <use xlink:href="#m2e603ddaad" x="588.15987" y="225.569436" style="fill: #1f77b4; stroke: #1f77b4"/>
     <use xlink:href="#m2e603ddaad" x="590.872559" y="226.990998" style="fill: #1f77b4; stroke: #1f77b4"/>
     <use xlink:href="#m2e603ddaad" x="593.585247" y="227.549673" style="fill: #1f77b4; stroke: #1f77b4"/>
     <use xlink:href="#m2e603ddaad" x="596.297935" y="227.732396" style="fill: #1f77b4; stroke: #1f77b4"/>
     <use xlink:href="#m2e603ddaad" x="599.010624" y="228.859609" style="fill: #1f77b4; stroke: #1f77b4"/>
     <use xlink:href="#m2e603ddaad" x="601.723312" y="230.05344" style="fill: #1f77b4; stroke: #1f77b4"/>
     <use xlink:href="#m2e603ddaad" x="604.436001" y="229.800015" style="fill: #1f77b4; stroke: #1f77b4"/>
     <use xlink:href="#m2e603ddaad" x="607.148689" y="231.378108" style="fill: #1f77b4; stroke: #1f77b4"/>
     <use xlink:href="#m2e603ddaad" x="609.861377" y="231.51731" style="fill: #1f77b4; stroke: #1f77b4"/>
     <use xlink:href="#m2e603ddaad" x="612.574066" y="232.683167" style="fill: #1f77b4; stroke: #1f77b4"/>
     <use xlink:href="#m2e603ddaad" x="615.286754" y="233.134092" style="fill: #1f77b4; stroke: #1f77b4"/>
     <use xlink:href="#m2e603ddaad" x="617.999442" y="233.38598" style="fill: #1f77b4; stroke: #1f77b4"/>
     <use xlink:href="#m2e603ddaad" x="620.712131" y="233.708798" style="fill: #1f77b4; stroke: #1f77b4"/>
     <use xlink:href="#m2e603ddaad" x="623.424819" y="233.449029" style="fill: #1f77b4; stroke: #1f77b4"/>
     <use xlink:href="#m2e603ddaad" x="626.137508" y="234.770057" style="fill: #1f77b4; stroke: #1f77b4"/>
     <use xlink:href="#m2e603ddaad" x="628.850196" y="236.022921" style="fill: #1f77b4; stroke: #1f77b4"/>
     <use xlink:href="#m2e603ddaad" x="631.562884" y="236.504131" style="fill: #1f77b4; stroke: #1f77b4"/>
     <use xlink:href="#m2e603ddaad" x="634.275573" y="237.512752" style="fill: #1f77b4; stroke: #1f77b4"/>
     <use xlink:href="#m2e603ddaad" x="636.988261" y="236.435565" style="fill: #1f77b4; stroke: #1f77b4"/>
     <use xlink:href="#m2e603ddaad" x="639.70095" y="237.336731" style="fill: #1f77b4; stroke: #1f77b4"/>
     <use xlink:href="#m2e603ddaad" x="642.413638" y="237.963844" style="fill: #1f77b4; stroke: #1f77b4"/>
     <use xlink:href="#m2e603ddaad" x="645.126326" y="237.889802" style="fill: #1f77b4; stroke: #1f77b4"/>
     <use xlink:href="#m2e603ddaad" x="647.839015" y="240.44892" style="fill: #1f77b4; stroke: #1f77b4"/>
     <use xlink:href="#m2e603ddaad" x="650.551703" y="239.902484" style="fill: #1f77b4; stroke: #1f77b4"/>
     <use xlink:href="#m2e603ddaad" x="653.264391" y="240.431695" style="fill: #1f77b4; stroke: #1f77b4"/>
     <use xlink:href="#m2e603ddaad" x="655.97708" y="240.821083" style="fill: #1f77b4; stroke: #1f77b4"/>
     <use xlink:href="#m2e603ddaad" x="658.689768" y="241.674976" style="fill: #1f77b4; stroke: #1f77b4"/>
     <use xlink:href="#m2e603ddaad" x="661.402457" y="241.997939" style="fill: #1f77b4; stroke: #1f77b4"/>
     <use xlink:href="#m2e603ddaad" x="664.115145" y="242.11038" style="fill: #1f77b4; stroke: #1f77b4"/>
     <use xlink:href="#m2e603ddaad" x="666.827833" y="243.030955" style="fill: #1f77b4; stroke: #1f77b4"/>
     <use xlink:href="#m2e603ddaad" x="669.540522" y="243.332786" style="fill: #1f77b4; stroke: #1f77b4"/>
     <use xlink:href="#m2e603ddaad" x="672.25321" y="243.051178" style="fill: #1f77b4; stroke: #1f77b4"/>
     <use xlink:href="#m2e603ddaad" x="674.965898" y="243.448618" style="fill: #1f77b4; stroke: #1f77b4"/>
     <use xlink:href="#m2e603ddaad" x="677.678587" y="244.154818" style="fill: #1f77b4; stroke: #1f77b4"/>
     <use xlink:href="#m2e603ddaad" x="680.391275" y="244.212038" style="fill: #1f77b4; stroke: #1f77b4"/>
     <use xlink:href="#m2e603ddaad" x="683.103964" y="245.349218" style="fill: #1f77b4; stroke: #1f77b4"/>
     <use xlink:href="#m2e603ddaad" x="685.816652" y="245.455482" style="fill: #1f77b4; stroke: #1f77b4"/>
     <use xlink:href="#m2e603ddaad" x="688.52934" y="246.818703" style="fill: #1f77b4; stroke: #1f77b4"/>
     <use xlink:href="#m2e603ddaad" x="691.242029" y="247.411672" style="fill: #1f77b4; stroke: #1f77b4"/>
     <use xlink:href="#m2e603ddaad" x="693.954717" y="246.758512" style="fill: #1f77b4; stroke: #1f77b4"/>
     <use xlink:href="#m2e603ddaad" x="696.667406" y="248.535216" style="fill: #1f77b4; stroke: #1f77b4"/>
     <use xlink:href="#m2e603ddaad" x="699.380094" y="247.470785" style="fill: #1f77b4; stroke: #1f77b4"/>
     <use xlink:href="#m2e603ddaad" x="702.092782" y="248.760185" style="fill: #1f77b4; stroke: #1f77b4"/>
     <use xlink:href="#m2e603ddaad" x="704.805471" y="248.843511" style="fill: #1f77b4; stroke: #1f77b4"/>
     <use xlink:href="#m2e603ddaad" x="707.518159" y="248.672583" style="fill: #1f77b4; stroke: #1f77b4"/>
     <use xlink:href="#m2e603ddaad" x="710.230847" y="249.374138" style="fill: #1f77b4; stroke: #1f77b4"/>
     <use xlink:href="#m2e603ddaad" x="712.943536" y="249.457177" style="fill: #1f77b4; stroke: #1f77b4"/>
     <use xlink:href="#m2e603ddaad" x="715.656224" y="250.019364" style="fill: #1f77b4; stroke: #1f77b4"/>
     <use xlink:href="#m2e603ddaad" x="718.368913" y="250.01167" style="fill: #1f77b4; stroke: #1f77b4"/>
     <use xlink:href="#m2e603ddaad" x="721.081601" y="250.601894" style="fill: #1f77b4; stroke: #1f77b4"/>
     <use xlink:href="#m2e603ddaad" x="723.794289" y="251.172827" style="fill: #1f77b4; stroke: #1f77b4"/>
     <use xlink:href="#m2e603ddaad" x="726.506978" y="251.697172" style="fill: #1f77b4; stroke: #1f77b4"/>
     <use xlink:href="#m2e603ddaad" x="729.219666" y="250.297291" style="fill: #1f77b4; stroke: #1f77b4"/>
     <use xlink:href="#m2e603ddaad" x="731.932354" y="252.516609" style="fill: #1f77b4; stroke: #1f77b4"/>
     <use xlink:href="#m2e603ddaad" x="734.645043" y="253.938947" style="fill: #1f77b4; stroke: #1f77b4"/>
     <use xlink:href="#m2e603ddaad" x="737.357731" y="253.174351" style="fill: #1f77b4; stroke: #1f77b4"/>
     <use xlink:href="#m2e603ddaad" x="740.07042" y="254.292388" style="fill: #1f77b4; stroke: #1f77b4"/>
     <use xlink:href="#m2e603ddaad" x="742.783108" y="253.860933" style="fill: #1f77b4; stroke: #1f77b4"/>
     <use xlink:href="#m2e603ddaad" x="745.495796" y="254.664986" style="fill: #1f77b4; stroke: #1f77b4"/>
     <use xlink:href="#m2e603ddaad" x="748.208485" y="254.47905" style="fill: #1f77b4; stroke: #1f77b4"/>
     <use xlink:href="#m2e603ddaad" x="750.921173" y="255.974786" style="fill: #1f77b4; stroke: #1f77b4"/>
     <use xlink:href="#m2e603ddaad" x="753.633862" y="256.176233" style="fill: #1f77b4; stroke: #1f77b4"/>
     <use xlink:href="#m2e603ddaad" x="756.34655" y="257.304599" style="fill: #1f77b4; stroke: #1f77b4"/>
     <use xlink:href="#m2e603ddaad" x="759.059238" y="256.217496" style="fill: #1f77b4; stroke: #1f77b4"/>
     <use xlink:href="#m2e603ddaad" x="761.771927" y="256.778405" style="fill: #1f77b4; stroke: #1f77b4"/>
     <use xlink:href="#m2e603ddaad" x="764.484615" y="257.44728" style="fill: #1f77b4; stroke: #1f77b4"/>
     <use xlink:href="#m2e603ddaad" x="767.197303" y="257.343435" style="fill: #1f77b4; stroke: #1f77b4"/>
     <use xlink:href="#m2e603ddaad" x="769.909992" y="258.116983" style="fill: #1f77b4; stroke: #1f77b4"/>
     <use xlink:href="#m2e603ddaad" x="772.62268" y="257.818008" style="fill: #1f77b4; stroke: #1f77b4"/>
     <use xlink:href="#m2e603ddaad" x="775.335369" y="259.556878" style="fill: #1f77b4; stroke: #1f77b4"/>
     <use xlink:href="#m2e603ddaad" x="778.048057" y="258.577006" style="fill: #1f77b4; stroke: #1f77b4"/>
     <use xlink:href="#m2e603ddaad" x="780.760745" y="259.376223" style="fill: #1f77b4; stroke: #1f77b4"/>
     <use xlink:href="#m2e603ddaad" x="783.473434" y="259.662235" style="fill: #1f77b4; stroke: #1f77b4"/>
     <use xlink:href="#m2e603ddaad" x="786.186122" y="260.681459" style="fill: #1f77b4; stroke: #1f77b4"/>
     <use xlink:href="#m2e603ddaad" x="788.89881" y="261.03673" style="fill: #1f77b4; stroke: #1f77b4"/>
     <use xlink:href="#m2e603ddaad" x="791.611499" y="260.255432" style="fill: #1f77b4; stroke: #1f77b4"/>
     <use xlink:href="#m2e603ddaad" x="794.324187" y="261.040456" style="fill: #1f77b4; stroke: #1f77b4"/>
     <use xlink:href="#m2e603ddaad" x="797.036876" y="260.889743" style="fill: #1f77b4; stroke: #1f77b4"/>
     <use xlink:href="#m2e603ddaad" x="799.749564" y="261.804258" style="fill: #1f77b4; stroke: #1f77b4"/>
     <use xlink:href="#m2e603ddaad" x="802.462252" y="262.606872" style="fill: #1f77b4; stroke: #1f77b4"/>
     <use xlink:href="#m2e603ddaad" x="805.174941" y="262.70177" style="fill: #1f77b4; stroke: #1f77b4"/>
     <use xlink:href="#m2e603ddaad" x="807.887629" y="262.86358" style="fill: #1f77b4; stroke: #1f77b4"/>
    </g>
   </g>
   <g id="line2d_29">
    <path d="M 485.077712 132.121597 
L 487.7904 160.320244 
L 490.503089 172.776263 
L 493.215777 162.215151 
L 495.928465 188.738557 
L 498.641154 174.391051 
L 501.353842 190.574315 
L 504.06653 194.540123 
L 506.779219 195.402711 
L 509.491907 184.478776 
L 512.204596 196.512824 
L 514.917284 193.828965 
L 517.629972 184.578417 
L 520.342661 197.657744 
L 523.055349 189.847456 
L 525.768037 191.300804 
L 528.480726 196.76621 
L 531.193414 192.293862 
L 533.906103 197.679538 
L 536.618791 173.655709 
L 539.331479 196.091093 
L 542.044168 192.804037 
L 544.756856 193.756804 
L 547.469545 190.997656 
L 550.182233 190.276447 
L 552.894921 191.900805 
L 555.60761 184.15177 
L 558.320298 195.57563 
L 561.032986 184.995795 
L 563.745675 186.879974 
L 566.458363 194.811146 
L 569.171052 172.453546 
L 571.88374 188.947566 
L 574.596428 183.951266 
L 577.309117 193.120119 
L 580.021805 173.898032 
L 582.734493 190.416206 
L 585.447182 187.472725 
L 588.15987 179.636965 
L 590.872559 193.382211 
L 593.585247 178.513903 
L 596.297935 184.486232 
L 599.010624 188.041197 
L 601.723312 181.048454 
L 604.436001 179.856983 
L 607.148689 181.392692 
L 609.861377 183.673189 
L 612.574066 181.619952 
L 615.286754 189.806791 
L 617.999442 189.553247 
L 620.712131 184.001644 
L 623.424819 179.76174 
L 626.137508 184.289346 
L 628.850196 167.093077 
L 631.562884 180.926176 
L 634.275573 175.500275 
L 636.988261 186.413088 
L 639.70095 181.346146 
L 642.413638 173.130426 
L 645.126326 176.573616 
" clip-path="url(#pc2fe05e4b1)" style="fill: none; stroke: #ff7f0e; stroke-width: 1.5; stroke-linecap: square"/>
    <defs>
     <path id="m88cf798671" d="M 0 3 
C 0.795609 3 1.55874 2.683901 2.12132 2.12132 
C 2.683901 1.55874 3 0.795609 3 0 
C 3 -0.795609 2.683901 -1.55874 2.12132 -2.12132 
C 1.55874 -2.683901 0.795609 -3 0 -3 
C -0.795609 -3 -1.55874 -2.683901 -2.12132 -2.12132 
C -2.683901 -1.55874 -3 -0.795609 -3 0 
C -3 0.795609 -2.683901 1.55874 -2.12132 2.12132 
C -1.55874 2.683901 -0.795609 3 0 3 
z
" style="stroke: #ff7f0e"/>
    </defs>
    <g clip-path="url(#pc2fe05e4b1)">
     <use xlink:href="#m88cf798671" x="485.077712" y="132.121597" style="fill: #ff7f0e; stroke: #ff7f0e"/>
     <use xlink:href="#m88cf798671" x="487.7904" y="160.320244" style="fill: #ff7f0e; stroke: #ff7f0e"/>
     <use xlink:href="#m88cf798671" x="490.503089" y="172.776263" style="fill: #ff7f0e; stroke: #ff7f0e"/>
     <use xlink:href="#m88cf798671" x="493.215777" y="162.215151" style="fill: #ff7f0e; stroke: #ff7f0e"/>
     <use xlink:href="#m88cf798671" x="495.928465" y="188.738557" style="fill: #ff7f0e; stroke: #ff7f0e"/>
     <use xlink:href="#m88cf798671" x="498.641154" y="174.391051" style="fill: #ff7f0e; stroke: #ff7f0e"/>
     <use xlink:href="#m88cf798671" x="501.353842" y="190.574315" style="fill: #ff7f0e; stroke: #ff7f0e"/>
     <use xlink:href="#m88cf798671" x="504.06653" y="194.540123" style="fill: #ff7f0e; stroke: #ff7f0e"/>
     <use xlink:href="#m88cf798671" x="506.779219" y="195.402711" style="fill: #ff7f0e; stroke: #ff7f0e"/>
     <use xlink:href="#m88cf798671" x="509.491907" y="184.478776" style="fill: #ff7f0e; stroke: #ff7f0e"/>
     <use xlink:href="#m88cf798671" x="512.204596" y="196.512824" style="fill: #ff7f0e; stroke: #ff7f0e"/>
     <use xlink:href="#m88cf798671" x="514.917284" y="193.828965" style="fill: #ff7f0e; stroke: #ff7f0e"/>
     <use xlink:href="#m88cf798671" x="517.629972" y="184.578417" style="fill: #ff7f0e; stroke: #ff7f0e"/>
     <use xlink:href="#m88cf798671" x="520.342661" y="197.657744" style="fill: #ff7f0e; stroke: #ff7f0e"/>
     <use xlink:href="#m88cf798671" x="523.055349" y="189.847456" style="fill: #ff7f0e; stroke: #ff7f0e"/>
     <use xlink:href="#m88cf798671" x="525.768037" y="191.300804" style="fill: #ff7f0e; stroke: #ff7f0e"/>
     <use xlink:href="#m88cf798671" x="528.480726" y="196.76621" style="fill: #ff7f0e; stroke: #ff7f0e"/>
     <use xlink:href="#m88cf798671" x="531.193414" y="192.293862" style="fill: #ff7f0e; stroke: #ff7f0e"/>
     <use xlink:href="#m88cf798671" x="533.906103" y="197.679538" style="fill: #ff7f0e; stroke: #ff7f0e"/>
     <use xlink:href="#m88cf798671" x="536.618791" y="173.655709" style="fill: #ff7f0e; stroke: #ff7f0e"/>
     <use xlink:href="#m88cf798671" x="539.331479" y="196.091093" style="fill: #ff7f0e; stroke: #ff7f0e"/>
     <use xlink:href="#m88cf798671" x="542.044168" y="192.804037" style="fill: #ff7f0e; stroke: #ff7f0e"/>
     <use xlink:href="#m88cf798671" x="544.756856" y="193.756804" style="fill: #ff7f0e; stroke: #ff7f0e"/>
     <use xlink:href="#m88cf798671" x="547.469545" y="190.997656" style="fill: #ff7f0e; stroke: #ff7f0e"/>
     <use xlink:href="#m88cf798671" x="550.182233" y="190.276447" style="fill: #ff7f0e; stroke: #ff7f0e"/>
     <use xlink:href="#m88cf798671" x="552.894921" y="191.900805" style="fill: #ff7f0e; stroke: #ff7f0e"/>
     <use xlink:href="#m88cf798671" x="555.60761" y="184.15177" style="fill: #ff7f0e; stroke: #ff7f0e"/>
     <use xlink:href="#m88cf798671" x="558.320298" y="195.57563" style="fill: #ff7f0e; stroke: #ff7f0e"/>
     <use xlink:href="#m88cf798671" x="561.032986" y="184.995795" style="fill: #ff7f0e; stroke: #ff7f0e"/>
     <use xlink:href="#m88cf798671" x="563.745675" y="186.879974" style="fill: #ff7f0e; stroke: #ff7f0e"/>
     <use xlink:href="#m88cf798671" x="566.458363" y="194.811146" style="fill: #ff7f0e; stroke: #ff7f0e"/>
     <use xlink:href="#m88cf798671" x="569.171052" y="172.453546" style="fill: #ff7f0e; stroke: #ff7f0e"/>
     <use xlink:href="#m88cf798671" x="571.88374" y="188.947566" style="fill: #ff7f0e; stroke: #ff7f0e"/>
     <use xlink:href="#m88cf798671" x="574.596428" y="183.951266" style="fill: #ff7f0e; stroke: #ff7f0e"/>
     <use xlink:href="#m88cf798671" x="577.309117" y="193.120119" style="fill: #ff7f0e; stroke: #ff7f0e"/>
     <use xlink:href="#m88cf798671" x="580.021805" y="173.898032" style="fill: #ff7f0e; stroke: #ff7f0e"/>
     <use xlink:href="#m88cf798671" x="582.734493" y="190.416206" style="fill: #ff7f0e; stroke: #ff7f0e"/>
     <use xlink:href="#m88cf798671" x="585.447182" y="187.472725" style="fill: #ff7f0e; stroke: #ff7f0e"/>
     <use xlink:href="#m88cf798671" x="588.15987" y="179.636965" style="fill: #ff7f0e; stroke: #ff7f0e"/>
     <use xlink:href="#m88cf798671" x="590.872559" y="193.382211" style="fill: #ff7f0e; stroke: #ff7f0e"/>
     <use xlink:href="#m88cf798671" x="593.585247" y="178.513903" style="fill: #ff7f0e; stroke: #ff7f0e"/>
     <use xlink:href="#m88cf798671" x="596.297935" y="184.486232" style="fill: #ff7f0e; stroke: #ff7f0e"/>
     <use xlink:href="#m88cf798671" x="599.010624" y="188.041197" style="fill: #ff7f0e; stroke: #ff7f0e"/>
     <use xlink:href="#m88cf798671" x="601.723312" y="181.048454" style="fill: #ff7f0e; stroke: #ff7f0e"/>
     <use xlink:href="#m88cf798671" x="604.436001" y="179.856983" style="fill: #ff7f0e; stroke: #ff7f0e"/>
     <use xlink:href="#m88cf798671" x="607.148689" y="181.392692" style="fill: #ff7f0e; stroke: #ff7f0e"/>
     <use xlink:href="#m88cf798671" x="609.861377" y="183.673189" style="fill: #ff7f0e; stroke: #ff7f0e"/>
     <use xlink:href="#m88cf798671" x="612.574066" y="181.619952" style="fill: #ff7f0e; stroke: #ff7f0e"/>
     <use xlink:href="#m88cf798671" x="615.286754" y="189.806791" style="fill: #ff7f0e; stroke: #ff7f0e"/>
     <use xlink:href="#m88cf798671" x="617.999442" y="189.553247" style="fill: #ff7f0e; stroke: #ff7f0e"/>
     <use xlink:href="#m88cf798671" x="620.712131" y="184.001644" style="fill: #ff7f0e; stroke: #ff7f0e"/>
     <use xlink:href="#m88cf798671" x="623.424819" y="179.76174" style="fill: #ff7f0e; stroke: #ff7f0e"/>
     <use xlink:href="#m88cf798671" x="626.137508" y="184.289346" style="fill: #ff7f0e; stroke: #ff7f0e"/>
     <use xlink:href="#m88cf798671" x="628.850196" y="167.093077" style="fill: #ff7f0e; stroke: #ff7f0e"/>
     <use xlink:href="#m88cf798671" x="631.562884" y="180.926176" style="fill: #ff7f0e; stroke: #ff7f0e"/>
     <use xlink:href="#m88cf798671" x="634.275573" y="175.500275" style="fill: #ff7f0e; stroke: #ff7f0e"/>
     <use xlink:href="#m88cf798671" x="636.988261" y="186.413088" style="fill: #ff7f0e; stroke: #ff7f0e"/>
     <use xlink:href="#m88cf798671" x="639.70095" y="181.346146" style="fill: #ff7f0e; stroke: #ff7f0e"/>
     <use xlink:href="#m88cf798671" x="642.413638" y="173.130426" style="fill: #ff7f0e; stroke: #ff7f0e"/>
     <use xlink:href="#m88cf798671" x="645.126326" y="176.573616" style="fill: #ff7f0e; stroke: #ff7f0e"/>
    </g>
   </g>
   <g id="patch_8">
    <path d="M 468.937216 274.318125 
L 468.937216 22.318125 
" style="fill: none; stroke: #000000; stroke-width: 0.8; stroke-linejoin: miter; stroke-linecap: square"/>
   </g>
   <g id="patch_9">
    <path d="M 824.028125 274.318125 
L 824.028125 22.318125 
" style="fill: none; stroke: #000000; stroke-width: 0.8; stroke-linejoin: miter; stroke-linecap: square"/>
   </g>
   <g id="patch_10">
    <path d="M 468.937216 274.318125 
L 824.028125 274.318125 
" style="fill: none; stroke: #000000; stroke-width: 0.8; stroke-linejoin: miter; stroke-linecap: square"/>
   </g>
   <g id="patch_11">
    <path d="M 468.937216 22.318125 
L 824.028125 22.318125 
" style="fill: none; stroke: #000000; stroke-width: 0.8; stroke-linejoin: miter; stroke-linecap: square"/>
   </g>
   <g id="text_30">
    <!-- epochs loss for train and valid -->
    <g transform="translate(556.08517 16.318125)scale(0.12 -0.12)">
     <defs>
      <path id="DejaVuSans-66" d="M 2375 4863 
L 2375 4384 
L 1825 4384 
Q 1516 4384 1395 4259 
Q 1275 4134 1275 3809 
L 1275 3500 
L 2222 3500 
L 2222 3053 
L 1275 3053 
L 1275 0 
L 697 0 
L 697 3053 
L 147 3053 
L 147 3500 
L 697 3500 
L 697 3744 
Q 697 4328 969 4595 
Q 1241 4863 1831 4863 
L 2375 4863 
z
" transform="scale(0.015625)"/>
      <path id="DejaVuSans-64" d="M 2906 2969 
L 2906 4863 
L 3481 4863 
L 3481 0 
L 2906 0 
L 2906 525 
Q 2725 213 2448 61 
Q 2172 -91 1784 -91 
Q 1150 -91 751 415 
Q 353 922 353 1747 
Q 353 2572 751 3078 
Q 1150 3584 1784 3584 
Q 2172 3584 2448 3432 
Q 2725 3281 2906 2969 
z
M 947 1747 
Q 947 1113 1208 752 
Q 1469 391 1925 391 
Q 2381 391 2643 752 
Q 2906 1113 2906 1747 
Q 2906 2381 2643 2742 
Q 2381 3103 1925 3103 
Q 1469 3103 1208 2742 
Q 947 2381 947 1747 
z
" transform="scale(0.015625)"/>
      <path id="DejaVuSans-76" d="M 191 3500 
L 800 3500 
L 1894 563 
L 2988 3500 
L 3597 3500 
L 2284 0 
L 1503 0 
L 191 3500 
z
" transform="scale(0.015625)"/>
     </defs>
     <use xlink:href="#DejaVuSans-65"/>
     <use xlink:href="#DejaVuSans-70" x="61.523438"/>
     <use xlink:href="#DejaVuSans-6f" x="125"/>
     <use xlink:href="#DejaVuSans-63" x="186.181641"/>
     <use xlink:href="#DejaVuSans-68" x="241.162109"/>
     <use xlink:href="#DejaVuSans-73" x="304.541016"/>
     <use xlink:href="#DejaVuSans-20" x="356.640625"/>
     <use xlink:href="#DejaVuSans-6c" x="388.427734"/>
     <use xlink:href="#DejaVuSans-6f" x="416.210938"/>
     <use xlink:href="#DejaVuSans-73" x="477.392578"/>
     <use xlink:href="#DejaVuSans-73" x="529.492188"/>
     <use xlink:href="#DejaVuSans-20" x="581.591797"/>
     <use xlink:href="#DejaVuSans-66" x="613.378906"/>
     <use xlink:href="#DejaVuSans-6f" x="648.583984"/>
     <use xlink:href="#DejaVuSans-72" x="709.765625"/>
     <use xlink:href="#DejaVuSans-20" x="750.878906"/>
     <use xlink:href="#DejaVuSans-74" x="782.666016"/>
     <use xlink:href="#DejaVuSans-72" x="821.875"/>
     <use xlink:href="#DejaVuSans-61" x="862.988281"/>
     <use xlink:href="#DejaVuSans-69" x="924.267578"/>
     <use xlink:href="#DejaVuSans-6e" x="952.050781"/>
     <use xlink:href="#DejaVuSans-20" x="1015.429688"/>
     <use xlink:href="#DejaVuSans-61" x="1047.216797"/>
     <use xlink:href="#DejaVuSans-6e" x="1108.496094"/>
     <use xlink:href="#DejaVuSans-64" x="1171.875"/>
     <use xlink:href="#DejaVuSans-20" x="1235.351562"/>
     <use xlink:href="#DejaVuSans-76" x="1267.138672"/>
     <use xlink:href="#DejaVuSans-61" x="1326.318359"/>
     <use xlink:href="#DejaVuSans-6c" x="1387.597656"/>
     <use xlink:href="#DejaVuSans-69" x="1415.380859"/>
     <use xlink:href="#DejaVuSans-64" x="1443.164062"/>
    </g>
   </g>
   <g id="legend_1">
    <g id="patch_12">
     <path d="M 736.760937 60.230625 
L 817.028125 60.230625 
Q 819.028125 60.230625 819.028125 58.230625 
L 819.028125 29.318125 
Q 819.028125 27.318125 817.028125 27.318125 
L 736.760937 27.318125 
Q 734.760937 27.318125 734.760937 29.318125 
L 734.760937 58.230625 
Q 734.760937 60.230625 736.760937 60.230625 
z
" style="fill: #ffffff; opacity: 0.8; stroke: #cccccc; stroke-linejoin: miter"/>
    </g>
    <g id="line2d_30">
     <path d="M 738.760937 35.416562 
L 748.760937 35.416562 
L 758.760937 35.416562 
" style="fill: none; stroke: #1f77b4; stroke-width: 1.5; stroke-linecap: square"/>
     <g>
      <use xlink:href="#m2e603ddaad" x="748.760937" y="35.416562" style="fill: #1f77b4; stroke: #1f77b4"/>
     </g>
    </g>
    <g id="text_31">
     <!-- train_loss -->
     <g transform="translate(766.760937 38.916562)scale(0.1 -0.1)">
      <defs>
       <path id="DejaVuSans-5f" d="M 3263 -1063 
L 3263 -1509 
L -63 -1509 
L -63 -1063 
L 3263 -1063 
z
" transform="scale(0.015625)"/>
      </defs>
      <use xlink:href="#DejaVuSans-74"/>
      <use xlink:href="#DejaVuSans-72" x="39.208984"/>
      <use xlink:href="#DejaVuSans-61" x="80.322266"/>
      <use xlink:href="#DejaVuSans-69" x="141.601562"/>
      <use xlink:href="#DejaVuSans-6e" x="169.384766"/>
      <use xlink:href="#DejaVuSans-5f" x="232.763672"/>
      <use xlink:href="#DejaVuSans-6c" x="282.763672"/>
      <use xlink:href="#DejaVuSans-6f" x="310.546875"/>
      <use xlink:href="#DejaVuSans-73" x="371.728516"/>
      <use xlink:href="#DejaVuSans-73" x="423.828125"/>
     </g>
    </g>
    <g id="line2d_31">
     <path d="M 738.760937 50.372812 
L 748.760937 50.372812 
L 758.760937 50.372812 
" style="fill: none; stroke: #ff7f0e; stroke-width: 1.5; stroke-linecap: square"/>
     <g>
      <use xlink:href="#m88cf798671" x="748.760937" y="50.372812" style="fill: #ff7f0e; stroke: #ff7f0e"/>
     </g>
    </g>
    <g id="text_32">
     <!-- valid_loss -->
     <g transform="translate(766.760937 53.872812)scale(0.1 -0.1)">
      <use xlink:href="#DejaVuSans-76"/>
      <use xlink:href="#DejaVuSans-61" x="59.179688"/>
      <use xlink:href="#DejaVuSans-6c" x="120.458984"/>
      <use xlink:href="#DejaVuSans-69" x="148.242188"/>
      <use xlink:href="#DejaVuSans-64" x="176.025391"/>
      <use xlink:href="#DejaVuSans-5f" x="239.501953"/>
      <use xlink:href="#DejaVuSans-6c" x="289.501953"/>
      <use xlink:href="#DejaVuSans-6f" x="317.285156"/>
      <use xlink:href="#DejaVuSans-73" x="378.466797"/>
      <use xlink:href="#DejaVuSans-73" x="430.566406"/>
     </g>
    </g>
   </g>
  </g>
 </g>
 <defs>
  <clipPath id="pe4e7ad84b7">
   <rect x="42.828125" y="22.318125" width="355.090909" height="252"/>
  </clipPath>
  <clipPath id="pc2fe05e4b1">
   <rect x="468.937216" y="22.318125" width="355.090909" height="252"/>
  </clipPath>
 </defs>
</svg>
